{"glyphs":{"0":{"ha":521,"x_min":0,"x_max":0,"o":"m 87 0 l 87 87 l 347 87 l 347 0 z m 0 87 l 0 608 l 87 608 l 87 87 z m 347 87 l 347 608 l 434 608 l 434 87 z m 87 608 l 87 694 l 347 694 l 347 608 z "},"1":{"ha":347,"x_min":0,"x_max":0,"o":"m 0 0 l 0 87 l 87 87 l 87 521 l 0 521 l 0 608 l 87 608 l 87 694 l 174 694 l 174 87 l 260 87 l 260 0 z "},"2":{"ha":521,"x_min":0,"x_max":0,"o":"m 0 0 l 0 174 l 87 174 l 87 87 l 434 87 l 434 0 z m 87 174 l 87 260 l 174 260 l 174 174 z m 174 260 l 174 347 l 260 347 l 260 260 z m 260 347 l 260 434 l 347 434 l 347 347 z m 0 521 l 0 608 l 87 608 l 87 521 z m 347 434 l 347 608 l 434 608 l 434 434 z m 87 608 l 87 694 l 347 694 l 347 608 z "},"3":{"ha":521,"x_min":0,"x_max":0,"o":"m 87 0 l 87 87 l 347 87 l 347 0 z m 0 87 l 0 174 l 87 174 l 87 87 z m 347 87 l 347 347 l 434 347 l 434 87 z m 174 347 l 174 434 l 347 434 l 347 347 z m 0 521 l 0 608 l 87 608 l 87 521 z m 347 434 l 347 608 l 434 608 l 434 434 z m 87 608 l 87 694 l 347 694 l 347 608 z "},"4":{"ha":521,"x_min":0,"x_max":0,"o":"m 87 434 l 87 521 l 174 521 l 174 434 z m 260 0 l 260 260 l 0 260 l 0 434 l 87 434 l 87 347 l 260 347 l 260 521 l 174 521 l 174 608 l 260 608 l 260 694 l 347 694 l 347 347 l 434 347 l 434 260 l 347 260 l 347 0 z "},"5":{"ha":521,"x_min":0,"x_max":0,"o":"m 87 0 l 87 87 l 347 87 l 347 0 z m 0 87 l 0 174 l 87 174 l 87 87 z m 347 87 l 347 347 l 434 347 l 434 87 z m 0 347 l 0 694 l 434 694 l 434 608 l 87 608 l 87 434 l 347 434 l 347 347 z "},"6":{"ha":521,"x_min":0,"x_max":0,"o":"m 87 0 l 87 87 l 347 87 l 347 0 z m 347 87 l 347 347 l 434 347 l 434 87 z m 0 87 l 0 521 l 87 521 l 87 434 l 347 434 l 347 347 l 87 347 l 87 87 z m 87 521 l 87 608 l 174 608 l 174 521 z m 174 608 l 174 694 l 347 694 l 347 608 z "},"7":{"ha":521,"x_min":0,"x_max":0,"o":"m 87 0 l 87 174 l 174 174 l 174 0 z m 174 174 l 174 347 l 260 347 l 260 174 z m 260 347 l 260 521 l 347 521 l 347 347 z m 347 521 l 347 608 l 0 608 l 0 694 l 434 694 l 434 521 z "},"8":{"ha":521,"x_min":0,"x_max":0,"o":"m 87 0 l 87 87 l 347 87 l 347 0 z m 0 87 l 0 347 l 87 347 l 87 87 z m 347 87 l 347 347 l 434 347 l 434 87 z m 87 347 l 87 434 l 347 434 l 347 347 z m 0 434 l 0 608 l 87 608 l 87 434 z m 347 434 l 347 608 l 434 608 l 434 434 z m 87 608 l 87 694 l 347 694 l 347 608 z "},"9":{"ha":521,"x_min":0,"x_max":0,"o":"m 87 0 l 87 87 l 260 87 l 260 0 z m 260 87 l 260 174 l 347 174 l 347 87 z m 0 347 l 0 608 l 87 608 l 87 347 z m 347 174 l 347 260 l 87 260 l 87 347 l 347 347 l 347 608 l 434 608 l 434 174 z m 87 608 l 87 694 l 347 694 l 347 608 z "}," ":{"ha":217,"x_min":0,"x_max":0,"o":""},"!":{"ha":174,"x_min":0,"x_max":0,"o":"m 0 0 l 0 87 l 87 87 l 87 0 z m 0 174 l 0 694 l 87 694 l 87 174 z "},"\"":{"ha":347,"x_min":0,"x_max":0,"o":"m 0 521 l 0 781 l 87 781 l 87 521 z m 174 521 l 174 781 l 260 781 l 260 521 z "},"#":{"ha":694,"x_min":0,"x_max":0,"o":"m 347 260 l 347 434 l 260 434 l 260 260 z m 87 0 l 87 174 l 0 174 l 0 260 l 174 260 l 174 434 l 87 434 l 87 521 l 260 521 l 260 694 l 347 694 l 347 521 l 434 521 l 434 694 l 521 694 l 521 521 l 608 521 l 608 434 l 434 434 l 434 260 l 521 260 l 521 174 l 347 174 l 347 0 l 260 0 l 260 174 l 174 174 l 174 0 z "},"$":{"ha":521,"x_min":0,"x_max":0,"o":"m 347 87 l 347 260 l 434 260 l 434 87 z m 0 347 l 0 521 l 87 521 l 87 347 z m 174 -174 l 174 0 l 0 0 l 0 87 l 174 87 l 174 260 l 87 260 l 87 347 l 174 347 l 174 521 l 87 521 l 87 608 l 174 608 l 174 781 l 260 781 l 260 608 l 434 608 l 434 521 l 260 521 l 260 347 l 347 347 l 347 260 l 260 260 l 260 87 l 347 87 l 347 0 l 260 0 l 260 -174 z "},"%":{"ha":955,"x_min":0,"x_max":0,"o":"m 608 0 l 608 87 l 781 87 l 781 0 z m 260 0 l 260 174 l 347 174 l 347 0 z m 521 87 l 521 260 l 608 260 l 608 87 z m 781 87 l 781 260 l 868 260 l 868 87 z m 347 174 l 347 347 l 434 347 l 434 174 z m 608 260 l 608 347 l 781 347 l 781 260 z m 87 347 l 87 434 l 260 434 l 260 347 z m 434 347 l 434 521 l 521 521 l 521 347 z m 0 434 l 0 608 l 87 608 l 87 434 z m 260 434 l 260 608 l 347 608 l 347 434 z m 87 608 l 87 694 l 260 694 l 260 608 z m 521 521 l 521 694 l 608 694 l 608 521 z "},"&":{"ha":694,"x_min":0,"x_max":0,"o":"m 87 0 l 87 87 l 347 87 l 347 0 z m 521 0 l 521 87 l 608 87 l 608 0 z m 347 87 l 347 260 l 434 260 l 434 174 l 521 174 l 521 87 z m 0 87 l 0 347 l 87 347 l 87 87 z m 260 260 l 260 347 l 347 347 l 347 260 z m 87 347 l 87 434 l 260 434 l 260 347 z m 434 260 l 434 434 l 521 434 l 521 260 z m 0 434 l 0 608 l 87 608 l 87 434 z m 260 434 l 260 608 l 347 608 l 347 434 z m 87 608 l 87 694 l 260 694 l 260 608 z "},"'":{"ha":174,"x_min":0,"x_max":0,"o":"m 0 521 l 0 781 l 87 781 l 87 521 z "},"(":{"ha":347,"x_min":0,"x_max":0,"o":"m 174 -174 l 174 -87 l 260 -87 l 260 -174 z m 87 -87 l 87 87 l 174 87 l 174 -87 z m 0 87 l 0 521 l 87 521 l 87 87 z m 87 521 l 87 694 l 174 694 l 174 521 z m 174 694 l 174 781 l 260 781 l 260 694 z "},")":{"ha":347,"x_min":0,"x_max":0,"o":"m 0 -174 l 0 -87 l 87 -87 l 87 -174 z m 87 -87 l 87 87 l 174 87 l 174 -87 z m 174 87 l 174 521 l 260 521 l 260 87 z m 87 521 l 87 694 l 174 694 l 174 521 z m 0 694 l 0 781 l 87 781 l 87 694 z "},"*":{"ha":521,"x_min":0,"x_max":0,"o":"m 0 434 l 0 521 l 87 521 l 87 434 z m 347 434 l 347 521 l 434 521 l 434 434 z m 0 608 l 0 694 l 87 694 l 87 608 z m 347 608 l 347 694 l 434 694 l 434 608 z m 174 347 l 174 521 l 87 521 l 87 608 l 174 608 l 174 781 l 260 781 l 260 608 l 347 608 l 347 521 l 260 521 l 260 347 z "},"+":{"ha":694,"x_min":0,"x_max":0,"o":"m 260 0 l 260 260 l 0 260 l 0 347 l 260 347 l 260 608 l 347 608 l 347 347 l 608 347 l 608 260 l 347 260 l 347 0 z "},",":{"ha":260,"x_min":0,"x_max":0,"o":"m 0 -174 l 0 -87 l 87 -87 l 87 -174 z m 87 -87 l 87 174 l 174 174 l 174 -87 z "},"-":{"ha":347,"x_min":0,"x_max":0,"o":"m 0 260 l 0 347 l 260 347 l 260 260 z "},".":{"ha":174,"x_min":0,"x_max":0,"o":"m 0 0 l 0 174 l 87 174 l 87 0 z "},"/":{"ha":347,"x_min":0,"x_max":0,"o":"m 0 -174 l 0 87 l 87 87 l 87 -174 z m 87 87 l 87 521 l 174 521 l 174 87 z m 174 521 l 174 781 l 260 781 l 260 521 z "},":":{"ha":174,"x_min":0,"x_max":0,"o":"m 0 0 l 0 174 l 87 174 l 87 0 z m 0 347 l 0 521 l 87 521 l 87 347 z "},";":{"ha":260,"x_min":0,"x_max":0,"o":"m 0 -174 l 0 -87 l 87 -87 l 87 -174 z m 87 -87 l 87 174 l 174 174 l 174 -87 z m 87 347 l 87 521 l 174 521 l 174 347 z "},"<":{"ha":608,"x_min":0,"x_max":0,"o":"m 434 0 l 434 87 l 521 87 l 521 0 z m 260 87 l 260 174 l 434 174 l 434 87 z m 87 174 l 87 260 l 260 260 l 260 174 z m 0 260 l 0 347 l 87 347 l 87 260 z m 87 347 l 87 434 l 260 434 l 260 347 z m 260 434 l 260 521 l 434 521 l 434 434 z m 434 521 l 434 608 l 521 608 l 521 521 z "},"=":{"ha":694,"x_min":0,"x_max":0,"o":"m 0 174 l 0 260 l 608 260 l 608 174 z m 0 347 l 0 434 l 608 434 l 608 347 z "},">":{"ha":608,"x_min":0,"x_max":0,"o":"m 0 0 l 0 87 l 87 87 l 87 0 z m 87 87 l 87 174 l 260 174 l 260 87 z m 260 174 l 260 260 l 434 260 l 434 174 z m 434 260 l 434 347 l 521 347 l 521 260 z m 260 347 l 260 434 l 434 434 l 434 347 z m 87 434 l 87 521 l 260 521 l 260 434 z m 0 521 l 0 608 l 87 608 l 87 521 z "},"?":{"ha":434,"x_min":0,"x_max":0,"o":"m 87 0 l 87 87 l 174 87 l 174 0 z m 87 174 l 87 347 l 174 347 l 174 174 z m 174 347 l 174 434 l 260 434 l 260 347 z m 260 434 l 260 608 l 347 608 l 347 434 z m 0 608 l 0 694 l 260 694 l 260 608 z "},"@":{"ha":868,"x_min":0,"x_max":0,"o":"m 174 -87 l 174 0 l 521 0 l 521 -87 z m 87 0 l 87 87 l 174 87 l 174 0 z m 174 174 l 174 434 l 260 434 l 260 174 z m 0 87 l 0 521 l 87 521 l 87 87 z m 260 87 l 260 174 l 434 174 l 434 434 l 260 434 l 260 521 l 521 521 l 521 174 l 694 174 l 694 87 z m 694 174 l 694 521 l 781 521 l 781 174 z m 87 521 l 87 608 l 174 608 l 174 521 z m 608 521 l 608 608 l 694 608 l 694 521 z m 174 608 l 174 694 l 608 694 l 608 608 z "},"A":{"ha":608,"x_min":0,"x_max":0,"o":"m 0 0 l 0 260 l 87 260 l 87 521 l 174 521 l 174 260 l 347 260 l 347 521 l 434 521 l 434 260 l 521 260 l 521 0 l 434 0 l 434 174 l 87 174 l 87 0 z m 174 521 l 174 694 l 347 694 l 347 521 z "},"B":{"ha":521,"x_min":0,"x_max":0,"o":"m 347 87 l 347 347 l 434 347 l 434 87 z m 347 434 l 347 608 l 434 608 l 434 434 z m 0 0 l 0 694 l 347 694 l 347 608 l 87 608 l 87 434 l 347 434 l 347 347 l 87 347 l 87 87 l 347 87 l 347 0 z "},"C":{"ha":608,"x_min":0,"x_max":0,"o":"m 174 0 l 174 87 l 521 87 l 521 0 z m 87 87 l 87 174 l 174 174 l 174 87 z m 0 174 l 0 521 l 87 521 l 87 174 z m 87 521 l 87 608 l 174 608 l 174 521 z m 174 608 l 174 694 l 521 694 l 521 608 z "},"D":{"ha":608,"x_min":0,"x_max":0,"o":"m 347 87 l 347 174 l 434 174 l 434 87 z m 434 174 l 434 521 l 521 521 l 521 174 z m 347 521 l 347 608 l 434 608 l 434 521 z m 0 0 l 0 694 l 347 694 l 347 608 l 87 608 l 87 87 l 347 87 l 347 0 z "},"E":{"ha":521,"x_min":0,"x_max":0,"o":"m 0 0 l 0 694 l 434 694 l 434 608 l 87 608 l 87 434 l 347 434 l 347 347 l 87 347 l 87 87 l 434 87 l 434 0 z "},"F":{"ha":521,"x_min":0,"x_max":0,"o":"m 0 0 l 0 694 l 434 694 l 434 608 l 87 608 l 87 434 l 434 434 l 434 347 l 87 347 l 87 0 z "},"G":{"ha":608,"x_min":0,"x_max":0,"o":"m 87 87 l 87 174 l 174 174 l 174 87 z m 174 0 l 174 87 l 434 87 l 434 260 l 260 260 l 260 347 l 521 347 l 521 0 z m 0 174 l 0 521 l 87 521 l 87 174 z m 87 521 l 87 608 l 174 608 l 174 521 z m 174 608 l 174 694 l 521 694 l 521 608 z "},"H":{"ha":608,"x_min":0,"x_max":0,"o":"m 0 0 l 0 694 l 87 694 l 87 434 l 434 434 l 434 694 l 521 694 l 521 0 l 434 0 l 434 347 l 87 347 l 87 0 z "},"I":{"ha":347,"x_min":0,"x_max":0,"o":"m 0 0 l 0 87 l 87 87 l 87 608 l 0 608 l 0 694 l 260 694 l 260 608 l 174 608 l 174 87 l 260 87 l 260 0 z "},"J":{"ha":434,"x_min":0,"x_max":0,"o":"m 0 0 l 0 87 l 260 87 l 260 0 z m 260 87 l 260 608 l 87 608 l 87 694 l 347 694 l 347 87 z "},"K":{"ha":521,"x_min":0,"x_max":0,"o":"m 347 0 l 347 87 l 434 87 l 434 0 z m 260 87 l 260 174 l 347 174 l 347 87 z m 174 174 l 174 260 l 260 260 l 260 174 z m 174 434 l 174 521 l 260 521 l 260 434 z m 260 521 l 260 608 l 347 608 l 347 521 z m 0 0 l 0 694 l 87 694 l 87 434 l 174 434 l 174 260 l 87 260 l 87 0 z m 347 608 l 347 694 l 434 694 l 434 608 z "},"L":{"ha":434,"x_min":0,"x_max":0,"o":"m 0 0 l 0 694 l 87 694 l 87 87 l 347 87 l 347 0 z "},"M":{"ha":694,"x_min":0,"x_max":0,"o":"m 260 174 l 260 347 l 347 347 l 347 174 z m 174 347 l 174 521 l 260 521 l 260 347 z m 347 347 l 347 521 l 434 521 l 434 347 z m 0 0 l 0 694 l 174 694 l 174 521 l 87 521 l 87 0 z m 521 0 l 521 521 l 434 521 l 434 694 l 608 694 l 608 0 z "},"N":{"ha":608,"x_min":0,"x_max":0,"o":"m 260 174 l 260 347 l 347 347 l 347 174 z m 174 347 l 174 521 l 260 521 l 260 347 z m 0 0 l 0 694 l 174 694 l 174 521 l 87 521 l 87 0 z m 347 0 l 347 174 l 434 174 l 434 694 l 521 694 l 521 0 z "},"O":{"ha":694,"x_min":0,"x_max":0,"o":"m 174 0 l 174 87 l 434 87 l 434 0 z m 87 87 l 87 174 l 174 174 l 174 87 z m 434 87 l 434 174 l 521 174 l 521 87 z m 0 174 l 0 521 l 87 521 l 87 174 z m 521 174 l 521 521 l 608 521 l 608 174 z m 87 521 l 87 608 l 174 608 l 174 521 z m 434 521 l 434 608 l 521 608 l 521 521 z m 174 608 l 174 694 l 434 694 l 434 608 z "},"P":{"ha":521,"x_min":0,"x_max":0,"o":"m 347 347 l 347 608 l 434 608 l 434 347 z m 0 0 l 0 694 l 347 694 l 347 608 l 87 608 l 87 347 l 347 347 l 347 260 l 87 260 l 87 0 z "},"Q":{"ha":694,"x_min":0,"x_max":0,"o":"m 434 -174 l 434 -87 l 608 -87 l 608 -174 z m 347 -87 l 347 0 l 174 0 l 174 87 l 434 87 l 434 -87 z m 87 87 l 87 174 l 174 174 l 174 87 z m 434 87 l 434 174 l 521 174 l 521 87 z m 0 174 l 0 521 l 87 521 l 87 174 z m 521 174 l 521 521 l 608 521 l 608 174 z m 87 521 l 87 608 l 174 608 l 174 521 z m 434 521 l 434 608 l 521 608 l 521 521 z m 174 608 l 174 694 l 434 694 l 434 608 z "},"R":{"ha":608,"x_min":0,"x_max":0,"o":"m 434 0 l 434 87 l 521 87 l 521 0 z m 347 87 l 347 174 l 434 174 l 434 87 z m 347 347 l 347 608 l 434 608 l 434 347 z m 0 0 l 0 694 l 347 694 l 347 608 l 87 608 l 87 347 l 347 347 l 347 174 l 260 174 l 260 260 l 87 260 l 87 0 z "},"S":{"ha":521,"x_min":0,"x_max":0,"o":"m 0 0 l 0 87 l 347 87 l 347 0 z m 347 87 l 347 347 l 434 347 l 434 87 z m 87 347 l 87 434 l 347 434 l 347 347 z m 0 434 l 0 608 l 87 608 l 87 434 z m 87 608 l 87 694 l 434 694 l 434 608 z "},"T":{"ha":521,"x_min":0,"x_max":0,"o":"m 174 0 l 174 608 l 0 608 l 0 694 l 434 694 l 434 608 l 260 608 l 260 0 z "},"U":{"ha":608,"x_min":0,"x_max":0,"o":"m 87 0 l 87 87 l 434 87 l 434 0 z m 0 87 l 0 694 l 87 694 l 87 87 z m 434 87 l 434 694 l 521 694 l 521 87 z "},"V":{"ha":521,"x_min":0,"x_max":0,"o":"m 174 0 l 174 174 l 260 174 l 260 0 z m 87 174 l 87 434 l 174 434 l 174 174 z m 260 174 l 260 434 l 347 434 l 347 174 z m 0 434 l 0 694 l 87 694 l 87 434 z m 347 434 l 347 694 l 434 694 l 434 434 z "},"W":{"ha":868,"x_min":0,"x_max":0,"o":"m 174 0 l 174 174 l 260 174 l 260 0 z m 521 0 l 521 174 l 608 174 l 608 0 z m 87 174 l 87 434 l 174 434 l 174 174 z m 260 174 l 260 434 l 347 434 l 347 174 z m 434 174 l 434 434 l 521 434 l 521 174 z m 608 174 l 608 434 l 694 434 l 694 174 z m 0 434 l 0 694 l 87 694 l 87 434 z m 347 434 l 347 694 l 434 694 l 434 434 z m 694 434 l 694 694 l 781 694 l 781 434 z "},"X":{"ha":521,"x_min":0,"x_max":0,"o":"m 0 0 l 0 174 l 87 174 l 87 0 z m 347 0 l 347 174 l 434 174 l 434 0 z m 87 174 l 87 260 l 174 260 l 174 174 z m 260 174 l 260 260 l 347 260 l 347 174 z m 174 260 l 174 434 l 260 434 l 260 260 z m 87 434 l 87 521 l 174 521 l 174 434 z m 260 434 l 260 521 l 347 521 l 347 434 z m 0 521 l 0 694 l 87 694 l 87 521 z m 347 521 l 347 694 l 434 694 l 434 521 z "},"Y":{"ha":521,"x_min":0,"x_max":0,"o":"m 174 0 l 174 347 l 260 347 l 260 0 z m 87 347 l 87 521 l 174 521 l 174 347 z m 260 347 l 260 521 l 347 521 l 347 347 z m 0 521 l 0 694 l 87 694 l 87 521 z m 347 521 l 347 694 l 434 694 l 434 521 z "},"Z":{"ha":521,"x_min":0,"x_max":0,"o":"m 0 0 l 0 174 l 87 174 l 87 87 l 434 87 l 434 0 z m 87 174 l 87 260 l 174 260 l 174 174 z m 174 260 l 174 434 l 260 434 l 260 260 z m 260 434 l 260 521 l 347 521 l 347 434 z m 347 521 l 347 608 l 0 608 l 0 694 l 434 694 l 434 521 z "},"[":{"ha":347,"x_min":0,"x_max":0,"o":"m 0 -174 l 0 781 l 260 781 l 260 694 l 87 694 l 87 -87 l 260 -87 l 260 -174 z "},"\\":{"ha":347,"x_min":0,"x_max":0,"o":"m 174 -174 l 174 87 l 260 87 l 260 -174 z m 87 87 l 87 521 l 174 521 l 174 87 z m 0 521 l 0 781 l 87 781 l 87 521 z "},"]":{"ha":347,"x_min":0,"x_max":0,"o":"m 0 -174 l 0 -87 l 174 -87 l 174 694 l 0 694 l 0 781 l 260 781 l 260 -174 z "},"^":{"ha":694,"x_min":0,"x_max":0,"o":"m 0 347 l 0 434 l 87 434 l 87 347 z m 521 347 l 521 434 l 608 434 l 608 347 z m 87 434 l 87 521 l 174 521 l 174 434 z m 434 434 l 434 521 l 521 521 l 521 434 z m 174 521 l 174 608 l 260 608 l 260 521 z m 347 521 l 347 608 l 434 608 l 434 521 z m 260 608 l 260 694 l 347 694 l 347 608 z "},"_":{"ha":608,"x_min":0,"x_max":0,"o":"m 0 -174 l 0 -87 l 521 -87 l 521 -174 z "},"`":{"ha":260,"x_min":0,"x_max":0,"o":"m 87 608 l 87 694 l 174 694 l 174 608 z m 0 694 l 0 781 l 87 781 l 87 694 z "},"a":{"ha":521,"x_min":0,"x_max":0,"o":"m 0 87 l 0 260 l 87 260 l 87 87 z m 87 0 l 87 87 l 347 87 l 347 260 l 87 260 l 87 347 l 347 347 l 347 434 l 434 434 l 434 0 z m 87 434 l 87 521 l 347 521 l 347 434 z "},"b":{"ha":521,"x_min":0,"x_max":0,"o":"m 347 87 l 347 434 l 434 434 l 434 87 z m 0 0 l 0 781 l 87 781 l 87 521 l 347 521 l 347 434 l 87 434 l 87 87 l 347 87 l 347 0 z "},"c":{"ha":434,"x_min":0,"x_max":0,"o":"m 87 0 l 87 87 l 347 87 l 347 0 z m 0 87 l 0 434 l 87 434 l 87 87 z m 87 434 l 87 521 l 347 521 l 347 434 z "},"d":{"ha":521,"x_min":0,"x_max":0,"o":"m 0 87 l 0 434 l 87 434 l 87 87 z m 87 0 l 87 87 l 347 87 l 347 434 l 87 434 l 87 521 l 347 521 l 347 781 l 434 781 l 434 0 z "},"e":{"ha":521,"x_min":0,"x_max":0,"o":"m 87 0 l 87 87 l 347 87 l 347 0 z m 347 87 l 347 174 l 434 174 l 434 87 z m 0 87 l 0 434 l 87 434 l 87 347 l 347 347 l 347 434 l 434 434 l 434 260 l 87 260 l 87 87 z m 87 434 l 87 521 l 347 521 l 347 434 z "},"f":{"ha":347,"x_min":0,"x_max":0,"o":"m 0 0 l 0 694 l 87 694 l 87 521 l 260 521 l 260 434 l 87 434 l 87 0 z m 87 694 l 87 781 l 260 781 l 260 694 z "},"g":{"ha":521,"x_min":0,"x_max":0,"o":"m 87 -174 l 87 -87 l 347 -87 l 347 -174 z m 0 87 l 0 434 l 87 434 l 87 87 z m 347 -87 l 347 0 l 87 0 l 87 87 l 347 87 l 347 434 l 87 434 l 87 521 l 434 521 l 434 -87 z "},"h":{"ha":521,"x_min":0,"x_max":0,"o":"m 347 0 l 347 434 l 434 434 l 434 0 z m 0 0 l 0 781 l 87 781 l 87 521 l 347 521 l 347 434 l 87 434 l 87 0 z "},"i":{"ha":174,"x_min":0,"x_max":0,"o":"m 0 0 l 0 521 l 87 521 l 87 0 z m 0 608 l 0 694 l 87 694 l 87 608 z "},"j":{"ha":260,"x_min":0,"x_max":0,"o":"m 0 -174 l 0 -87 l 87 -87 l 87 -174 z m 87 -87 l 87 434 l 0 434 l 0 521 l 174 521 l 174 -87 z m 87 608 l 87 694 l 174 694 l 174 608 z "},"k":{"ha":521,"x_min":0,"x_max":0,"o":"m 347 0 l 347 87 l 434 87 l 434 0 z m 260 87 l 260 174 l 347 174 l 347 87 z m 174 174 l 174 260 l 260 260 l 260 174 z m 174 347 l 174 434 l 260 434 l 260 347 z m 260 434 l 260 521 l 347 521 l 347 434 z m 0 0 l 0 781 l 87 781 l 87 347 l 174 347 l 174 260 l 87 260 l 87 0 z "},"l":{"ha":174,"x_min":0,"x_max":0,"o":"m 0 0 l 0 781 l 87 781 l 87 0 z "},"m":{"ha":694,"x_min":0,"x_max":0,"o":"m 260 0 l 260 434 l 347 434 l 347 0 z m 521 0 l 521 434 l 608 434 l 608 0 z m 0 0 l 0 521 l 260 521 l 260 434 l 87 434 l 87 0 z m 347 434 l 347 521 l 521 521 l 521 434 z "},"n":{"ha":521,"x_min":0,"x_max":0,"o":"m 347 0 l 347 434 l 434 434 l 434 0 z m 0 0 l 0 521 l 347 521 l 347 434 l 87 434 l 87 0 z "},"o":{"ha":521,"x_min":0,"x_max":0,"o":"m 87 0 l 87 87 l 347 87 l 347 0 z m 0 87 l 0 434 l 87 434 l 87 87 z m 347 87 l 347 434 l 434 434 l 434 87 z m 87 434 l 87 521 l 347 521 l 347 434 z "},"p":{"ha":521,"x_min":0,"x_max":0,"o":"m 347 87 l 347 434 l 434 434 l 434 87 z m 0 -174 l 0 521 l 347 521 l 347 434 l 87 434 l 87 87 l 347 87 l 347 0 l 87 0 l 87 -174 z "},"q":{"ha":521,"x_min":0,"x_max":0,"o":"m 0 87 l 0 434 l 87 434 l 87 87 z m 347 -174 l 347 0 l 87 0 l 87 87 l 347 87 l 347 434 l 87 434 l 87 521 l 434 521 l 434 -174 z "},"r":{"ha":347,"x_min":0,"x_max":0,"o":"m 0 0 l 0 521 l 87 521 l 87 434 l 174 434 l 174 347 l 87 347 l 87 0 z m 174 434 l 174 521 l 260 521 l 260 434 z "},"s":{"ha":434,"x_min":0,"x_max":0,"o":"m 0 0 l 0 87 l 260 87 l 260 0 z m 260 87 l 260 174 l 174 174 l 174 260 l 347 260 l 347 87 z m 0 260 l 0 434 l 87 434 l 87 347 l 174 347 l 174 260 z m 87 434 l 87 521 l 347 521 l 347 434 z "},"t":{"ha":347,"x_min":0,"x_max":0,"o":"m 87 0 l 87 87 l 260 87 l 260 0 z m 0 87 l 0 694 l 87 694 l 87 521 l 260 521 l 260 434 l 87 434 l 87 87 z "},"u":{"ha":521,"x_min":0,"x_max":0,"o":"m 0 87 l 0 521 l 87 521 l 87 87 z m 87 0 l 87 87 l 347 87 l 347 521 l 434 521 l 434 0 z "},"v":{"ha":521,"x_min":0,"x_max":0,"o":"m 174 0 l 174 174 l 260 174 l 260 0 z m 87 174 l 87 347 l 174 347 l 174 174 z m 260 174 l 260 347 l 347 347 l 347 174 z m 0 347 l 0 521 l 87 521 l 87 347 z m 347 347 l 347 521 l 434 521 l 434 347 z "},"w":{"ha":694,"x_min":0,"x_max":0,"o":"m 87 0 l 87 174 l 174 174 l 174 0 z m 434 0 l 434 174 l 521 174 l 521 0 z m 174 174 l 174 347 l 260 347 l 260 174 z m 347 174 l 347 347 l 434 347 l 434 174 z m 0 174 l 0 521 l 87 521 l 87 174 z m 260 347 l 260 521 l 347 521 l 347 347 z m 521 174 l 521 521 l 608 521 l 608 174 z "},"x":{"ha":521,"x_min":0,"x_max":0,"o":"m 0 0 l 0 87 l 87 87 l 87 0 z m 347 0 l 347 87 l 434 87 l 434 0 z m 87 87 l 87 174 l 174 174 l 174 87 z m 260 87 l 260 174 l 347 174 l 347 87 z m 174 174 l 174 347 l 260 347 l 260 174 z m 87 347 l 87 434 l 174 434 l 174 347 z m 260 347 l 260 434 l 347 434 l 347 347 z m 0 434 l 0 521 l 87 521 l 87 434 z m 347 434 l 347 521 l 434 521 l 434 434 z "},"y":{"ha":521,"x_min":0,"x_max":0,"o":"m 87 -174 l 87 0 l 174 0 l 174 -174 z m 174 0 l 174 174 l 260 174 l 260 0 z m 87 174 l 87 347 l 174 347 l 174 174 z m 260 174 l 260 347 l 347 347 l 347 174 z m 0 347 l 0 521 l 87 521 l 87 347 z m 347 347 l 347 521 l 434 521 l 434 347 z "},"z":{"ha":434,"x_min":0,"x_max":0,"o":"m 0 0 l 0 174 l 87 174 l 87 87 l 347 87 l 347 0 z m 87 174 l 87 260 l 174 260 l 174 174 z m 174 260 l 174 347 l 260 347 l 260 260 z m 260 347 l 260 434 l 0 434 l 0 521 l 347 521 l 347 347 z "},"{":{"ha":434,"x_min":0,"x_max":0,"o":"m 260 -174 l 260 -87 l 347 -87 l 347 -174 z m 174 -87 l 174 260 l 260 260 l 260 -87 z m 0 260 l 0 347 l 174 347 l 174 260 z m 174 347 l 174 694 l 260 694 l 260 347 z m 260 694 l 260 781 l 347 781 l 347 694 z "},"|":{"ha":174,"x_min":0,"x_max":0,"o":"m 0 -174 l 0 781 l 87 781 l 87 -174 z "},"}":{"ha":434,"x_min":0,"x_max":0,"o":"m 0 -174 l 0 -87 l 87 -87 l 87 -174 z m 87 -87 l 87 260 l 174 260 l 174 -87 z m 174 260 l 174 347 l 347 347 l 347 260 z m 87 347 l 87 694 l 174 694 l 174 347 z m 0 694 l 0 781 l 87 781 l 87 694 z "},"~":{"ha":694,"x_min":0,"x_max":0,"o":"m 347 174 l 347 260 l 521 260 l 521 174 z m 0 174 l 0 347 l 87 347 l 87 174 z m 260 260 l 260 347 l 347 347 l 347 260 z m 87 347 l 87 434 l 260 434 l 260 347 z m 521 260 l 521 434 l 608 434 l 608 260 z "},"¡":{"ha":174,"x_min":0,"x_max":0,"o":"m 0 0 l 0 521 l 87 521 l 87 0 z m 0 608 l 0 694 l 87 694 l 87 608 z "},"¢":{"ha":521,"x_min":0,"x_max":0,"o":"m 0 87 l 0 434 l 87 434 l 87 87 z m 174 -174 l 174 0 l 87 0 l 87 87 l 174 87 l 174 434 l 87 434 l 87 521 l 174 521 l 174 694 l 260 694 l 260 521 l 434 521 l 434 434 l 260 434 l 260 87 l 434 87 l 434 0 l 260 0 l 260 -174 z "},"£":{"ha":521,"x_min":0,"x_max":0,"o":"m 0 0 l 0 87 l 87 87 l 87 260 l 0 260 l 0 347 l 87 347 l 87 608 l 174 608 l 174 347 l 347 347 l 347 260 l 174 260 l 174 87 l 434 87 l 434 0 z m 174 608 l 174 694 l 434 694 l 434 608 z "},"¤":{"ha":521,"x_min":0,"x_max":0,"o":"m 0 87 l 0 174 l 87 174 l 87 87 z m 347 87 l 347 174 l 434 174 l 434 87 z m 260 260 l 260 347 l 174 347 l 174 260 z m 87 174 l 87 434 l 347 434 l 347 174 z m 0 434 l 0 521 l 87 521 l 87 434 z m 347 434 l 347 521 l 434 521 l 434 434 z "},"¥":{"ha":521,"x_min":0,"x_max":0,"o":"m 174 0 l 174 174 l 0 174 l 0 260 l 174 260 l 174 434 l 260 434 l 260 260 l 434 260 l 434 174 l 260 174 l 260 0 z m 87 434 l 87 608 l 174 608 l 174 434 z m 260 434 l 260 608 l 347 608 l 347 434 z m 0 608 l 0 694 l 87 694 l 87 608 z m 347 608 l 347 694 l 434 694 l 434 608 z "},"¦":{"ha":174,"x_min":0,"x_max":0,"o":"m 0 -174 l 0 260 l 87 260 l 87 -174 z m 0 434 l 0 781 l 87 781 l 87 434 z "},"§":{"ha":521,"x_min":0,"x_max":0,"o":"m 0 -174 l 0 -87 l 347 -87 l 347 -174 z m 347 -87 l 347 87 l 434 87 l 434 -87 z m 87 87 l 87 174 l 347 174 l 347 87 z m 0 174 l 0 347 l 87 347 l 87 174 z m 347 174 l 347 347 l 434 347 l 434 174 z m 87 347 l 87 434 l 347 434 l 347 347 z m 0 434 l 0 608 l 87 608 l 87 434 z m 87 608 l 87 694 l 434 694 l 434 608 z "},"¨":{"ha":347,"x_min":0,"x_max":0,"o":"m 0 608 l 0 694 l 87 694 l 87 608 z m 174 608 l 174 694 l 260 694 l 260 608 z "},"©":{"ha":868,"x_min":0,"x_max":0,"o":"m 174 -87 l 174 0 l 608 0 l 608 -87 z m 87 0 l 87 87 l 174 87 l 174 0 z m 608 0 l 608 87 l 694 87 l 694 0 z m 260 87 l 260 174 l 521 174 l 521 87 z m 174 174 l 174 434 l 260 434 l 260 174 z m 0 87 l 0 521 l 87 521 l 87 87 z m 260 434 l 260 521 l 521 521 l 521 434 z m 694 87 l 694 521 l 781 521 l 781 87 z m 87 521 l 87 608 l 174 608 l 174 521 z m 608 521 l 608 608 l 694 608 l 694 521 z m 174 608 l 174 694 l 608 694 l 608 608 z "},"ª":{"ha":434,"x_min":0,"x_max":0,"o":"m 0 347 l 0 434 l 87 434 l 87 347 z m 87 260 l 87 347 l 260 347 l 260 434 l 87 434 l 87 521 l 260 521 l 260 608 l 347 608 l 347 260 z m 0 608 l 0 694 l 260 694 l 260 608 z "},"«":{"ha":521,"x_min":0,"x_max":0,"o":"m 174 87 l 174 174 l 260 174 l 260 87 z m 347 87 l 347 174 l 434 174 l 434 87 z m 87 174 l 87 260 l 174 260 l 174 174 z m 260 174 l 260 260 l 347 260 l 347 174 z m 0 260 l 0 347 l 87 347 l 87 260 z m 174 260 l 174 347 l 260 347 l 260 260 z m 87 347 l 87 434 l 174 434 l 174 347 z m 260 347 l 260 434 l 347 434 l 347 347 z m 174 434 l 174 521 l 260 521 l 260 434 z m 347 434 l 347 521 l 434 521 l 434 434 z "},"¬":{"ha":608,"x_min":0,"x_max":0,"o":"m 434 0 l 434 260 l 0 260 l 0 347 l 521 347 l 521 0 z "},"­":{"ha":347,"x_min":0,"x_max":0,"o":"m 0 260 l 0 347 l 260 347 l 260 260 z "},"®":{"ha":868,"x_min":0,"x_max":0,"o":"m 174 -87 l 174 0 l 608 0 l 608 -87 z m 87 0 l 87 87 l 174 87 l 174 0 z m 608 0 l 608 87 l 694 87 l 694 0 z m 521 87 l 521 174 l 608 174 l 608 87 z m 521 347 l 521 434 l 608 434 l 608 347 z m 0 87 l 0 521 l 87 521 l 87 87 z m 260 87 l 260 521 l 521 521 l 521 434 l 347 434 l 347 347 l 521 347 l 521 174 l 434 174 l 434 260 l 347 260 l 347 87 z m 694 87 l 694 521 l 781 521 l 781 87 z m 87 521 l 87 608 l 174 608 l 174 521 z m 608 521 l 608 608 l 694 608 l 694 521 z m 174 608 l 174 694 l 608 694 l 608 608 z "},"¯":{"ha":608,"x_min":0,"x_max":0,"o":"m 0 781 l 0 868 l 521 868 l 521 781 z "},"°":{"ha":434,"x_min":0,"x_max":0,"o":"m 87 347 l 87 434 l 260 434 l 260 347 z m 0 434 l 0 608 l 87 608 l 87 434 z m 260 434 l 260 608 l 347 608 l 347 434 z m 87 608 l 87 694 l 260 694 l 260 608 z "},"±":{"ha":694,"x_min":0,"x_max":0,"o":"m 0 87 l 0 174 l 260 174 l 260 347 l 0 347 l 0 434 l 260 434 l 260 694 l 347 694 l 347 434 l 608 434 l 608 347 l 347 347 l 347 174 l 608 174 l 608 87 z "},"²":{"ha":347,"x_min":0,"x_max":0,"o":"m 0 260 l 0 347 l 87 347 l 87 434 l 174 434 l 174 347 l 260 347 l 260 260 z m 174 434 l 174 608 l 260 608 l 260 434 z m 0 608 l 0 694 l 174 694 l 174 608 z "},"³":{"ha":347,"x_min":0,"x_max":0,"o":"m 0 260 l 0 347 l 174 347 l 174 260 z m 174 347 l 174 434 l 260 434 l 260 347 z m 87 434 l 87 521 l 174 521 l 174 434 z m 174 521 l 174 608 l 260 608 l 260 521 z m 0 608 l 0 694 l 174 694 l 174 608 z "},"´":{"ha":260,"x_min":0,"x_max":0,"o":"m 0 608 l 0 694 l 87 694 l 87 608 z m 87 694 l 87 781 l 174 781 l 174 694 z "},"µ":{"ha":521,"x_min":0,"x_max":0,"o":"m 0 -174 l 0 521 l 87 521 l 87 87 l 260 87 l 260 0 l 87 0 l 87 -174 z m 347 0 l 347 87 l 260 87 l 260 174 l 347 174 l 347 521 l 434 521 l 434 0 z "},"¶":{"ha":521,"x_min":0,"x_max":0,"o":"m 174 -174 l 174 260 l 87 260 l 87 347 l 0 347 l 0 608 l 87 608 l 87 694 l 434 694 l 434 -174 l 347 -174 l 347 608 l 260 608 l 260 -174 z "},"·":{"ha":174,"x_min":0,"x_max":0,"o":"m 0 347 l 0 521 l 87 521 l 87 347 z "},"¸":{"ha":608,"x_min":0,"x_max":0,"o":"m 260 -87 l 260 0 l 434 0 l 434 -87 z m 434 0 l 434 87 l 521 87 l 521 0 z "},"¹":{"ha":347,"x_min":0,"x_max":0,"o":"m 0 260 l 0 347 l 87 347 l 87 521 l 0 521 l 0 608 l 87 608 l 87 694 l 174 694 l 174 347 l 260 347 l 260 260 z "},"º":{"ha":434,"x_min":0,"x_max":0,"o":"m 87 260 l 87 347 l 260 347 l 260 260 z m 0 347 l 0 608 l 87 608 l 87 347 z m 260 347 l 260 608 l 347 608 l 347 347 z m 87 608 l 87 694 l 260 694 l 260 608 z "},"»":{"ha":521,"x_min":0,"x_max":0,"o":"m 0 87 l 0 174 l 87 174 l 87 87 z m 174 87 l 174 174 l 260 174 l 260 87 z m 87 174 l 87 260 l 174 260 l 174 174 z m 260 174 l 260 260 l 347 260 l 347 174 z m 174 260 l 174 347 l 260 347 l 260 260 z m 347 260 l 347 347 l 434 347 l 434 260 z m 87 347 l 87 434 l 174 434 l 174 347 z m 260 347 l 260 434 l 347 434 l 347 347 z m 0 434 l 0 521 l 87 521 l 87 434 z m 174 434 l 174 521 l 260 521 l 260 434 z "},"¼":{"ha":868,"x_min":0,"x_max":0,"o":"m 174 0 l 174 87 l 260 87 l 260 0 z m 260 87 l 260 260 l 347 260 l 347 87 z m 347 260 l 347 434 l 434 434 l 434 260 z m 608 0 l 608 87 l 434 87 l 434 260 l 521 260 l 521 174 l 608 174 l 608 260 l 521 260 l 521 347 l 608 347 l 608 434 l 694 434 l 694 174 l 781 174 l 781 87 l 694 87 l 694 0 z m 434 434 l 434 608 l 521 608 l 521 434 z m 87 260 l 87 521 l 0 521 l 0 608 l 87 608 l 87 694 l 174 694 l 174 260 z m 521 608 l 521 694 l 608 694 l 608 608 z "},"½":{"ha":868,"x_min":0,"x_max":0,"o":"m 174 0 l 174 87 l 260 87 l 260 0 z m 521 0 l 521 87 l 608 87 l 608 174 l 694 174 l 694 87 l 781 87 l 781 0 z m 260 87 l 260 260 l 347 260 l 347 87 z m 694 174 l 694 347 l 781 347 l 781 174 z m 347 260 l 347 434 l 434 434 l 434 260 z m 521 347 l 521 434 l 694 434 l 694 347 z m 434 434 l 434 608 l 521 608 l 521 434 z m 87 260 l 87 521 l 0 521 l 0 608 l 87 608 l 87 694 l 174 694 l 174 260 z m 521 608 l 521 694 l 608 694 l 608 608 z "},"¾":{"ha":868,"x_min":0,"x_max":0,"o":"m 174 0 l 174 87 l 260 87 l 260 0 z m 260 87 l 260 260 l 347 260 l 347 87 z m 0 260 l 0 347 l 260 347 l 260 260 z m 347 260 l 347 347 l 260 347 l 260 434 l 434 434 l 434 260 z m 608 0 l 608 87 l 434 87 l 434 260 l 521 260 l 521 174 l 608 174 l 608 260 l 521 260 l 521 347 l 608 347 l 608 434 l 694 434 l 694 174 l 781 174 l 781 87 l 694 87 l 694 0 z m 87 434 l 87 521 l 260 521 l 260 434 z m 260 521 l 260 608 l 347 608 l 347 521 z m 434 434 l 434 608 l 521 608 l 521 434 z m 0 608 l 0 694 l 260 694 l 260 608 z m 521 608 l 521 694 l 608 694 l 608 608 z "},"¿":{"ha":434,"x_min":0,"x_max":0,"o":"m 87 0 l 87 87 l 347 87 l 347 0 z m 0 87 l 0 260 l 87 260 l 87 87 z m 87 260 l 87 347 l 174 347 l 174 260 z m 174 347 l 174 521 l 260 521 l 260 347 z m 174 608 l 174 694 l 260 694 l 260 608 z "},"À":{"ha":608,"x_min":0,"x_max":0,"o":"m 0 0 l 0 260 l 87 260 l 87 521 l 174 521 l 174 260 l 347 260 l 347 521 l 434 521 l 434 260 l 521 260 l 521 0 l 434 0 l 434 174 l 87 174 l 87 0 z m 174 521 l 174 694 l 347 694 l 347 521 z m 260 781 l 260 868 l 347 868 l 347 781 z m 174 868 l 174 955 l 260 955 l 260 868 z "},"Á":{"ha":608,"x_min":0,"x_max":0,"o":"m 0 0 l 0 260 l 87 260 l 87 521 l 174 521 l 174 260 l 347 260 l 347 521 l 434 521 l 434 260 l 521 260 l 521 0 l 434 0 l 434 174 l 87 174 l 87 0 z m 174 521 l 174 694 l 347 694 l 347 521 z m 174 781 l 174 868 l 260 868 l 260 781 z m 260 868 l 260 955 l 347 955 l 347 868 z "},"Â":{"ha":608,"x_min":0,"x_max":0,"o":"m 0 0 l 0 260 l 87 260 l 87 521 l 174 521 l 174 260 l 347 260 l 347 521 l 434 521 l 434 260 l 521 260 l 521 0 l 434 0 l 434 174 l 87 174 l 87 0 z m 174 521 l 174 694 l 347 694 l 347 521 z m 87 781 l 87 868 l 174 868 l 174 781 z m 347 781 l 347 868 l 434 868 l 434 781 z m 174 868 l 174 955 l 347 955 l 347 868 z "},"Ã":{"ha":608,"x_min":0,"x_max":0,"o":"m 0 0 l 0 260 l 87 260 l 87 521 l 174 521 l 174 260 l 347 260 l 347 521 l 434 521 l 434 260 l 521 260 l 521 0 l 434 0 l 434 174 l 87 174 l 87 0 z m 174 521 l 174 694 l 347 694 l 347 521 z m 87 781 l 87 955 l 260 955 l 260 868 l 174 868 l 174 781 z m 260 781 l 260 868 l 347 868 l 347 955 l 434 955 l 434 781 z "},"Ä":{"ha":608,"x_min":0,"x_max":0,"o":"m 0 0 l 0 260 l 87 260 l 87 521 l 174 521 l 174 260 l 347 260 l 347 521 l 434 521 l 434 260 l 521 260 l 521 0 l 434 0 l 434 174 l 87 174 l 87 0 z m 174 521 l 174 694 l 347 694 l 347 521 z m 87 781 l 87 868 l 174 868 l 174 781 z m 347 781 l 347 868 l 434 868 l 434 781 z "},"Å":{"ha":608,"x_min":0,"x_max":0,"o":"m 0 0 l 0 260 l 87 260 l 87 521 l 174 521 l 174 260 l 347 260 l 347 521 l 434 521 l 434 260 l 521 260 l 521 0 l 434 0 l 434 174 l 87 174 l 87 0 z m 174 521 l 174 694 l 347 694 l 347 521 z m 87 694 l 87 868 l 174 868 l 174 694 z m 347 694 l 347 868 l 434 868 l 434 694 z m 174 868 l 174 955 l 347 955 l 347 868 z "},"Æ":{"ha":868,"x_min":0,"x_max":0,"o":"m 0 0 l 0 260 l 87 260 l 87 0 z m 347 0 l 347 260 l 87 260 l 87 521 l 174 521 l 174 347 l 347 347 l 347 608 l 260 608 l 260 521 l 174 521 l 174 694 l 781 694 l 781 608 l 434 608 l 434 434 l 694 434 l 694 347 l 434 347 l 434 87 l 781 87 l 781 0 z "},"Ç":{"ha":608,"x_min":0,"x_max":0,"o":"m 174 -174 l 174 -87 l 347 -87 l 347 -174 z m 347 -87 l 347 0 l 174 0 l 174 87 l 521 87 l 521 0 l 434 0 l 434 -87 z m 87 87 l 87 174 l 174 174 l 174 87 z m 0 174 l 0 521 l 87 521 l 87 174 z m 87 521 l 87 608 l 174 608 l 174 521 z m 174 608 l 174 694 l 521 694 l 521 608 z "},"È":{"ha":521,"x_min":0,"x_max":0,"o":"m 0 0 l 0 694 l 434 694 l 434 608 l 87 608 l 87 434 l 347 434 l 347 347 l 87 347 l 87 87 l 434 87 l 434 0 z m 260 781 l 260 868 l 347 868 l 347 781 z m 174 868 l 174 955 l 260 955 l 260 868 z "},"É":{"ha":521,"x_min":0,"x_max":0,"o":"m 0 0 l 0 694 l 434 694 l 434 608 l 87 608 l 87 434 l 347 434 l 347 347 l 87 347 l 87 87 l 434 87 l 434 0 z m 174 781 l 174 868 l 260 868 l 260 781 z m 260 868 l 260 955 l 347 955 l 347 868 z "},"Ê":{"ha":521,"x_min":0,"x_max":0,"o":"m 0 0 l 0 694 l 434 694 l 434 608 l 87 608 l 87 434 l 347 434 l 347 347 l 87 347 l 87 87 l 434 87 l 434 0 z m 87 781 l 87 868 l 174 868 l 174 781 z m 347 781 l 347 868 l 434 868 l 434 781 z m 174 868 l 174 955 l 347 955 l 347 868 z "},"Ë":{"ha":521,"x_min":0,"x_max":0,"o":"m 0 0 l 0 694 l 434 694 l 434 608 l 87 608 l 87 434 l 347 434 l 347 347 l 87 347 l 87 87 l 434 87 l 434 0 z m 87 781 l 87 868 l 174 868 l 174 781 z m 260 781 l 260 868 l 347 868 l 347 781 z "},"Ì":{"ha":347,"x_min":0,"x_max":0,"o":"m 0 0 l 0 87 l 87 87 l 87 608 l 0 608 l 0 694 l 260 694 l 260 608 l 174 608 l 174 87 l 260 87 l 260 0 z m 87 781 l 87 868 l 174 868 l 174 781 z m 0 868 l 0 955 l 87 955 l 87 868 z "},"Í":{"ha":347,"x_min":0,"x_max":0,"o":"m 0 0 l 0 87 l 87 87 l 87 608 l 0 608 l 0 694 l 260 694 l 260 608 l 174 608 l 174 87 l 260 87 l 260 0 z m 87 781 l 87 868 l 174 868 l 174 781 z m 174 868 l 174 955 l 260 955 l 260 868 z "},"Î":{"ha":434,"x_min":0,"x_max":0,"o":"m 0 0 l 0 87 l 87 87 l 87 608 l 0 608 l 0 694 l 260 694 l 260 608 l 174 608 l 174 87 l 260 87 l 260 0 z m 0 781 l 0 868 l 87 868 l 87 781 z m 260 781 l 260 868 l 347 868 l 347 781 z m 87 868 l 87 955 l 260 955 l 260 868 z "},"Ï":{"ha":347,"x_min":0,"x_max":0,"o":"m 0 0 l 0 87 l 87 87 l 87 608 l 0 608 l 0 694 l 260 694 l 260 608 l 174 608 l 174 87 l 260 87 l 260 0 z m 0 781 l 0 868 l 87 868 l 87 781 z m 174 781 l 174 868 l 260 868 l 260 781 z "},"Ð":{"ha":694,"x_min":0,"x_max":0,"o":"m 434 87 l 434 174 l 521 174 l 521 87 z m 521 174 l 521 521 l 608 521 l 608 174 z m 434 521 l 434 608 l 521 608 l 521 521 z m 87 0 l 87 347 l 0 347 l 0 434 l 87 434 l 87 694 l 434 694 l 434 608 l 174 608 l 174 434 l 347 434 l 347 347 l 174 347 l 174 87 l 434 87 l 434 0 z "},"Ñ":{"ha":608,"x_min":0,"x_max":0,"o":"m 260 174 l 260 347 l 347 347 l 347 174 z m 174 347 l 174 521 l 260 521 l 260 347 z m 0 0 l 0 694 l 174 694 l 174 521 l 87 521 l 87 0 z m 347 0 l 347 174 l 434 174 l 434 694 l 521 694 l 521 0 z m 87 781 l 87 955 l 260 955 l 260 868 l 174 868 l 174 781 z m 260 781 l 260 868 l 347 868 l 347 955 l 434 955 l 434 781 z "},"Ò":{"ha":694,"x_min":0,"x_max":0,"o":"m 174 0 l 174 87 l 434 87 l 434 0 z m 87 87 l 87 174 l 174 174 l 174 87 z m 434 87 l 434 174 l 521 174 l 521 87 z m 0 174 l 0 521 l 87 521 l 87 174 z m 521 174 l 521 521 l 608 521 l 608 174 z m 87 521 l 87 608 l 174 608 l 174 521 z m 434 521 l 434 608 l 521 608 l 521 521 z m 174 608 l 174 694 l 434 694 l 434 608 z m 260 781 l 260 868 l 347 868 l 347 781 z m 174 868 l 174 955 l 260 955 l 260 868 z "},"Ó":{"ha":694,"x_min":0,"x_max":0,"o":"m 174 0 l 174 87 l 434 87 l 434 0 z m 87 87 l 87 174 l 174 174 l 174 87 z m 434 87 l 434 174 l 521 174 l 521 87 z m 0 174 l 0 521 l 87 521 l 87 174 z m 521 174 l 521 521 l 608 521 l 608 174 z m 87 521 l 87 608 l 174 608 l 174 521 z m 434 521 l 434 608 l 521 608 l 521 521 z m 174 608 l 174 694 l 434 694 l 434 608 z m 260 781 l 260 868 l 347 868 l 347 781 z m 347 868 l 347 955 l 434 955 l 434 868 z "},"Ô":{"ha":694,"x_min":0,"x_max":0,"o":"m 174 0 l 174 87 l 434 87 l 434 0 z m 87 87 l 87 174 l 174 174 l 174 87 z m 434 87 l 434 174 l 521 174 l 521 87 z m 0 174 l 0 521 l 87 521 l 87 174 z m 521 174 l 521 521 l 608 521 l 608 174 z m 87 521 l 87 608 l 174 608 l 174 521 z m 434 521 l 434 608 l 521 608 l 521 521 z m 174 608 l 174 694 l 434 694 l 434 608 z m 174 781 l 174 868 l 260 868 l 260 781 z m 434 781 l 434 868 l 521 868 l 521 781 z m 260 868 l 260 955 l 434 955 l 434 868 z "},"Õ":{"ha":694,"x_min":0,"x_max":0,"o":"m 174 0 l 174 87 l 434 87 l 434 0 z m 87 87 l 87 174 l 174 174 l 174 87 z m 434 87 l 434 174 l 521 174 l 521 87 z m 0 174 l 0 521 l 87 521 l 87 174 z m 521 174 l 521 521 l 608 521 l 608 174 z m 87 521 l 87 608 l 174 608 l 174 521 z m 434 521 l 434 608 l 521 608 l 521 521 z m 174 608 l 174 694 l 434 694 l 434 608 z m 174 781 l 174 955 l 347 955 l 347 868 l 260 868 l 260 781 z m 347 781 l 347 868 l 434 868 l 434 955 l 521 955 l 521 781 z "},"Ö":{"ha":694,"x_min":0,"x_max":0,"o":"m 174 0 l 174 87 l 434 87 l 434 0 z m 87 87 l 87 174 l 174 174 l 174 87 z m 434 87 l 434 174 l 521 174 l 521 87 z m 0 174 l 0 521 l 87 521 l 87 174 z m 521 174 l 521 521 l 608 521 l 608 174 z m 87 521 l 87 608 l 174 608 l 174 521 z m 434 521 l 434 608 l 521 608 l 521 521 z m 174 608 l 174 694 l 434 694 l 434 608 z m 174 781 l 174 868 l 260 868 l 260 781 z m 347 781 l 347 868 l 434 868 l 434 781 z "},"×":{"ha":608,"x_min":0,"x_max":0,"o":"m 87 87 l 87 174 l 174 174 l 174 87 z m 434 87 l 434 174 l 521 174 l 521 87 z m 174 174 l 174 260 l 260 260 l 260 174 z m 347 174 l 347 260 l 434 260 l 434 174 z m 260 260 l 260 347 l 347 347 l 347 260 z m 174 347 l 174 434 l 260 434 l 260 347 z m 347 347 l 347 434 l 434 434 l 434 347 z m 87 434 l 87 521 l 174 521 l 174 434 z m 434 434 l 434 521 l 521 521 l 521 434 z "},"Ø":{"ha":694,"x_min":0,"x_max":0,"o":"m 0 0 l 0 87 l 87 87 l 87 0 z m 174 0 l 174 87 l 434 87 l 434 0 z m 87 87 l 87 174 l 174 174 l 174 87 z m 434 87 l 434 174 l 521 174 l 521 87 z m 174 174 l 174 260 l 260 260 l 260 174 z m 260 260 l 260 434 l 347 434 l 347 260 z m 0 174 l 0 521 l 87 521 l 87 174 z m 347 434 l 347 521 l 434 521 l 434 434 z m 521 174 l 521 521 l 608 521 l 608 174 z m 87 521 l 87 608 l 174 608 l 174 521 z m 434 521 l 434 608 l 521 608 l 521 521 z m 174 608 l 174 694 l 434 694 l 434 608 z m 521 608 l 521 694 l 608 694 l 608 608 z "},"Ù":{"ha":608,"x_min":0,"x_max":0,"o":"m 87 0 l 87 87 l 434 87 l 434 0 z m 0 87 l 0 694 l 87 694 l 87 87 z m 434 87 l 434 694 l 521 694 l 521 87 z m 260 781 l 260 868 l 347 868 l 347 781 z m 174 868 l 174 955 l 260 955 l 260 868 z "},"Ú":{"ha":608,"x_min":0,"x_max":0,"o":"m 87 0 l 87 87 l 434 87 l 434 0 z m 0 87 l 0 694 l 87 694 l 87 87 z m 434 87 l 434 694 l 521 694 l 521 87 z m 174 781 l 174 868 l 260 868 l 260 781 z m 260 868 l 260 955 l 347 955 l 347 868 z "},"Û":{"ha":608,"x_min":0,"x_max":0,"o":"m 87 0 l 87 87 l 434 87 l 434 0 z m 0 87 l 0 694 l 87 694 l 87 87 z m 434 87 l 434 694 l 521 694 l 521 87 z m 87 781 l 87 868 l 174 868 l 174 781 z m 347 781 l 347 868 l 434 868 l 434 781 z m 174 868 l 174 955 l 347 955 l 347 868 z "},"Ü":{"ha":608,"x_min":0,"x_max":0,"o":"m 87 0 l 87 87 l 434 87 l 434 0 z m 0 87 l 0 694 l 87 694 l 87 87 z m 434 87 l 434 694 l 521 694 l 521 87 z m 87 781 l 87 868 l 174 868 l 174 781 z m 347 781 l 347 868 l 434 868 l 434 781 z "},"Ý":{"ha":521,"x_min":0,"x_max":0,"o":"m 174 0 l 174 347 l 260 347 l 260 0 z m 87 347 l 87 521 l 174 521 l 174 347 z m 260 347 l 260 521 l 347 521 l 347 347 z m 0 521 l 0 694 l 87 694 l 87 521 z m 347 521 l 347 694 l 434 694 l 434 521 z m 174 781 l 174 868 l 260 868 l 260 781 z m 260 868 l 260 955 l 347 955 l 347 868 z "},"Þ":{"ha":521,"x_min":0,"x_max":0,"o":"m 347 260 l 347 434 l 434 434 l 434 260 z m 0 0 l 0 694 l 87 694 l 87 521 l 347 521 l 347 434 l 87 434 l 87 260 l 347 260 l 347 174 l 87 174 l 87 0 z "},"ß":{"ha":521,"x_min":0,"x_max":0,"o":"m 174 0 l 174 87 l 347 87 l 347 0 z m 347 87 l 347 347 l 434 347 l 434 87 z m 174 347 l 174 434 l 347 434 l 347 347 z m 0 0 l 0 608 l 87 608 l 87 0 z m 347 434 l 347 608 l 434 608 l 434 434 z m 87 608 l 87 694 l 347 694 l 347 608 z "},"à":{"ha":521,"x_min":0,"x_max":0,"o":"m 0 87 l 0 260 l 87 260 l 87 87 z m 87 0 l 87 87 l 347 87 l 347 260 l 87 260 l 87 347 l 347 347 l 347 434 l 434 434 l 434 0 z m 87 434 l 87 521 l 347 521 l 347 434 z m 260 608 l 260 694 l 347 694 l 347 608 z m 174 694 l 174 781 l 260 781 l 260 694 z "},"á":{"ha":521,"x_min":0,"x_max":0,"o":"m 0 87 l 0 260 l 87 260 l 87 87 z m 87 0 l 87 87 l 347 87 l 347 260 l 87 260 l 87 347 l 347 347 l 347 434 l 434 434 l 434 0 z m 87 434 l 87 521 l 347 521 l 347 434 z m 174 608 l 174 694 l 260 694 l 260 608 z m 260 694 l 260 781 l 347 781 l 347 694 z "},"â":{"ha":521,"x_min":0,"x_max":0,"o":"m 0 87 l 0 260 l 87 260 l 87 87 z m 87 0 l 87 87 l 347 87 l 347 260 l 87 260 l 87 347 l 347 347 l 347 434 l 434 434 l 434 0 z m 87 434 l 87 521 l 347 521 l 347 434 z m 87 608 l 87 694 l 174 694 l 174 608 z m 347 608 l 347 694 l 434 694 l 434 608 z m 174 694 l 174 781 l 347 781 l 347 694 z "},"ã":{"ha":521,"x_min":0,"x_max":0,"o":"m 0 87 l 0 260 l 87 260 l 87 87 z m 87 0 l 87 87 l 347 87 l 347 260 l 87 260 l 87 347 l 347 347 l 347 434 l 434 434 l 434 0 z m 87 434 l 87 521 l 347 521 l 347 434 z m 87 608 l 87 781 l 260 781 l 260 694 l 174 694 l 174 608 z m 260 608 l 260 694 l 347 694 l 347 781 l 434 781 l 434 608 z "},"ä":{"ha":521,"x_min":0,"x_max":0,"o":"m 0 87 l 0 260 l 87 260 l 87 87 z m 87 0 l 87 87 l 347 87 l 347 260 l 87 260 l 87 347 l 347 347 l 347 434 l 434 434 l 434 0 z m 87 434 l 87 521 l 347 521 l 347 434 z m 87 608 l 87 694 l 174 694 l 174 608 z m 260 608 l 260 694 l 347 694 l 347 608 z "},"å":{"ha":521,"x_min":0,"x_max":0,"o":"m 0 87 l 0 260 l 87 260 l 87 87 z m 87 0 l 87 87 l 347 87 l 347 260 l 87 260 l 87 347 l 347 347 l 347 434 l 434 434 l 434 0 z m 87 434 l 87 521 l 174 521 l 174 608 l 347 608 l 347 434 z m 87 608 l 87 781 l 174 781 l 174 608 z m 347 608 l 347 781 l 434 781 l 434 608 z m 174 781 l 174 868 l 347 868 l 347 781 z "},"æ":{"ha":868,"x_min":0,"x_max":0,"o":"m 87 0 l 87 87 l 347 87 l 347 0 z m 521 0 l 521 87 l 694 87 l 694 0 z m 694 87 l 694 174 l 781 174 l 781 87 z m 0 87 l 0 260 l 87 260 l 87 87 z m 347 87 l 347 260 l 87 260 l 87 347 l 347 347 l 347 434 l 434 434 l 434 347 l 694 347 l 694 434 l 781 434 l 781 260 l 434 260 l 434 174 l 521 174 l 521 87 z m 87 434 l 87 521 l 347 521 l 347 434 z m 434 434 l 434 521 l 694 521 l 694 434 z "},"ç":{"ha":434,"x_min":0,"x_max":0,"o":"m 0 -174 l 0 -87 l 174 -87 l 174 -174 z m 174 -87 l 174 0 l 87 0 l 87 87 l 347 87 l 347 0 l 260 0 l 260 -87 z m 0 87 l 0 434 l 87 434 l 87 87 z m 87 434 l 87 521 l 347 521 l 347 434 z "},"è":{"ha":521,"x_min":0,"x_max":0,"o":"m 87 0 l 87 87 l 347 87 l 347 0 z m 347 87 l 347 174 l 434 174 l 434 87 z m 0 87 l 0 434 l 87 434 l 87 347 l 347 347 l 347 434 l 434 434 l 434 260 l 87 260 l 87 87 z m 87 434 l 87 521 l 347 521 l 347 434 z m 174 608 l 174 694 l 260 694 l 260 608 z m 87 694 l 87 781 l 174 781 l 174 694 z "},"é":{"ha":521,"x_min":0,"x_max":0,"o":"m 87 0 l 87 87 l 347 87 l 347 0 z m 347 87 l 347 174 l 434 174 l 434 87 z m 0 87 l 0 434 l 87 434 l 87 347 l 347 347 l 347 434 l 434 434 l 434 260 l 87 260 l 87 87 z m 87 434 l 87 521 l 347 521 l 347 434 z m 174 608 l 174 694 l 260 694 l 260 608 z m 260 694 l 260 781 l 347 781 l 347 694 z "},"ê":{"ha":521,"x_min":0,"x_max":0,"o":"m 87 0 l 87 87 l 347 87 l 347 0 z m 347 87 l 347 174 l 434 174 l 434 87 z m 0 87 l 0 434 l 87 434 l 87 347 l 347 347 l 347 434 l 434 434 l 434 260 l 87 260 l 87 87 z m 87 434 l 87 521 l 347 521 l 347 434 z m 87 608 l 87 694 l 174 694 l 174 608 z m 347 608 l 347 694 l 434 694 l 434 608 z m 174 694 l 174 781 l 347 781 l 347 694 z "},"ë":{"ha":521,"x_min":0,"x_max":0,"o":"m 87 0 l 87 87 l 347 87 l 347 0 z m 347 87 l 347 174 l 434 174 l 434 87 z m 0 87 l 0 434 l 87 434 l 87 347 l 347 347 l 347 434 l 434 434 l 434 260 l 87 260 l 87 87 z m 87 434 l 87 521 l 347 521 l 347 434 z m 87 608 l 87 694 l 174 694 l 174 608 z m 260 608 l 260 694 l 347 694 l 347 608 z "},"ì":{"ha":260,"x_min":0,"x_max":0,"o":"m 87 0 l 87 521 l 174 521 l 174 0 z m 87 608 l 87 694 l 174 694 l 174 608 z m 0 694 l 0 781 l 87 781 l 87 694 z "},"í":{"ha":260,"x_min":0,"x_max":0,"o":"m 0 0 l 0 521 l 87 521 l 87 0 z m 0 608 l 0 694 l 87 694 l 87 608 z m 87 694 l 87 781 l 174 781 l 174 694 z "},"î":{"ha":347,"x_min":0,"x_max":0,"o":"m 87 0 l 87 521 l 174 521 l 174 0 z m 0 608 l 0 694 l 87 694 l 87 608 z m 174 608 l 174 694 l 260 694 l 260 608 z m 87 694 l 87 781 l 174 781 l 174 694 z "},"ï":{"ha":347,"x_min":0,"x_max":0,"o":"m 87 0 l 87 521 l 174 521 l 174 0 z m 0 608 l 0 694 l 87 694 l 87 608 z m 174 608 l 174 694 l 260 694 l 260 608 z "},"ð":{"ha":521,"x_min":0,"x_max":0,"o":"m 87 0 l 87 87 l 347 87 l 347 0 z m 0 87 l 0 347 l 87 347 l 87 87 z m 347 87 l 347 347 l 87 347 l 87 434 l 347 434 l 347 521 l 434 521 l 434 87 z m 87 521 l 87 608 l 174 608 l 174 521 z m 260 521 l 260 608 l 174 608 l 174 694 l 347 694 l 347 521 z "},"ñ":{"ha":521,"x_min":0,"x_max":0,"o":"m 347 0 l 347 434 l 434 434 l 434 0 z m 0 0 l 0 521 l 347 521 l 347 434 l 87 434 l 87 0 z m 87 608 l 87 781 l 260 781 l 260 694 l 174 694 l 174 608 z m 260 608 l 260 694 l 347 694 l 347 781 l 434 781 l 434 608 z "},"ò":{"ha":521,"x_min":0,"x_max":0,"o":"m 87 0 l 87 87 l 347 87 l 347 0 z m 0 87 l 0 434 l 87 434 l 87 87 z m 347 87 l 347 434 l 434 434 l 434 87 z m 87 434 l 87 521 l 347 521 l 347 434 z m 174 608 l 174 694 l 260 694 l 260 608 z m 87 694 l 87 781 l 174 781 l 174 694 z "},"ó":{"ha":521,"x_min":0,"x_max":0,"o":"m 87 0 l 87 87 l 347 87 l 347 0 z m 0 87 l 0 434 l 87 434 l 87 87 z m 347 87 l 347 434 l 434 434 l 434 87 z m 87 434 l 87 521 l 347 521 l 347 434 z m 174 608 l 174 694 l 260 694 l 260 608 z m 260 694 l 260 781 l 347 781 l 347 694 z "},"ô":{"ha":521,"x_min":0,"x_max":0,"o":"m 87 0 l 87 87 l 347 87 l 347 0 z m 0 87 l 0 434 l 87 434 l 87 87 z m 347 87 l 347 434 l 434 434 l 434 87 z m 87 434 l 87 521 l 347 521 l 347 434 z m 87 608 l 87 694 l 174 694 l 174 608 z m 347 608 l 347 694 l 434 694 l 434 608 z m 174 694 l 174 781 l 347 781 l 347 694 z "},"õ":{"ha":521,"x_min":0,"x_max":0,"o":"m 87 0 l 87 87 l 347 87 l 347 0 z m 0 87 l 0 434 l 87 434 l 87 87 z m 347 87 l 347 434 l 434 434 l 434 87 z m 87 434 l 87 521 l 347 521 l 347 434 z m 87 608 l 87 781 l 260 781 l 260 694 l 174 694 l 174 608 z m 260 608 l 260 694 l 347 694 l 347 781 l 434 781 l 434 608 z "},"ö":{"ha":521,"x_min":0,"x_max":0,"o":"m 87 0 l 87 87 l 347 87 l 347 0 z m 0 87 l 0 434 l 87 434 l 87 87 z m 347 87 l 347 434 l 434 434 l 434 87 z m 87 434 l 87 521 l 347 521 l 347 434 z m 87 608 l 87 694 l 174 694 l 174 608 z m 260 608 l 260 694 l 347 694 l 347 608 z "},"÷":{"ha":694,"x_min":0,"x_max":0,"o":"m 260 0 l 260 174 l 347 174 l 347 0 z m 0 260 l 0 347 l 608 347 l 608 260 z m 260 434 l 260 608 l 347 608 l 347 434 z "},"ø":{"ha":521,"x_min":0,"x_max":0,"o":"m 0 -87 l 0 0 l 87 0 l 87 -87 z m 174 174 l 174 347 l 260 347 l 260 174 z m 87 0 l 87 87 l 0 87 l 0 434 l 87 434 l 87 174 l 174 174 l 174 87 l 347 87 l 347 0 z m 347 87 l 347 347 l 260 347 l 260 434 l 87 434 l 87 521 l 347 521 l 347 434 l 434 434 l 434 87 z m 347 521 l 347 608 l 434 608 l 434 521 z "},"ù":{"ha":521,"x_min":0,"x_max":0,"o":"m 0 87 l 0 521 l 87 521 l 87 87 z m 87 0 l 87 87 l 347 87 l 347 521 l 434 521 l 434 0 z m 174 608 l 174 694 l 260 694 l 260 608 z m 87 694 l 87 781 l 174 781 l 174 694 z "},"ú":{"ha":521,"x_min":0,"x_max":0,"o":"m 0 87 l 0 521 l 87 521 l 87 87 z m 87 0 l 87 87 l 347 87 l 347 521 l 434 521 l 434 0 z m 174 608 l 174 694 l 260 694 l 260 608 z m 260 694 l 260 781 l 347 781 l 347 694 z "},"û":{"ha":521,"x_min":0,"x_max":0,"o":"m 0 87 l 0 521 l 87 521 l 87 87 z m 87 0 l 87 87 l 347 87 l 347 521 l 434 521 l 434 0 z m 87 608 l 87 694 l 174 694 l 174 608 z m 347 608 l 347 694 l 434 694 l 434 608 z m 174 694 l 174 781 l 347 781 l 347 694 z "},"ü":{"ha":521,"x_min":0,"x_max":0,"o":"m 0 87 l 0 521 l 87 521 l 87 87 z m 87 0 l 87 87 l 347 87 l 347 521 l 434 521 l 434 0 z m 87 608 l 87 694 l 174 694 l 174 608 z m 260 608 l 260 694 l 347 694 l 347 608 z "},"ý":{"ha":521,"x_min":0,"x_max":0,"o":"m 87 -174 l 87 0 l 174 0 l 174 -174 z m 174 0 l 174 174 l 260 174 l 260 0 z m 87 174 l 87 347 l 174 347 l 174 174 z m 260 174 l 260 347 l 347 347 l 347 174 z m 0 347 l 0 521 l 87 521 l 87 347 z m 347 347 l 347 521 l 434 521 l 434 347 z m 174 608 l 174 694 l 260 694 l 260 608 z m 260 694 l 260 781 l 347 781 l 347 694 z "},"þ":{"ha":521,"x_min":0,"x_max":0,"o":"m 347 87 l 347 434 l 434 434 l 434 87 z m 0 -174 l 0 781 l 87 781 l 87 521 l 347 521 l 347 434 l 87 434 l 87 87 l 347 87 l 347 0 l 87 0 l 87 -174 z "},"ÿ":{"ha":521,"x_min":0,"x_max":0,"o":"m 87 -174 l 87 0 l 174 0 l 174 -174 z m 174 0 l 174 174 l 260 174 l 260 0 z m 87 174 l 87 347 l 174 347 l 174 174 z m 260 174 l 260 347 l 347 347 l 347 174 z m 0 347 l 0 521 l 87 521 l 87 347 z m 347 347 l 347 521 l 434 521 l 434 347 z m 87 608 l 87 694 l 174 694 l 174 608 z m 260 608 l 260 694 l 347 694 l 347 608 z "},"Ā":{"ha":608,"x_min":0,"x_max":0,"o":"m 0 0 l 0 260 l 87 260 l 87 521 l 174 521 l 174 260 l 347 260 l 347 521 l 434 521 l 434 260 l 521 260 l 521 0 l 434 0 l 434 174 l 87 174 l 87 0 z m 174 521 l 174 694 l 347 694 l 347 521 z m 87 781 l 87 868 l 434 868 l 434 781 z "},"ā":{"ha":521,"x_min":0,"x_max":0,"o":"m 0 87 l 0 260 l 87 260 l 87 87 z m 87 0 l 87 87 l 347 87 l 347 260 l 87 260 l 87 347 l 347 347 l 347 434 l 434 434 l 434 0 z m 87 434 l 87 521 l 347 521 l 347 434 z m 87 608 l 87 694 l 434 694 l 434 608 z "},"Ă":{"ha":608,"x_min":0,"x_max":0,"o":"m 0 0 l 0 260 l 87 260 l 87 521 l 174 521 l 174 260 l 347 260 l 347 521 l 434 521 l 434 260 l 521 260 l 521 0 l 434 0 l 434 174 l 87 174 l 87 0 z m 174 521 l 174 694 l 347 694 l 347 521 z m 174 781 l 174 868 l 347 868 l 347 781 z m 87 868 l 87 955 l 174 955 l 174 868 z m 347 868 l 347 955 l 434 955 l 434 868 z "},"ă":{"ha":521,"x_min":0,"x_max":0,"o":"m 0 87 l 0 260 l 87 260 l 87 87 z m 87 0 l 87 87 l 347 87 l 347 260 l 87 260 l 87 347 l 347 347 l 347 434 l 434 434 l 434 0 z m 87 434 l 87 521 l 347 521 l 347 434 z m 174 608 l 174 694 l 347 694 l 347 608 z m 87 694 l 87 781 l 174 781 l 174 694 z m 347 694 l 347 781 l 434 781 l 434 694 z "},"Ą":{"ha":694,"x_min":0,"x_max":0,"o":"m 434 -174 l 434 174 l 87 174 l 87 0 l 0 0 l 0 260 l 87 260 l 87 521 l 174 521 l 174 260 l 347 260 l 347 521 l 434 521 l 434 260 l 521 260 l 521 -87 l 608 -87 l 608 -174 z m 174 521 l 174 694 l 347 694 l 347 521 z "},"ą":{"ha":608,"x_min":0,"x_max":0,"o":"m 0 87 l 0 260 l 87 260 l 87 87 z m 347 -174 l 347 0 l 87 0 l 87 87 l 347 87 l 347 260 l 87 260 l 87 347 l 347 347 l 347 434 l 434 434 l 434 -87 l 521 -87 l 521 -174 z m 87 434 l 87 521 l 347 521 l 347 434 z "},"Ć":{"ha":608,"x_min":0,"x_max":0,"o":"m 174 0 l 174 87 l 521 87 l 521 0 z m 87 87 l 87 174 l 174 174 l 174 87 z m 0 174 l 0 521 l 87 521 l 87 174 z m 87 521 l 87 608 l 174 608 l 174 521 z m 174 608 l 174 694 l 521 694 l 521 608 z m 260 781 l 260 868 l 347 868 l 347 781 z m 347 868 l 347 955 l 434 955 l 434 868 z "},"ć":{"ha":434,"x_min":0,"x_max":0,"o":"m 87 0 l 87 87 l 347 87 l 347 0 z m 0 87 l 0 434 l 87 434 l 87 87 z m 87 434 l 87 521 l 347 521 l 347 434 z m 174 608 l 174 694 l 260 694 l 260 608 z m 260 694 l 260 781 l 347 781 l 347 694 z "},"Ĉ":{"ha":608,"x_min":0,"x_max":0,"o":"m 174 0 l 174 87 l 521 87 l 521 0 z m 87 87 l 87 174 l 174 174 l 174 87 z m 0 174 l 0 521 l 87 521 l 87 174 z m 87 521 l 87 608 l 174 608 l 174 521 z m 174 608 l 174 694 l 521 694 l 521 608 z m 174 781 l 174 868 l 260 868 l 260 781 z m 434 781 l 434 868 l 521 868 l 521 781 z m 260 868 l 260 955 l 434 955 l 434 868 z "},"ĉ":{"ha":434,"x_min":0,"x_max":0,"o":"m 87 0 l 87 87 l 347 87 l 347 0 z m 0 87 l 0 434 l 87 434 l 87 87 z m 87 434 l 87 521 l 347 521 l 347 434 z m 0 608 l 0 694 l 87 694 l 87 608 z m 260 608 l 260 694 l 347 694 l 347 608 z m 87 694 l 87 781 l 260 781 l 260 694 z "},"Ċ":{"ha":608,"x_min":0,"x_max":0,"o":"m 174 0 l 174 87 l 521 87 l 521 0 z m 87 87 l 87 174 l 174 174 l 174 87 z m 0 174 l 0 521 l 87 521 l 87 174 z m 87 521 l 87 608 l 174 608 l 174 521 z m 174 608 l 174 694 l 521 694 l 521 608 z m 260 781 l 260 868 l 347 868 l 347 781 z "},"ċ":{"ha":434,"x_min":0,"x_max":0,"o":"m 87 0 l 87 87 l 347 87 l 347 0 z m 0 87 l 0 434 l 87 434 l 87 87 z m 87 434 l 87 521 l 347 521 l 347 434 z m 174 608 l 174 694 l 260 694 l 260 608 z "},"Č":{"ha":608,"x_min":0,"x_max":0,"o":"m 174 0 l 174 87 l 521 87 l 521 0 z m 87 87 l 87 174 l 174 174 l 174 87 z m 0 174 l 0 521 l 87 521 l 87 174 z m 87 521 l 87 608 l 174 608 l 174 521 z m 174 608 l 174 694 l 521 694 l 521 608 z m 260 781 l 260 868 l 434 868 l 434 781 z m 174 868 l 174 955 l 260 955 l 260 868 z m 434 868 l 434 955 l 521 955 l 521 868 z "},"č":{"ha":521,"x_min":0,"x_max":0,"o":"m 87 0 l 87 87 l 347 87 l 347 0 z m 0 87 l 0 434 l 87 434 l 87 87 z m 87 434 l 87 521 l 347 521 l 347 434 z m 174 608 l 174 694 l 347 694 l 347 608 z m 87 694 l 87 781 l 174 781 l 174 694 z m 347 694 l 347 781 l 434 781 l 434 694 z "},"Ď":{"ha":608,"x_min":0,"x_max":0,"o":"m 347 87 l 347 174 l 434 174 l 434 87 z m 434 174 l 434 521 l 521 521 l 521 174 z m 347 521 l 347 608 l 434 608 l 434 521 z m 0 0 l 0 694 l 347 694 l 347 608 l 87 608 l 87 87 l 347 87 l 347 0 z m 174 781 l 174 868 l 347 868 l 347 781 z m 87 868 l 87 955 l 174 955 l 174 868 z m 347 868 l 347 955 l 434 955 l 434 868 z "},"ď":{"ha":781,"x_min":0,"x_max":0,"o":"m 0 87 l 0 434 l 87 434 l 87 87 z m 521 521 l 521 608 l 608 608 l 608 521 z m 87 0 l 87 87 l 347 87 l 347 434 l 87 434 l 87 521 l 347 521 l 347 781 l 434 781 l 434 0 z m 608 608 l 608 781 l 694 781 l 694 608 z "},"Đ":{"ha":694,"x_min":0,"x_max":0,"o":"m 434 87 l 434 174 l 521 174 l 521 87 z m 521 174 l 521 521 l 608 521 l 608 174 z m 434 521 l 434 608 l 521 608 l 521 521 z m 87 0 l 87 347 l 0 347 l 0 434 l 87 434 l 87 694 l 434 694 l 434 608 l 174 608 l 174 434 l 347 434 l 347 347 l 174 347 l 174 87 l 434 87 l 434 0 z "},"đ":{"ha":608,"x_min":0,"x_max":0,"o":"m 0 87 l 0 434 l 87 434 l 87 87 z m 87 0 l 87 87 l 347 87 l 347 434 l 87 434 l 87 521 l 347 521 l 347 608 l 174 608 l 174 694 l 347 694 l 347 781 l 434 781 l 434 694 l 521 694 l 521 608 l 434 608 l 434 0 z "},"Ē":{"ha":521,"x_min":0,"x_max":0,"o":"m 0 0 l 0 694 l 434 694 l 434 608 l 87 608 l 87 434 l 347 434 l 347 347 l 87 347 l 87 87 l 434 87 l 434 0 z m 87 781 l 87 868 l 434 868 l 434 781 z "},"ē":{"ha":521,"x_min":0,"x_max":0,"o":"m 87 0 l 87 87 l 347 87 l 347 0 z m 347 87 l 347 174 l 434 174 l 434 87 z m 0 87 l 0 434 l 87 434 l 87 347 l 347 347 l 347 434 l 434 434 l 434 260 l 87 260 l 87 87 z m 87 434 l 87 521 l 347 521 l 347 434 z m 87 608 l 87 694 l 434 694 l 434 608 z "},"Ĕ":{"ha":521,"x_min":0,"x_max":0,"o":"m 0 0 l 0 694 l 434 694 l 434 608 l 87 608 l 87 434 l 347 434 l 347 347 l 87 347 l 87 87 l 434 87 l 434 0 z m 174 781 l 174 868 l 347 868 l 347 781 z m 87 868 l 87 955 l 174 955 l 174 868 z m 347 868 l 347 955 l 434 955 l 434 868 z "},"ĕ":{"ha":521,"x_min":0,"x_max":0,"o":"m 87 0 l 87 87 l 347 87 l 347 0 z m 347 87 l 347 174 l 434 174 l 434 87 z m 0 87 l 0 434 l 87 434 l 87 347 l 347 347 l 347 434 l 434 434 l 434 260 l 87 260 l 87 87 z m 87 434 l 87 521 l 347 521 l 347 434 z m 174 608 l 174 694 l 347 694 l 347 608 z m 87 694 l 87 781 l 174 781 l 174 694 z m 347 694 l 347 781 l 434 781 l 434 694 z "},"Ė":{"ha":521,"x_min":0,"x_max":0,"o":"m 0 0 l 0 694 l 434 694 l 434 608 l 87 608 l 87 434 l 347 434 l 347 347 l 87 347 l 87 87 l 434 87 l 434 0 z m 174 781 l 174 868 l 260 868 l 260 781 z "},"ė":{"ha":521,"x_min":0,"x_max":0,"o":"m 87 0 l 87 87 l 347 87 l 347 0 z m 347 87 l 347 174 l 434 174 l 434 87 z m 0 87 l 0 434 l 87 434 l 87 347 l 347 347 l 347 434 l 434 434 l 434 260 l 87 260 l 87 87 z m 87 434 l 87 521 l 347 521 l 347 434 z m 174 608 l 174 694 l 260 694 l 260 608 z "},"Ę":{"ha":521,"x_min":0,"x_max":0,"o":"m 347 -174 l 347 -87 l 434 -87 l 434 -174 z m 260 -87 l 260 0 l 0 0 l 0 694 l 434 694 l 434 608 l 87 608 l 87 434 l 347 434 l 347 347 l 87 347 l 87 87 l 434 87 l 434 0 l 347 0 l 347 -87 z "},"ę":{"ha":521,"x_min":0,"x_max":0,"o":"m 260 -174 l 260 0 l 87 0 l 87 87 l 434 87 l 434 0 l 347 0 l 347 -87 l 434 -87 l 434 -174 z m 0 87 l 0 434 l 87 434 l 87 347 l 347 347 l 347 434 l 434 434 l 434 260 l 87 260 l 87 87 z m 87 434 l 87 521 l 347 521 l 347 434 z "},"Ě":{"ha":521,"x_min":0,"x_max":0,"o":"m 0 0 l 0 694 l 434 694 l 434 608 l 87 608 l 87 434 l 347 434 l 347 347 l 87 347 l 87 87 l 434 87 l 434 0 z m 174 781 l 174 868 l 347 868 l 347 781 z m 87 868 l 87 955 l 174 955 l 174 868 z m 347 868 l 347 955 l 434 955 l 434 868 z "},"ě":{"ha":521,"x_min":0,"x_max":0,"o":"m 87 0 l 87 87 l 347 87 l 347 0 z m 347 87 l 347 174 l 434 174 l 434 87 z m 0 87 l 0 434 l 87 434 l 87 347 l 347 347 l 347 434 l 434 434 l 434 260 l 87 260 l 87 87 z m 87 434 l 87 521 l 347 521 l 347 434 z m 174 608 l 174 694 l 347 694 l 347 608 z m 87 694 l 87 781 l 174 781 l 174 694 z m 347 694 l 347 781 l 434 781 l 434 694 z "},"Ĝ":{"ha":608,"x_min":0,"x_max":0,"o":"m 87 87 l 87 174 l 174 174 l 174 87 z m 174 0 l 174 87 l 434 87 l 434 260 l 260 260 l 260 347 l 521 347 l 521 0 z m 0 174 l 0 521 l 87 521 l 87 174 z m 87 521 l 87 608 l 174 608 l 174 521 z m 174 608 l 174 694 l 521 694 l 521 608 z m 87 781 l 87 868 l 174 868 l 174 781 z m 347 781 l 347 868 l 434 868 l 434 781 z m 174 868 l 174 955 l 347 955 l 347 868 z "},"ĝ":{"ha":521,"x_min":0,"x_max":0,"o":"m 87 -174 l 87 -87 l 347 -87 l 347 -174 z m 0 87 l 0 434 l 87 434 l 87 87 z m 347 -87 l 347 0 l 87 0 l 87 87 l 347 87 l 347 434 l 87 434 l 87 521 l 434 521 l 434 -87 z m 87 608 l 87 694 l 174 694 l 174 608 z m 347 608 l 347 694 l 434 694 l 434 608 z m 174 694 l 174 781 l 347 781 l 347 694 z "},"Ğ":{"ha":608,"x_min":0,"x_max":0,"o":"m 87 87 l 87 174 l 174 174 l 174 87 z m 174 0 l 174 87 l 434 87 l 434 260 l 260 260 l 260 347 l 521 347 l 521 0 z m 0 174 l 0 521 l 87 521 l 87 174 z m 87 521 l 87 608 l 174 608 l 174 521 z m 174 608 l 174 694 l 521 694 l 521 608 z m 174 781 l 174 868 l 347 868 l 347 781 z m 87 868 l 87 955 l 174 955 l 174 868 z m 347 868 l 347 955 l 434 955 l 434 868 z "},"ğ":{"ha":521,"x_min":0,"x_max":0,"o":"m 87 -174 l 87 -87 l 347 -87 l 347 -174 z m 0 87 l 0 434 l 87 434 l 87 87 z m 347 -87 l 347 0 l 87 0 l 87 87 l 347 87 l 347 434 l 87 434 l 87 521 l 434 521 l 434 -87 z m 174 608 l 174 694 l 347 694 l 347 608 z m 87 694 l 87 781 l 174 781 l 174 694 z m 347 694 l 347 781 l 434 781 l 434 694 z "},"Ġ":{"ha":608,"x_min":0,"x_max":0,"o":"m 87 87 l 87 174 l 174 174 l 174 87 z m 174 0 l 174 87 l 434 87 l 434 260 l 260 260 l 260 347 l 521 347 l 521 0 z m 0 174 l 0 521 l 87 521 l 87 174 z m 87 521 l 87 608 l 174 608 l 174 521 z m 174 608 l 174 694 l 521 694 l 521 608 z m 260 781 l 260 868 l 347 868 l 347 781 z "},"ġ":{"ha":521,"x_min":0,"x_max":0,"o":"m 87 -174 l 87 -87 l 347 -87 l 347 -174 z m 0 87 l 0 434 l 87 434 l 87 87 z m 347 -87 l 347 0 l 87 0 l 87 87 l 347 87 l 347 434 l 87 434 l 87 521 l 434 521 l 434 -87 z m 174 608 l 174 694 l 260 694 l 260 608 z "},"Ģ":{"ha":608,"x_min":0,"x_max":0,"o":"m 87 87 l 87 174 l 174 174 l 174 87 z m 87 -174 l 87 -87 l 260 -87 l 260 0 l 174 0 l 174 87 l 434 87 l 434 260 l 260 260 l 260 347 l 521 347 l 521 0 l 347 0 l 347 -174 z m 0 174 l 0 521 l 87 521 l 87 174 z m 87 521 l 87 608 l 174 608 l 174 521 z m 174 608 l 174 694 l 521 694 l 521 608 z "},"ģ":{"ha":521,"x_min":0,"x_max":0,"o":"m 87 -174 l 87 -87 l 347 -87 l 347 -174 z m 0 87 l 0 434 l 87 434 l 87 87 z m 347 -87 l 347 0 l 87 0 l 87 87 l 347 87 l 347 434 l 87 434 l 87 521 l 434 521 l 434 -87 z m 174 608 l 174 694 l 260 694 l 260 608 z m 260 694 l 260 781 l 347 781 l 347 694 z "},"Ĥ":{"ha":608,"x_min":0,"x_max":0,"o":"m 0 0 l 0 694 l 87 694 l 87 434 l 434 434 l 434 694 l 521 694 l 521 0 l 434 0 l 434 347 l 87 347 l 87 0 z m 87 781 l 87 868 l 174 868 l 174 781 z m 347 781 l 347 868 l 434 868 l 434 781 z m 174 868 l 174 955 l 347 955 l 347 868 z "},"ĥ":{"ha":521,"x_min":0,"x_max":0,"o":"m 347 0 l 347 347 l 434 347 l 434 0 z m 0 0 l 0 781 l 87 781 l 87 434 l 347 434 l 347 347 l 87 347 l 87 0 z m 87 781 l 87 868 l 174 868 l 174 781 z m 347 781 l 347 868 l 434 868 l 434 781 z m 174 868 l 174 955 l 347 955 l 347 868 z "},"Ħ":{"ha":781,"x_min":0,"x_max":0,"o":"m 521 434 l 521 521 l 174 521 l 174 434 z m 87 0 l 87 521 l 0 521 l 0 608 l 87 608 l 87 694 l 174 694 l 174 608 l 521 608 l 521 694 l 608 694 l 608 608 l 694 608 l 694 521 l 608 521 l 608 0 l 521 0 l 521 347 l 174 347 l 174 0 z "},"ħ":{"ha":608,"x_min":0,"x_max":0,"o":"m 434 0 l 434 347 l 521 347 l 521 0 z m 87 0 l 87 608 l 0 608 l 0 694 l 87 694 l 87 781 l 174 781 l 174 694 l 347 694 l 347 608 l 174 608 l 174 434 l 434 434 l 434 347 l 174 347 l 174 0 z "},"Ĩ":{"ha":347,"x_min":0,"x_max":0,"o":"m 0 0 l 0 87 l 87 87 l 87 608 l 0 608 l 0 694 l 260 694 l 260 608 l 174 608 l 174 87 l 260 87 l 260 0 z m 0 781 l 0 955 l 87 955 l 87 868 l 174 868 l 174 955 l 260 955 l 260 781 z "},"ĩ":{"ha":434,"x_min":0,"x_max":0,"o":"m 87 0 l 87 521 l 174 521 l 174 0 z m 0 608 l 0 781 l 174 781 l 174 694 l 87 694 l 87 608 z m 174 608 l 174 694 l 260 694 l 260 781 l 347 781 l 347 608 z "},"Ī":{"ha":347,"x_min":0,"x_max":0,"o":"m 0 0 l 0 87 l 87 87 l 87 608 l 0 608 l 0 694 l 260 694 l 260 608 l 174 608 l 174 87 l 260 87 l 260 0 z m 0 781 l 0 868 l 260 868 l 260 781 z "},"ī":{"ha":347,"x_min":0,"x_max":0,"o":"m 87 0 l 87 521 l 174 521 l 174 0 z m 0 608 l 0 694 l 260 694 l 260 608 z "},"Ĭ":{"ha":347,"x_min":0,"x_max":0,"o":"m 0 0 l 0 87 l 87 87 l 87 608 l 0 608 l 0 694 l 260 694 l 260 608 l 174 608 l 174 87 l 260 87 l 260 0 z m 0 781 l 0 955 l 87 955 l 87 868 l 174 868 l 174 955 l 260 955 l 260 781 z "},"ĭ":{"ha":347,"x_min":0,"x_max":0,"o":"m 87 0 l 87 521 l 174 521 l 174 0 z m 0 608 l 0 781 l 87 781 l 87 694 l 174 694 l 174 781 l 260 781 l 260 608 z "},"Į":{"ha":347,"x_min":0,"x_max":0,"o":"m 174 -174 l 174 -87 l 260 -87 l 260 -174 z m 87 -87 l 87 0 l 0 0 l 0 87 l 87 87 l 87 608 l 0 608 l 0 694 l 260 694 l 260 608 l 174 608 l 174 87 l 260 87 l 260 0 l 174 0 l 174 -87 z "},"į":{"ha":260,"x_min":0,"x_max":0,"o":"m 87 -174 l 87 -87 l 174 -87 l 174 -174 z m 0 -87 l 0 521 l 87 521 l 87 -87 z m 0 608 l 0 694 l 87 694 l 87 608 z "},"İ":{"ha":347,"x_min":0,"x_max":0,"o":"m 0 0 l 0 87 l 87 87 l 87 608 l 0 608 l 0 694 l 260 694 l 260 608 l 174 608 l 174 87 l 260 87 l 260 0 z m 87 781 l 87 868 l 174 868 l 174 781 z "},"ı":{"ha":174,"x_min":0,"x_max":0,"o":"m 0 0 l 0 521 l 87 521 l 87 0 z "},"Ĳ":{"ha":694,"x_min":0,"x_max":0,"o":"m 347 0 l 347 87 l 521 87 l 521 0 z m 0 0 l 0 87 l 87 87 l 87 608 l 0 608 l 0 694 l 260 694 l 260 608 l 174 608 l 174 87 l 260 87 l 260 0 z m 521 87 l 521 608 l 434 608 l 434 694 l 608 694 l 608 87 z "},"ĳ":{"ha":434,"x_min":0,"x_max":0,"o":"m 87 -174 l 87 -87 l 260 -87 l 260 -174 z m 0 0 l 0 521 l 87 521 l 87 0 z m 260 -87 l 260 434 l 174 434 l 174 521 l 347 521 l 347 -87 z m 0 608 l 0 694 l 87 694 l 87 608 z m 260 608 l 260 694 l 347 694 l 347 608 z "},"Ĵ":{"ha":521,"x_min":0,"x_max":0,"o":"m 0 0 l 0 87 l 260 87 l 260 0 z m 260 87 l 260 608 l 87 608 l 87 694 l 347 694 l 347 87 z m 87 781 l 87 868 l 174 868 l 174 781 z m 347 781 l 347 868 l 434 868 l 434 781 z m 174 868 l 174 955 l 347 955 l 347 868 z "},"ĵ":{"ha":347,"x_min":0,"x_max":0,"o":"m 0 -174 l 0 -87 l 87 -87 l 87 -174 z m 87 -87 l 87 434 l 0 434 l 0 521 l 174 521 l 174 -87 z m 0 608 l 0 694 l 87 694 l 87 608 z m 174 608 l 174 694 l 260 694 l 260 608 z m 87 694 l 87 781 l 174 781 l 174 694 z "},"Ķ":{"ha":521,"x_min":0,"x_max":0,"o":"m 87 -174 l 87 -87 l 260 -87 l 260 -174 z m 260 -87 l 260 0 l 347 0 l 347 -87 z m 347 0 l 347 87 l 434 87 l 434 0 z m 260 87 l 260 174 l 347 174 l 347 87 z m 174 174 l 174 260 l 260 260 l 260 174 z m 174 434 l 174 521 l 260 521 l 260 434 z m 260 521 l 260 608 l 347 608 l 347 521 z m 0 0 l 0 694 l 87 694 l 87 434 l 174 434 l 174 260 l 87 260 l 87 0 z m 347 608 l 347 694 l 434 694 l 434 608 z "},"ķ":{"ha":521,"x_min":0,"x_max":0,"o":"m 0 -174 l 0 -87 l 174 -87 l 174 -174 z m 174 -87 l 174 0 l 260 0 l 260 -87 z m 347 0 l 347 87 l 434 87 l 434 0 z m 260 87 l 260 174 l 347 174 l 347 87 z m 174 174 l 174 260 l 260 260 l 260 174 z m 174 347 l 174 434 l 260 434 l 260 347 z m 260 434 l 260 521 l 347 521 l 347 434 z m 0 0 l 0 781 l 87 781 l 87 347 l 174 347 l 174 260 l 87 260 l 87 0 z "},"ĸ":{"ha":434,"x_min":0,"x_max":0,"o":"m 260 0 l 260 87 l 347 87 l 347 0 z m 174 87 l 174 260 l 260 260 l 260 87 z m 174 347 l 174 434 l 260 434 l 260 347 z m 0 0 l 0 521 l 87 521 l 87 347 l 174 347 l 174 260 l 87 260 l 87 0 z m 260 434 l 260 521 l 347 521 l 347 434 z "},"Ĺ":{"ha":434,"x_min":0,"x_max":0,"o":"m 0 0 l 0 694 l 87 694 l 87 87 l 347 87 l 347 0 z m 87 781 l 87 868 l 174 868 l 174 781 z m 174 868 l 174 955 l 260 955 l 260 868 z "},"ĺ":{"ha":260,"x_min":0,"x_max":0,"o":"m 0 0 l 0 694 l 87 694 l 87 0 z m 0 781 l 0 868 l 87 868 l 87 781 z m 87 868 l 87 955 l 174 955 l 174 868 z "},"Ļ":{"ha":434,"x_min":0,"x_max":0,"o":"m 0 -174 l 0 -87 l 174 -87 l 174 -174 z m 174 -87 l 174 0 l 0 0 l 0 694 l 87 694 l 87 87 l 347 87 l 347 0 l 260 0 l 260 -87 z "},"ļ":{"ha":347,"x_min":0,"x_max":0,"o":"m 0 -174 l 0 -87 l 174 -87 l 174 -174 z m 174 -87 l 174 0 l 260 0 l 260 -87 z m 87 0 l 87 781 l 174 781 l 174 0 z "},"Ľ":{"ha":434,"x_min":0,"x_max":0,"o":"m 174 521 l 174 608 l 260 608 l 260 521 z m 0 0 l 0 694 l 87 694 l 87 87 l 347 87 l 347 0 z m 260 608 l 260 781 l 347 781 l 347 608 z "},"ľ":{"ha":434,"x_min":0,"x_max":0,"o":"m 174 521 l 174 608 l 260 608 l 260 521 z m 0 0 l 0 781 l 87 781 l 87 0 z m 260 608 l 260 781 l 347 781 l 347 608 z "},"Ŀ":{"ha":434,"x_min":0,"x_max":0,"o":"m 260 174 l 260 347 l 347 347 l 347 174 z m 0 0 l 0 694 l 87 694 l 87 87 l 347 87 l 347 0 z "},"ŀ":{"ha":347,"x_min":0,"x_max":0,"o":"m 174 260 l 174 434 l 260 434 l 260 260 z m 0 0 l 0 781 l 87 781 l 87 0 z "},"Ł":{"ha":521,"x_min":0,"x_max":0,"o":"m 87 0 l 87 260 l 0 260 l 0 347 l 87 347 l 87 694 l 174 694 l 174 521 l 260 521 l 260 434 l 174 434 l 174 87 l 434 87 l 434 0 z "},"ł":{"ha":347,"x_min":0,"x_max":0,"o":"m 87 0 l 87 260 l 0 260 l 0 347 l 87 347 l 87 694 l 174 694 l 174 521 l 260 521 l 260 434 l 174 434 l 174 0 z "},"Ń":{"ha":608,"x_min":0,"x_max":0,"o":"m 260 174 l 260 347 l 347 347 l 347 174 z m 174 347 l 174 521 l 260 521 l 260 347 z m 0 0 l 0 694 l 174 694 l 174 521 l 87 521 l 87 0 z m 347 0 l 347 174 l 434 174 l 434 694 l 521 694 l 521 0 z m 260 781 l 260 868 l 347 868 l 347 781 z m 347 868 l 347 955 l 434 955 l 434 868 z "},"ń":{"ha":521,"x_min":0,"x_max":0,"o":"m 347 0 l 347 434 l 434 434 l 434 0 z m 0 0 l 0 521 l 347 521 l 347 434 l 87 434 l 87 0 z m 174 608 l 174 694 l 260 694 l 260 608 z m 260 694 l 260 781 l 347 781 l 347 694 z "},"Ņ":{"ha":608,"x_min":0,"x_max":0,"o":"m 87 -174 l 87 -87 l 260 -87 l 260 -174 z m 260 -87 l 260 0 l 347 0 l 347 -87 z m 260 174 l 260 347 l 347 347 l 347 174 z m 174 347 l 174 521 l 260 521 l 260 347 z m 0 0 l 0 694 l 174 694 l 174 521 l 87 521 l 87 0 z m 347 0 l 347 174 l 434 174 l 434 694 l 521 694 l 521 0 z "},"ņ":{"ha":521,"x_min":0,"x_max":0,"o":"m 87 -174 l 87 -87 l 260 -87 l 260 -174 z m 260 -87 l 260 0 l 347 0 l 347 -87 z m 347 0 l 347 434 l 434 434 l 434 0 z m 0 0 l 0 521 l 347 521 l 347 434 l 87 434 l 87 0 z "},"Ň":{"ha":608,"x_min":0,"x_max":0,"o":"m 260 174 l 260 347 l 347 347 l 347 174 z m 174 347 l 174 521 l 260 521 l 260 347 z m 0 0 l 0 694 l 174 694 l 174 521 l 87 521 l 87 0 z m 347 0 l 347 174 l 434 174 l 434 694 l 521 694 l 521 0 z m 174 781 l 174 868 l 347 868 l 347 781 z m 87 868 l 87 955 l 174 955 l 174 868 z m 347 868 l 347 955 l 434 955 l 434 868 z "},"ň":{"ha":521,"x_min":0,"x_max":0,"o":"m 347 0 l 347 434 l 434 434 l 434 0 z m 0 0 l 0 521 l 347 521 l 347 434 l 87 434 l 87 0 z m 174 608 l 174 694 l 347 694 l 347 608 z m 87 694 l 87 781 l 174 781 l 174 694 z m 347 694 l 347 781 l 434 781 l 434 694 z "},"ŉ":{"ha":694,"x_min":0,"x_max":0,"o":"m 521 0 l 521 434 l 608 434 l 608 0 z m 174 0 l 174 521 l 521 521 l 521 434 l 260 434 l 260 0 z m 0 521 l 0 608 l 87 608 l 87 521 z m 87 608 l 87 781 l 174 781 l 174 608 z "},"Ŋ":{"ha":608,"x_min":0,"x_max":0,"o":"m 260 -174 l 260 -87 l 434 -87 l 434 -174 z m 260 174 l 260 347 l 347 347 l 347 174 z m 174 347 l 174 521 l 260 521 l 260 347 z m 0 0 l 0 694 l 174 694 l 174 521 l 87 521 l 87 0 z m 434 -87 l 434 0 l 347 0 l 347 174 l 434 174 l 434 694 l 521 694 l 521 -87 z "},"ŋ":{"ha":521,"x_min":0,"x_max":0,"o":"m 87 -174 l 87 -87 l 260 -87 l 260 -174 z m 260 -87 l 260 0 l 347 0 l 347 -87 z m 347 0 l 347 434 l 434 434 l 434 0 z m 0 0 l 0 521 l 347 521 l 347 434 l 87 434 l 87 0 z "},"Ō":{"ha":694,"x_min":0,"x_max":0,"o":"m 174 0 l 174 87 l 434 87 l 434 0 z m 87 87 l 87 174 l 174 174 l 174 87 z m 434 87 l 434 174 l 521 174 l 521 87 z m 0 174 l 0 521 l 87 521 l 87 174 z m 521 174 l 521 521 l 608 521 l 608 174 z m 87 521 l 87 608 l 174 608 l 174 521 z m 434 521 l 434 608 l 521 608 l 521 521 z m 174 608 l 174 694 l 434 694 l 434 608 z m 174 781 l 174 868 l 521 868 l 521 781 z "},"ō":{"ha":521,"x_min":0,"x_max":0,"o":"m 87 0 l 87 87 l 347 87 l 347 0 z m 0 87 l 0 434 l 87 434 l 87 87 z m 347 87 l 347 434 l 434 434 l 434 87 z m 87 434 l 87 521 l 347 521 l 347 434 z m 87 608 l 87 694 l 434 694 l 434 608 z "},"Ŏ":{"ha":694,"x_min":0,"x_max":0,"o":"m 174 0 l 174 87 l 434 87 l 434 0 z m 87 87 l 87 174 l 174 174 l 174 87 z m 434 87 l 434 174 l 521 174 l 521 87 z m 0 174 l 0 521 l 87 521 l 87 174 z m 521 174 l 521 521 l 608 521 l 608 174 z m 87 521 l 87 608 l 174 608 l 174 521 z m 434 521 l 434 608 l 521 608 l 521 521 z m 174 608 l 174 694 l 434 694 l 434 608 z m 260 781 l 260 868 l 434 868 l 434 781 z m 174 868 l 174 955 l 260 955 l 260 868 z m 434 868 l 434 955 l 521 955 l 521 868 z "},"ŏ":{"ha":521,"x_min":0,"x_max":0,"o":"m 87 0 l 87 87 l 347 87 l 347 0 z m 0 87 l 0 434 l 87 434 l 87 87 z m 347 87 l 347 434 l 434 434 l 434 87 z m 87 434 l 87 521 l 347 521 l 347 434 z m 174 608 l 174 694 l 347 694 l 347 608 z m 87 694 l 87 781 l 174 781 l 174 694 z m 347 694 l 347 781 l 434 781 l 434 694 z "},"Ő":{"ha":694,"x_min":0,"x_max":0,"o":"m 174 0 l 174 87 l 434 87 l 434 0 z m 87 87 l 87 174 l 174 174 l 174 87 z m 434 87 l 434 174 l 521 174 l 521 87 z m 0 174 l 0 521 l 87 521 l 87 174 z m 521 174 l 521 521 l 608 521 l 608 174 z m 87 521 l 87 608 l 174 608 l 174 521 z m 434 521 l 434 608 l 521 608 l 521 521 z m 174 608 l 174 694 l 434 694 l 434 608 z m 174 781 l 174 868 l 260 868 l 260 781 z m 347 781 l 347 868 l 434 868 l 434 781 z m 260 868 l 260 955 l 347 955 l 347 868 z m 434 868 l 434 955 l 521 955 l 521 868 z "},"ő":{"ha":521,"x_min":0,"x_max":0,"o":"m 87 0 l 87 87 l 347 87 l 347 0 z m 0 87 l 0 434 l 87 434 l 87 87 z m 347 87 l 347 434 l 434 434 l 434 87 z m 87 434 l 87 521 l 347 521 l 347 434 z m 87 608 l 87 694 l 174 694 l 174 608 z m 260 608 l 260 694 l 347 694 l 347 608 z m 174 694 l 174 781 l 260 781 l 260 694 z m 347 694 l 347 781 l 434 781 l 434 694 z "},"Œ":{"ha":955,"x_min":0,"x_max":0,"o":"m 87 87 l 87 174 l 174 174 l 174 87 z m 0 174 l 0 521 l 87 521 l 87 174 z m 87 521 l 87 608 l 174 608 l 174 521 z m 174 0 l 174 87 l 434 87 l 434 608 l 174 608 l 174 694 l 868 694 l 868 608 l 521 608 l 521 434 l 781 434 l 781 347 l 521 347 l 521 87 l 868 87 l 868 0 z "},"œ":{"ha":868,"x_min":0,"x_max":0,"o":"m 87 0 l 87 87 l 347 87 l 347 0 z m 434 0 l 434 87 l 781 87 l 781 0 z m 0 87 l 0 434 l 87 434 l 87 87 z m 347 87 l 347 434 l 434 434 l 434 347 l 694 347 l 694 434 l 781 434 l 781 260 l 434 260 l 434 87 z m 87 434 l 87 521 l 347 521 l 347 434 z m 434 434 l 434 521 l 694 521 l 694 434 z "},"Ŕ":{"ha":608,"x_min":0,"x_max":0,"o":"m 434 0 l 434 87 l 521 87 l 521 0 z m 347 87 l 347 174 l 434 174 l 434 87 z m 347 347 l 347 608 l 434 608 l 434 347 z m 0 0 l 0 694 l 347 694 l 347 608 l 87 608 l 87 347 l 347 347 l 347 174 l 260 174 l 260 260 l 87 260 l 87 0 z m 174 781 l 174 868 l 260 868 l 260 781 z m 260 868 l 260 955 l 347 955 l 347 868 z "},"ŕ":{"ha":347,"x_min":0,"x_max":0,"o":"m 0 0 l 0 521 l 87 521 l 87 434 l 174 434 l 174 347 l 87 347 l 87 0 z m 174 434 l 174 521 l 260 521 l 260 434 z m 87 608 l 87 694 l 174 694 l 174 608 z m 174 694 l 174 781 l 260 781 l 260 694 z "},"Ŗ":{"ha":608,"x_min":0,"x_max":0,"o":"m 87 -174 l 87 -87 l 260 -87 l 260 -174 z m 260 -87 l 260 0 l 347 0 l 347 -87 z m 434 0 l 434 87 l 521 87 l 521 0 z m 347 87 l 347 174 l 434 174 l 434 87 z m 347 347 l 347 608 l 434 608 l 434 347 z m 0 0 l 0 694 l 347 694 l 347 608 l 87 608 l 87 347 l 347 347 l 347 174 l 260 174 l 260 260 l 87 260 l 87 0 z "},"ŗ":{"ha":434,"x_min":0,"x_max":0,"o":"m 0 -174 l 0 -87 l 174 -87 l 174 -174 z m 174 -87 l 174 0 l 260 0 l 260 -87 z m 87 0 l 87 521 l 174 521 l 174 434 l 260 434 l 260 347 l 174 347 l 174 0 z m 260 434 l 260 521 l 347 521 l 347 434 z "},"Ř":{"ha":608,"x_min":0,"x_max":0,"o":"m 434 0 l 434 87 l 521 87 l 521 0 z m 347 87 l 347 174 l 434 174 l 434 87 z m 347 347 l 347 608 l 434 608 l 434 347 z m 0 0 l 0 694 l 347 694 l 347 608 l 87 608 l 87 347 l 347 347 l 347 174 l 260 174 l 260 260 l 87 260 l 87 0 z "},"ř":{"ha":434,"x_min":0,"x_max":0,"o":"m 0 0 l 0 521 l 87 521 l 87 434 l 174 434 l 174 347 l 87 347 l 87 0 z m 174 434 l 174 521 l 260 521 l 260 434 z m 87 608 l 87 694 l 260 694 l 260 608 z m 0 694 l 0 781 l 87 781 l 87 694 z m 260 694 l 260 781 l 347 781 l 347 694 z "},"Ś":{"ha":521,"x_min":0,"x_max":0,"o":"m 0 0 l 0 87 l 347 87 l 347 0 z m 347 87 l 347 347 l 434 347 l 434 87 z m 87 347 l 87 434 l 347 434 l 347 347 z m 0 434 l 0 608 l 87 608 l 87 434 z m 87 608 l 87 694 l 434 694 l 434 608 z m 174 781 l 174 868 l 260 868 l 260 781 z m 260 868 l 260 955 l 347 955 l 347 868 z "},"ś":{"ha":434,"x_min":0,"x_max":0,"o":"m 0 0 l 0 87 l 260 87 l 260 0 z m 260 87 l 260 174 l 174 174 l 174 260 l 347 260 l 347 87 z m 0 260 l 0 434 l 87 434 l 87 347 l 174 347 l 174 260 z m 87 434 l 87 521 l 347 521 l 347 434 z m 174 608 l 174 694 l 260 694 l 260 608 z m 260 694 l 260 781 l 347 781 l 347 694 z "},"Ŝ":{"ha":521,"x_min":0,"x_max":0,"o":"m 0 0 l 0 87 l 347 87 l 347 0 z m 347 87 l 347 347 l 434 347 l 434 87 z m 87 347 l 87 434 l 347 434 l 347 347 z m 0 434 l 0 608 l 87 608 l 87 434 z m 87 608 l 87 694 l 434 694 l 434 608 z m 87 781 l 87 868 l 174 868 l 174 781 z m 347 781 l 347 868 l 434 868 l 434 781 z m 174 868 l 174 955 l 347 955 l 347 868 z "},"ŝ":{"ha":434,"x_min":0,"x_max":0,"o":"m 0 0 l 0 87 l 260 87 l 260 0 z m 260 87 l 260 174 l 174 174 l 174 260 l 347 260 l 347 87 z m 0 260 l 0 434 l 87 434 l 87 347 l 174 347 l 174 260 z m 87 434 l 87 521 l 347 521 l 347 434 z m 0 608 l 0 694 l 87 694 l 87 608 z m 260 608 l 260 694 l 347 694 l 347 608 z m 87 694 l 87 781 l 260 781 l 260 694 z "},"Ş":{"ha":521,"x_min":0,"x_max":0,"o":"m 87 -174 l 87 -87 l 260 -87 l 260 -174 z m 260 -87 l 260 0 l 0 0 l 0 87 l 347 87 l 347 -87 z m 347 87 l 347 347 l 434 347 l 434 87 z m 87 347 l 87 434 l 347 434 l 347 347 z m 0 434 l 0 608 l 87 608 l 87 434 z m 87 608 l 87 694 l 434 694 l 434 608 z "},"ş":{"ha":434,"x_min":0,"x_max":0,"o":"m 0 -174 l 0 -87 l 174 -87 l 174 0 l 0 0 l 0 87 l 260 87 l 260 -174 z m 260 87 l 260 174 l 174 174 l 174 260 l 347 260 l 347 87 z m 0 260 l 0 434 l 87 434 l 87 347 l 174 347 l 174 260 z m 87 434 l 87 521 l 347 521 l 347 434 z "},"Š":{"ha":521,"x_min":0,"x_max":0,"o":"m 0 0 l 0 87 l 347 87 l 347 0 z m 347 87 l 347 347 l 434 347 l 434 87 z m 87 347 l 87 434 l 347 434 l 347 347 z m 0 434 l 0 608 l 87 608 l 87 434 z m 87 608 l 87 694 l 434 694 l 434 608 z m 174 781 l 174 868 l 347 868 l 347 781 z m 87 868 l 87 955 l 174 955 l 174 868 z m 347 868 l 347 955 l 434 955 l 434 868 z "},"š":{"ha":434,"x_min":0,"x_max":0,"o":"m 0 0 l 0 87 l 260 87 l 260 0 z m 260 87 l 260 174 l 174 174 l 174 260 l 347 260 l 347 87 z m 0 260 l 0 434 l 87 434 l 87 347 l 174 347 l 174 260 z m 87 434 l 87 521 l 347 521 l 347 434 z m 87 608 l 87 694 l 260 694 l 260 608 z m 0 694 l 0 781 l 87 781 l 87 694 z m 260 694 l 260 781 l 347 781 l 347 694 z "},"Ţ":{"ha":521,"x_min":0,"x_max":0,"o":"m 87 -174 l 87 -87 l 260 -87 l 260 -174 z m 260 -87 l 260 0 l 347 0 l 347 -87 z m 174 0 l 174 608 l 0 608 l 0 694 l 434 694 l 434 608 l 260 608 l 260 0 z "},"ţ":{"ha":347,"x_min":0,"x_max":0,"o":"m 0 -174 l 0 -87 l 174 -87 l 174 0 l 87 0 l 87 87 l 260 87 l 260 -174 z m 0 87 l 0 694 l 87 694 l 87 521 l 260 521 l 260 434 l 87 434 l 87 87 z "},"Ť":{"ha":521,"x_min":0,"x_max":0,"o":"m 174 0 l 174 608 l 0 608 l 0 694 l 434 694 l 434 608 l 260 608 l 260 0 z m 174 781 l 174 868 l 347 868 l 347 781 z m 87 868 l 87 955 l 174 955 l 174 868 z m 347 868 l 347 955 l 434 955 l 434 868 z "},"ť":{"ha":521,"x_min":0,"x_max":0,"o":"m 87 0 l 87 87 l 260 87 l 260 0 z m 260 521 l 260 608 l 347 608 l 347 521 z m 0 87 l 0 694 l 87 694 l 87 521 l 260 521 l 260 434 l 87 434 l 87 87 z m 347 608 l 347 781 l 434 781 l 434 608 z "},"Ŧ":{"ha":521,"x_min":0,"x_max":0,"o":"m 174 0 l 174 347 l 87 347 l 87 434 l 174 434 l 174 608 l 0 608 l 0 694 l 434 694 l 434 608 l 260 608 l 260 434 l 347 434 l 347 347 l 260 347 l 260 0 z "},"ŧ":{"ha":347,"x_min":0,"x_max":0,"o":"m 87 0 l 87 87 l 260 87 l 260 0 z m 0 87 l 0 694 l 87 694 l 87 521 l 260 521 l 260 434 l 87 434 l 87 347 l 260 347 l 260 260 l 87 260 l 87 87 z "},"Ũ":{"ha":608,"x_min":0,"x_max":0,"o":"m 87 0 l 87 87 l 434 87 l 434 0 z m 0 87 l 0 694 l 87 694 l 87 87 z m 434 87 l 434 694 l 521 694 l 521 87 z m 87 781 l 87 955 l 260 955 l 260 868 l 174 868 l 174 781 z m 260 781 l 260 868 l 347 868 l 347 955 l 434 955 l 434 781 z "},"ũ":{"ha":521,"x_min":0,"x_max":0,"o":"m 0 87 l 0 521 l 87 521 l 87 87 z m 87 0 l 87 87 l 347 87 l 347 521 l 434 521 l 434 0 z m 87 608 l 87 781 l 260 781 l 260 694 l 174 694 l 174 608 z m 260 608 l 260 694 l 347 694 l 347 781 l 434 781 l 434 608 z "},"Ū":{"ha":608,"x_min":0,"x_max":0,"o":"m 87 0 l 87 87 l 434 87 l 434 0 z m 0 87 l 0 694 l 87 694 l 87 87 z m 434 87 l 434 694 l 521 694 l 521 87 z m 87 781 l 87 868 l 434 868 l 434 781 z "},"ū":{"ha":521,"x_min":0,"x_max":0,"o":"m 0 87 l 0 521 l 87 521 l 87 87 z m 87 0 l 87 87 l 347 87 l 347 521 l 434 521 l 434 0 z m 87 608 l 87 694 l 434 694 l 434 608 z "},"Ŭ":{"ha":608,"x_min":0,"x_max":0,"o":"m 87 0 l 87 87 l 434 87 l 434 0 z m 0 87 l 0 694 l 87 694 l 87 87 z m 434 87 l 434 694 l 521 694 l 521 87 z m 174 781 l 174 868 l 347 868 l 347 781 z m 87 868 l 87 955 l 174 955 l 174 868 z m 347 868 l 347 955 l 434 955 l 434 868 z "},"ŭ":{"ha":521,"x_min":0,"x_max":0,"o":"m 0 87 l 0 521 l 87 521 l 87 87 z m 87 0 l 87 87 l 347 87 l 347 521 l 434 521 l 434 0 z m 174 608 l 174 694 l 347 694 l 347 608 z m 87 694 l 87 781 l 174 781 l 174 694 z m 347 694 l 347 781 l 434 781 l 434 694 z "},"Ů":{"ha":608,"x_min":0,"x_max":0,"o":"m 87 0 l 87 87 l 434 87 l 434 0 z m 0 87 l 0 694 l 87 694 l 87 87 z m 434 87 l 434 694 l 521 694 l 521 87 z m 260 694 l 260 781 l 347 781 l 347 694 z m 174 781 l 174 868 l 260 868 l 260 781 z m 347 781 l 347 868 l 434 868 l 434 781 z m 260 868 l 260 955 l 347 955 l 347 868 z "},"ů":{"ha":521,"x_min":0,"x_max":0,"o":"m 0 87 l 0 521 l 87 521 l 87 87 z m 87 0 l 87 87 l 347 87 l 347 521 l 434 521 l 434 0 z m 174 521 l 174 608 l 260 608 l 260 521 z m 87 608 l 87 694 l 174 694 l 174 608 z m 260 608 l 260 694 l 347 694 l 347 608 z m 174 694 l 174 781 l 260 781 l 260 694 z "},"Ű":{"ha":608,"x_min":0,"x_max":0,"o":"m 87 0 l 87 87 l 434 87 l 434 0 z m 0 87 l 0 694 l 87 694 l 87 87 z m 434 87 l 434 694 l 521 694 l 521 87 z m 87 781 l 87 868 l 174 868 l 174 781 z m 260 781 l 260 868 l 347 868 l 347 781 z m 174 868 l 174 955 l 260 955 l 260 868 z m 347 868 l 347 955 l 434 955 l 434 868 z "},"ű":{"ha":521,"x_min":0,"x_max":0,"o":"m 0 87 l 0 521 l 87 521 l 87 87 z m 87 0 l 87 87 l 347 87 l 347 521 l 434 521 l 434 0 z m 87 608 l 87 694 l 174 694 l 174 608 z m 260 608 l 260 694 l 347 694 l 347 608 z m 174 694 l 174 781 l 260 781 l 260 694 z m 347 694 l 347 781 l 434 781 l 434 694 z "},"Ų":{"ha":608,"x_min":0,"x_max":0,"o":"m 347 -174 l 347 -87 l 521 -87 l 521 -174 z m 260 -87 l 260 0 l 87 0 l 87 87 l 434 87 l 434 0 l 347 0 l 347 -87 z m 0 87 l 0 694 l 87 694 l 87 87 z m 434 87 l 434 694 l 521 694 l 521 87 z "},"ų":{"ha":608,"x_min":0,"x_max":0,"o":"m 0 87 l 0 521 l 87 521 l 87 87 z m 347 -174 l 347 0 l 87 0 l 87 87 l 347 87 l 347 521 l 434 521 l 434 -87 l 521 -87 l 521 -174 z "},"Ŵ":{"ha":868,"x_min":0,"x_max":0,"o":"m 174 0 l 174 174 l 260 174 l 260 0 z m 521 0 l 521 174 l 608 174 l 608 0 z m 87 174 l 87 434 l 174 434 l 174 174 z m 260 174 l 260 434 l 347 434 l 347 174 z m 434 174 l 434 434 l 521 434 l 521 174 z m 608 174 l 608 434 l 694 434 l 694 174 z m 0 434 l 0 694 l 87 694 l 87 434 z m 347 434 l 347 694 l 434 694 l 434 434 z m 694 434 l 694 694 l 781 694 l 781 434 z m 260 781 l 260 868 l 347 868 l 347 781 z m 521 781 l 521 868 l 608 868 l 608 781 z m 347 868 l 347 955 l 521 955 l 521 868 z "},"ŵ":{"ha":694,"x_min":0,"x_max":0,"o":"m 87 0 l 87 174 l 174 174 l 174 0 z m 434 0 l 434 174 l 521 174 l 521 0 z m 174 174 l 174 347 l 260 347 l 260 174 z m 347 174 l 347 347 l 434 347 l 434 174 z m 0 174 l 0 521 l 87 521 l 87 174 z m 260 347 l 260 521 l 347 521 l 347 347 z m 521 174 l 521 521 l 608 521 l 608 174 z m 174 608 l 174 694 l 260 694 l 260 608 z m 434 608 l 434 694 l 521 694 l 521 608 z m 260 694 l 260 781 l 434 781 l 434 694 z "},"Ŷ":{"ha":521,"x_min":0,"x_max":0,"o":"m 174 0 l 174 347 l 260 347 l 260 0 z m 87 347 l 87 521 l 174 521 l 174 347 z m 260 347 l 260 521 l 347 521 l 347 347 z m 0 521 l 0 694 l 87 694 l 87 521 z m 347 521 l 347 694 l 434 694 l 434 521 z m 87 781 l 87 868 l 174 868 l 174 781 z m 347 781 l 347 868 l 434 868 l 434 781 z m 174 868 l 174 955 l 347 955 l 347 868 z "},"ŷ":{"ha":521,"x_min":0,"x_max":0,"o":"m 87 -174 l 87 0 l 174 0 l 174 -174 z m 174 0 l 174 174 l 260 174 l 260 0 z m 87 174 l 87 347 l 174 347 l 174 174 z m 260 174 l 260 347 l 347 347 l 347 174 z m 0 347 l 0 521 l 87 521 l 87 347 z m 347 347 l 347 521 l 434 521 l 434 347 z m 87 608 l 87 694 l 174 694 l 174 608 z m 347 608 l 347 694 l 434 694 l 434 608 z m 174 694 l 174 781 l 347 781 l 347 694 z "},"Ÿ":{"ha":521,"x_min":0,"x_max":0,"o":"m 174 0 l 174 347 l 260 347 l 260 0 z m 87 347 l 87 521 l 174 521 l 174 347 z m 260 347 l 260 521 l 347 521 l 347 347 z m 0 521 l 0 694 l 87 694 l 87 521 z m 347 521 l 347 694 l 434 694 l 434 521 z m 87 781 l 87 868 l 174 868 l 174 781 z m 260 781 l 260 868 l 347 868 l 347 781 z "},"Ź":{"ha":521,"x_min":0,"x_max":0,"o":"m 0 0 l 0 174 l 87 174 l 87 87 l 434 87 l 434 0 z m 87 174 l 87 260 l 174 260 l 174 174 z m 174 260 l 174 434 l 260 434 l 260 260 z m 260 434 l 260 521 l 347 521 l 347 434 z m 347 521 l 347 608 l 0 608 l 0 694 l 434 694 l 434 521 z m 174 781 l 174 868 l 260 868 l 260 781 z m 260 868 l 260 955 l 347 955 l 347 868 z "},"ź":{"ha":434,"x_min":0,"x_max":0,"o":"m 0 0 l 0 174 l 87 174 l 87 87 l 347 87 l 347 0 z m 87 174 l 87 260 l 174 260 l 174 174 z m 174 260 l 174 347 l 260 347 l 260 260 z m 260 347 l 260 434 l 0 434 l 0 521 l 347 521 l 347 347 z m 87 608 l 87 694 l 174 694 l 174 608 z m 174 694 l 174 781 l 260 781 l 260 694 z "},"Ż":{"ha":521,"x_min":0,"x_max":0,"o":"m 0 0 l 0 174 l 87 174 l 87 87 l 434 87 l 434 0 z m 87 174 l 87 260 l 174 260 l 174 174 z m 174 260 l 174 434 l 260 434 l 260 260 z m 260 434 l 260 521 l 347 521 l 347 434 z m 347 521 l 347 608 l 0 608 l 0 694 l 434 694 l 434 521 z m 174 781 l 174 868 l 260 868 l 260 781 z "},"ż":{"ha":434,"x_min":0,"x_max":0,"o":"m 0 0 l 0 174 l 87 174 l 87 87 l 347 87 l 347 0 z m 87 174 l 87 260 l 174 260 l 174 174 z m 174 260 l 174 347 l 260 347 l 260 260 z m 260 347 l 260 434 l 0 434 l 0 521 l 347 521 l 347 347 z m 174 608 l 174 694 l 260 694 l 260 608 z "},"Ž":{"ha":521,"x_min":0,"x_max":0,"o":"m 0 0 l 0 174 l 87 174 l 87 87 l 434 87 l 434 0 z m 87 174 l 87 260 l 174 260 l 174 174 z m 174 260 l 174 434 l 260 434 l 260 260 z m 260 434 l 260 521 l 347 521 l 347 434 z m 347 521 l 347 608 l 0 608 l 0 694 l 434 694 l 434 521 z m 174 781 l 174 868 l 347 868 l 347 781 z m 87 868 l 87 955 l 174 955 l 174 868 z m 347 868 l 347 955 l 434 955 l 434 868 z "},"ž":{"ha":434,"x_min":0,"x_max":0,"o":"m 0 0 l 0 174 l 87 174 l 87 87 l 347 87 l 347 0 z m 87 174 l 87 260 l 174 260 l 174 174 z m 174 260 l 174 347 l 260 347 l 260 260 z m 260 347 l 260 434 l 0 434 l 0 521 l 347 521 l 347 347 z m 87 608 l 87 694 l 260 694 l 260 608 z m 0 694 l 0 781 l 87 781 l 87 694 z m 260 694 l 260 781 l 347 781 l 347 694 z "},"ſ":{"ha":434,"x_min":0,"x_max":0,"o":"m 87 0 l 87 608 l 174 608 l 174 0 z m 174 608 l 174 694 l 347 694 l 347 608 z "},"ƀ":{"ha":521,"x_min":0,"x_max":0,"o":"m 347 87 l 347 434 l 434 434 l 434 87 z m 0 0 l 0 608 l -87 608 l -87 694 l 0 694 l 0 781 l 87 781 l 87 694 l 260 694 l 260 608 l 87 608 l 87 521 l 347 521 l 347 434 l 87 434 l 87 87 l 347 87 l 347 0 z "},"Ɓ":{"ha":781,"x_min":0,"x_max":0,"o":"m 608 87 l 608 347 l 694 347 l 694 87 z m 0 434 l 0 608 l 87 608 l 87 434 z m 608 434 l 608 608 l 694 608 l 694 434 z m 174 0 l 174 608 l 87 608 l 87 694 l 608 694 l 608 608 l 260 608 l 260 434 l 608 434 l 608 347 l 260 347 l 260 87 l 608 87 l 608 0 z "},"Ƃ":{"ha":608,"x_min":0,"x_max":0,"o":"m 434 87 l 434 347 l 521 347 l 521 87 z m 0 0 l 0 694 l 521 694 l 521 608 l 87 608 l 87 434 l 434 434 l 434 347 l 87 347 l 87 87 l 434 87 l 434 0 z "},"ƃ":{"ha":521,"x_min":0,"x_max":0,"o":"m 347 87 l 347 434 l 434 434 l 434 87 z m 0 0 l 0 781 l 434 781 l 434 694 l 87 694 l 87 521 l 347 521 l 347 434 l 87 434 l 87 87 l 347 87 l 347 0 z "},"Ƅ":{"ha":608,"x_min":0,"x_max":0,"o":"m 434 87 l 434 347 l 521 347 l 521 87 z m 0 0 l 0 521 l -87 521 l -87 608 l 0 608 l 0 694 l 87 694 l 87 434 l 434 434 l 434 347 l 87 347 l 87 87 l 434 87 l 434 0 z "},"ƅ":{"ha":521,"x_min":0,"x_max":0,"o":"m 347 87 l 347 434 l 434 434 l 434 87 z m 0 0 l 0 608 l -87 608 l -87 694 l 0 694 l 0 781 l 87 781 l 87 521 l 347 521 l 347 434 l 87 434 l 87 87 l 347 87 l 347 0 z "},"Ɔ":{"ha":608,"x_min":0,"x_max":0,"o":"m 0 0 l 0 87 l 347 87 l 347 0 z m 347 87 l 347 174 l 434 174 l 434 87 z m 434 174 l 434 521 l 521 521 l 521 174 z m 347 521 l 347 608 l 434 608 l 434 521 z m 0 608 l 0 694 l 347 694 l 347 608 z "},"Ƈ":{"ha":781,"x_min":0,"x_max":0,"o":"m 174 0 l 174 87 l 521 87 l 521 0 z m 87 87 l 87 174 l 174 174 l 174 87 z m 0 174 l 0 521 l 87 521 l 87 174 z m 87 521 l 87 608 l 174 608 l 174 521 z m 174 608 l 174 694 l 521 694 l 521 608 z m 521 694 l 521 781 l 694 781 l 694 694 z "},"ƈ":{"ha":521,"x_min":0,"x_max":0,"o":"m 87 0 l 87 87 l 347 87 l 347 0 z m 0 87 l 0 434 l 87 434 l 87 87 z m 87 434 l 87 521 l 260 521 l 260 608 l 347 608 l 347 434 z m 347 608 l 347 694 l 434 694 l 434 608 z "},"Ɖ":{"ha":608,"x_min":0,"x_max":0,"o":"m 347 87 l 347 174 l 434 174 l 434 87 z m 434 174 l 434 521 l 521 521 l 521 174 z m 347 521 l 347 608 l 434 608 l 434 521 z m 0 0 l 0 347 l -87 347 l -87 434 l 0 434 l 0 694 l 347 694 l 347 608 l 87 608 l 87 434 l 260 434 l 260 347 l 87 347 l 87 87 l 347 87 l 347 0 z "},"Ɗ":{"ha":781,"x_min":0,"x_max":0,"o":"m 521 87 l 521 174 l 608 174 l 608 87 z m 608 174 l 608 521 l 694 521 l 694 174 z m 0 434 l 0 608 l 87 608 l 87 434 z m 521 521 l 521 608 l 608 608 l 608 521 z m 174 0 l 174 608 l 87 608 l 87 694 l 521 694 l 521 608 l 260 608 l 260 87 l 521 87 l 521 0 z "},"Ƌ":{"ha":608,"x_min":0,"x_max":0,"o":"m 0 87 l 0 347 l 87 347 l 87 87 z m 87 0 l 87 87 l 434 87 l 434 347 l 87 347 l 87 434 l 434 434 l 434 608 l 0 608 l 0 694 l 521 694 l 521 0 z "},"ƌ":{"ha":521,"x_min":0,"x_max":0,"o":"m 0 87 l 0 434 l 87 434 l 87 87 z m 87 0 l 87 87 l 347 87 l 347 434 l 87 434 l 87 521 l 347 521 l 347 694 l 87 694 l 87 781 l 434 781 l 434 0 z "},"ƍ":{"ha":521,"x_min":0,"x_max":0,"o":"m 0 -174 l 0 -87 l 260 -87 l 260 0 l 347 0 l 347 -174 z m 174 0 l 174 87 l 87 87 l 87 174 l 347 174 l 347 87 l 260 87 l 260 0 z m 0 174 l 0 521 l 87 521 l 87 174 z m 347 174 l 347 521 l 434 521 l 434 174 z m 87 521 l 87 608 l 347 608 l 347 521 z "},"Ǝ":{"ha":608,"x_min":0,"x_max":0,"o":"m 0 0 l 0 87 l 434 87 l 434 260 l 87 260 l 87 347 l 434 347 l 434 608 l 0 608 l 0 694 l 521 694 l 521 0 z "},"Ə":{"ha":694,"x_min":0,"x_max":0,"o":"m 174 0 l 174 87 l 434 87 l 434 0 z m 87 87 l 87 174 l 174 174 l 174 87 z m 434 87 l 434 174 l 521 174 l 521 87 z m 0 174 l 0 347 l 521 347 l 521 521 l 608 521 l 608 174 l 521 174 l 521 260 l 87 260 l 87 174 z m 434 521 l 434 608 l 521 608 l 521 521 z m 87 521 l 87 694 l 434 694 l 434 608 l 174 608 l 174 521 z "},"Ɛ":{"ha":608,"x_min":0,"x_max":0,"o":"m 87 0 l 87 87 l 434 87 l 434 0 z m 434 87 l 434 174 l 521 174 l 521 87 z m 0 87 l 0 347 l 87 347 l 87 87 z m 87 347 l 87 434 l 347 434 l 347 347 z m 0 434 l 0 608 l 87 608 l 87 434 z m 434 521 l 434 608 l 521 608 l 521 521 z m 87 608 l 87 694 l 434 694 l 434 608 z "},"Ƒ":{"ha":608,"x_min":0,"x_max":0,"o":"m -174 -174 l -174 -87 l 0 -87 l 0 -174 z m 0 -87 l 0 694 l 521 694 l 521 608 l 87 608 l 87 434 l 434 434 l 434 347 l 87 347 l 87 -87 z "},"ƒ":{"ha":521,"x_min":0,"x_max":0,"o":"m -87 -87 l -87 0 l 87 0 l 87 -87 z m 87 0 l 87 174 l 174 174 l 174 0 z m 174 174 l 174 347 l 87 347 l 87 434 l 174 434 l 174 608 l 260 608 l 260 434 l 347 434 l 347 347 l 260 347 l 260 174 z m 260 608 l 260 694 l 434 694 l 434 608 z "},"Ɠ":{"ha":781,"x_min":0,"x_max":0,"o":"m 87 87 l 87 174 l 174 174 l 174 87 z m 174 0 l 174 87 l 434 87 l 434 260 l 260 260 l 260 347 l 521 347 l 521 0 z m 0 174 l 0 521 l 87 521 l 87 174 z m 87 521 l 87 608 l 174 608 l 174 521 z m 174 608 l 174 694 l 521 694 l 521 608 z m 521 694 l 521 781 l 694 781 l 694 694 z "},"Ɣ":{"ha":781,"x_min":0,"x_max":0,"o":"m 260 -174 l 260 -87 l 434 -87 l 434 -174 z m 174 -87 l 174 0 l 260 0 l 260 -87 z m 434 -87 l 434 0 l 521 0 l 521 -87 z m 260 0 l 260 260 l 434 260 l 434 0 z m 174 260 l 174 434 l 260 434 l 260 260 z m 434 260 l 434 434 l 521 434 l 521 260 z m 87 434 l 87 608 l 174 608 l 174 434 z m 521 434 l 521 608 l 608 608 l 608 434 z m 0 608 l 0 694 l 87 694 l 87 608 z m 608 608 l 608 694 l 694 694 l 694 608 z "},"ƕ":{"ha":868,"x_min":0,"x_max":0,"o":"m 434 0 l 434 87 l 694 87 l 694 0 z m 347 87 l 347 434 l 434 434 l 434 87 z m 694 87 l 694 521 l 781 521 l 781 87 z m 0 0 l 0 781 l 87 781 l 87 521 l 347 521 l 347 434 l 87 434 l 87 0 z "},"Ɩ":{"ha":174,"x_min":0,"x_max":0,"o":"m 0 0 l 0 781 l 87 781 l 87 0 z "},"Ɨ":{"ha":347,"x_min":0,"x_max":0,"o":"m 0 0 l 0 87 l 87 87 l 87 347 l 0 347 l 0 434 l 87 434 l 87 608 l 0 608 l 0 694 l 260 694 l 260 608 l 174 608 l 174 434 l 260 434 l 260 347 l 174 347 l 174 87 l 260 87 l 260 0 z "},"Ƙ":{"ha":521,"x_min":0,"x_max":0,"o":"m 347 0 l 347 87 l 434 87 l 434 0 z m 260 87 l 260 174 l 347 174 l 347 87 z m 174 174 l 174 260 l 260 260 l 260 174 z m 174 434 l 174 521 l 260 521 l 260 434 z m 0 0 l 0 608 l 87 608 l 87 434 l 174 434 l 174 260 l 87 260 l 87 0 z m 260 521 l 260 608 l 347 608 l 347 521 z m 87 608 l 87 694 l 174 694 l 174 608 z m 347 608 l 347 694 l 434 694 l 434 608 z "},"ƙ":{"ha":521,"x_min":0,"x_max":0,"o":"m 347 0 l 347 87 l 434 87 l 434 0 z m 260 87 l 260 174 l 347 174 l 347 87 z m 174 174 l 174 260 l 260 260 l 260 174 z m 174 347 l 174 434 l 260 434 l 260 347 z m 260 434 l 260 521 l 347 521 l 347 434 z m 0 0 l 0 694 l 87 694 l 87 347 l 174 347 l 174 260 l 87 260 l 87 0 z m 87 694 l 87 781 l 260 781 l 260 694 z "},"ƚ":{"ha":347,"x_min":0,"x_max":0,"o":"m 87 0 l 87 347 l 0 347 l 0 434 l 87 434 l 87 781 l 174 781 l 174 434 l 260 434 l 260 347 l 174 347 l 174 0 z "},"ƛ":{"ha":608,"x_min":0,"x_max":0,"o":"m 0 0 l 0 87 l 87 87 l 87 0 z m 434 0 l 434 87 l 521 87 l 521 0 z m 87 87 l 87 260 l 174 260 l 174 87 z m 347 87 l 347 260 l 434 260 l 434 87 z m 174 260 l 174 434 l 260 434 l 260 521 l 347 521 l 347 260 z m 0 521 l 0 608 l 174 608 l 174 781 l 347 781 l 347 694 l 260 694 l 260 521 z "},"Ɯ":{"ha":868,"x_min":0,"x_max":0,"o":"m 87 0 l 87 87 l 260 87 l 260 0 z m 434 0 l 434 87 l 608 87 l 608 0 z m 0 87 l 0 694 l 87 694 l 87 87 z m 260 87 l 260 174 l 347 174 l 347 694 l 434 694 l 434 87 z m 694 0 l 694 87 l 608 87 l 608 174 l 694 174 l 694 694 l 781 694 l 781 0 z "},"Ɲ":{"ha":608,"x_min":0,"x_max":0,"o":"m -174 -174 l -174 -87 l 0 -87 l 0 -174 z m 260 174 l 260 347 l 347 347 l 347 174 z m 174 347 l 174 521 l 260 521 l 260 347 z m 0 -87 l 0 694 l 174 694 l 174 521 l 87 521 l 87 -87 z m 347 0 l 347 174 l 434 174 l 434 694 l 521 694 l 521 0 z "},"ƞ":{"ha":521,"x_min":0,"x_max":0,"o":"m 347 -174 l 347 434 l 434 434 l 434 -174 z m 0 0 l 0 521 l 347 521 l 347 434 l 87 434 l 87 0 z "},"Ɵ":{"ha":694,"x_min":0,"x_max":0,"o":"m 174 0 l 174 87 l 434 87 l 434 0 z m 87 87 l 87 174 l 174 174 l 174 87 z m 434 87 l 434 174 l 521 174 l 521 87 z m 0 174 l 0 521 l 87 521 l 87 434 l 521 434 l 521 521 l 608 521 l 608 174 l 521 174 l 521 347 l 87 347 l 87 174 z m 87 521 l 87 608 l 174 608 l 174 521 z m 434 521 l 434 608 l 521 608 l 521 521 z m 174 608 l 174 694 l 434 694 l 434 608 z "},"Ơ":{"ha":781,"x_min":0,"x_max":0,"o":"m 174 0 l 174 87 l 434 87 l 434 0 z m 87 87 l 87 174 l 174 174 l 174 87 z m 434 87 l 434 174 l 521 174 l 521 87 z m 0 174 l 0 521 l 87 521 l 87 174 z m 87 521 l 87 608 l 174 608 l 174 521 z m 521 174 l 521 521 l 434 521 l 434 608 l 608 608 l 608 174 z m 174 608 l 174 694 l 434 694 l 434 608 z m 608 608 l 608 694 l 694 694 l 694 608 z "},"ơ":{"ha":608,"x_min":0,"x_max":0,"o":"m 87 0 l 87 87 l 347 87 l 347 0 z m 0 87 l 0 434 l 87 434 l 87 87 z m 347 87 l 347 434 l 87 434 l 87 521 l 434 521 l 434 87 z m 434 521 l 434 608 l 521 608 l 521 521 z "},"Ƣ":{"ha":868,"x_min":0,"x_max":0,"o":"m 174 0 l 174 87 l 434 87 l 434 0 z m 87 87 l 87 174 l 174 174 l 174 87 z m 0 174 l 0 521 l 87 521 l 87 174 z m 87 521 l 87 608 l 174 608 l 174 521 z m 174 608 l 174 694 l 434 694 l 434 608 z m 521 -174 l 521 -87 l 608 -87 l 608 521 l 521 521 l 521 87 l 434 87 l 434 608 l 608 608 l 608 694 l 694 694 l 694 -87 l 781 -87 l 781 -174 z "},"ƣ":{"ha":694,"x_min":0,"x_max":0,"o":"m 87 0 l 87 87 l 347 87 l 347 0 z m 0 87 l 0 434 l 87 434 l 87 87 z m 521 -174 l 521 434 l 434 434 l 434 87 l 347 87 l 347 434 l 87 434 l 87 521 l 608 521 l 608 -174 z "},"Ƥ":{"ha":694,"x_min":0,"x_max":0,"o":"m 0 434 l 0 608 l 87 608 l 87 434 z m 521 347 l 521 608 l 608 608 l 608 347 z m 174 0 l 174 608 l 87 608 l 87 694 l 521 694 l 521 608 l 260 608 l 260 347 l 521 347 l 521 260 l 260 260 l 260 0 z "},"ƥ":{"ha":521,"x_min":0,"x_max":0,"o":"m 347 87 l 347 434 l 434 434 l 434 87 z m 0 -174 l 0 694 l 87 694 l 87 521 l 347 521 l 347 434 l 87 434 l 87 87 l 347 87 l 347 0 l 87 0 l 87 -174 z m 87 694 l 87 781 l 260 781 l 260 694 z "},"Ʀ":{"ha":694,"x_min":0,"x_max":0,"o":"m 521 -87 l 521 0 l 608 0 l 608 -87 z m 434 0 l 434 87 l 521 87 l 521 0 z m 347 87 l 347 174 l 434 174 l 434 87 z m 347 347 l 347 608 l 434 608 l 434 347 z m 0 0 l 0 781 l 87 781 l 87 694 l 347 694 l 347 608 l 87 608 l 87 347 l 347 347 l 347 174 l 260 174 l 260 260 l 87 260 l 87 0 z "},"Ƨ":{"ha":521,"x_min":0,"x_max":0,"o":"m 87 0 l 87 87 l 434 87 l 434 0 z m 0 87 l 0 347 l 87 347 l 87 87 z m 87 347 l 87 434 l 347 434 l 347 347 z m 347 434 l 347 608 l 434 608 l 434 434 z m 0 608 l 0 694 l 347 694 l 347 608 z "},"ƨ":{"ha":434,"x_min":0,"x_max":0,"o":"m 87 0 l 87 87 l 347 87 l 347 0 z m 0 87 l 0 260 l 87 260 l 87 87 z m 87 260 l 87 347 l 260 347 l 260 260 z m 260 347 l 260 434 l 347 434 l 347 347 z m 0 434 l 0 521 l 260 521 l 260 434 z "},"Ʃ":{"ha":608,"x_min":0,"x_max":0,"o":"m 0 0 l 0 174 l 87 174 l 87 87 l 521 87 l 521 0 z m 87 174 l 87 260 l 174 260 l 174 174 z m 174 260 l 174 434 l 260 434 l 260 260 z m 87 434 l 87 521 l 174 521 l 174 434 z m 0 521 l 0 694 l 521 694 l 521 608 l 87 608 l 87 521 z "},"ƪ":{"ha":608,"x_min":0,"x_max":0,"o":"m 347 -174 l 347 -87 l 521 -87 l 521 -174 z m 0 521 l 0 694 l 87 694 l 87 521 z m 260 -87 l 260 434 l 87 434 l 87 521 l 260 521 l 260 694 l 347 694 l 347 -87 z m 87 694 l 87 781 l 260 781 l 260 694 z "},"ƫ":{"ha":347,"x_min":0,"x_max":0,"o":"m 0 -174 l 0 -87 l 174 -87 l 174 -174 z m 174 -87 l 174 0 l 87 0 l 87 87 l 260 87 l 260 -87 z m 0 87 l 0 694 l 87 694 l 87 521 l 260 521 l 260 434 l 87 434 l 87 87 z "},"Ƭ":{"ha":521,"x_min":0,"x_max":0,"o":"m -87 434 l -87 608 l 0 608 l 0 434 z m 174 0 l 174 608 l 0 608 l 0 694 l 434 694 l 434 608 l 260 608 l 260 0 z "},"ƭ":{"ha":347,"x_min":0,"x_max":0,"o":"m 87 0 l 87 87 l 260 87 l 260 0 z m 0 87 l 0 694 l 87 694 l 87 521 l 260 521 l 260 434 l 87 434 l 87 87 z m 87 694 l 87 781 l 260 781 l 260 694 z "},"Ʈ":{"ha":521,"x_min":0,"x_max":0,"o":"m 260 -174 l 260 -87 l 434 -87 l 434 -174 z m 174 -87 l 174 608 l 0 608 l 0 694 l 434 694 l 434 608 l 260 608 l 260 -87 z "},"Ư":{"ha":781,"x_min":0,"x_max":0,"o":"m 87 0 l 87 87 l 434 87 l 434 0 z m 0 87 l 0 694 l 87 694 l 87 87 z m 434 87 l 434 694 l 608 694 l 608 608 l 521 608 l 521 87 z m 608 694 l 608 781 l 694 781 l 694 694 z "},"ư":{"ha":694,"x_min":0,"x_max":0,"o":"m 0 87 l 0 521 l 87 521 l 87 87 z m 87 0 l 87 87 l 347 87 l 347 521 l 521 521 l 521 434 l 434 434 l 434 0 z m 521 521 l 521 608 l 608 608 l 608 521 z "},"Ʊ":{"ha":694,"x_min":0,"x_max":0,"o":"m 174 0 l 174 87 l 434 87 l 434 0 z m 87 87 l 87 174 l 174 174 l 174 87 z m 434 87 l 434 174 l 521 174 l 521 87 z m 0 174 l 0 434 l 87 434 l 87 174 z m 521 174 l 521 434 l 608 434 l 608 174 z m 87 434 l 87 521 l 174 521 l 174 434 z m 434 434 l 434 521 l 521 521 l 521 434 z m 174 521 l 174 608 l 0 608 l 0 694 l 260 694 l 260 521 z m 347 521 l 347 694 l 608 694 l 608 608 l 434 608 l 434 521 z "},"Ʋ":{"ha":608,"x_min":0,"x_max":0,"o":"m 87 0 l 87 87 l 347 87 l 347 0 z m 347 87 l 347 174 l 434 174 l 434 87 z m 434 174 l 434 608 l 521 608 l 521 174 z m 0 87 l 0 694 l 87 694 l 87 87 z m 260 608 l 260 694 l 434 694 l 434 608 z "},"Ƴ":{"ha":781,"x_min":0,"x_max":0,"o":"m 434 0 l 434 347 l 521 347 l 521 0 z m 347 347 l 347 434 l 434 434 l 434 347 z m 521 347 l 521 521 l 608 521 l 608 347 z m 0 434 l 0 608 l 87 608 l 87 434 z m 260 434 l 260 608 l 347 608 l 347 434 z m 87 608 l 87 694 l 260 694 l 260 608 z m 608 521 l 608 694 l 694 694 l 694 521 z "},"ƴ":{"ha":694,"x_min":0,"x_max":0,"o":"m 87 -174 l 87 0 l 174 0 l 174 -174 z m 174 0 l 174 174 l 260 174 l 260 0 z m 87 174 l 87 347 l 174 347 l 174 174 z m 260 174 l 260 347 l 347 347 l 347 174 z m 0 347 l 0 521 l 87 521 l 87 347 z m 347 347 l 347 521 l 434 521 l 434 347 z m 434 521 l 434 694 l 608 694 l 608 608 l 521 608 l 521 521 z "},"Ƶ":{"ha":608,"x_min":0,"x_max":0,"o":"m 0 0 l 0 174 l 87 174 l 87 87 l 521 87 l 521 0 z m 87 174 l 87 260 l 174 260 l 174 174 z m 174 260 l 174 347 l 87 347 l 87 434 l 347 434 l 347 521 l 434 521 l 434 347 l 260 347 l 260 260 z m 434 521 l 434 608 l 0 608 l 0 694 l 521 694 l 521 521 z "},"ƶ":{"ha":434,"x_min":0,"x_max":0,"o":"m 0 0 l 0 174 l 87 174 l 87 87 l 347 87 l 347 0 z m 87 174 l 87 260 l 0 260 l 0 347 l 260 347 l 260 434 l 0 434 l 0 521 l 347 521 l 347 260 l 174 260 l 174 174 z "},"Ʒ":{"ha":521,"x_min":0,"x_max":0,"o":"m 87 -174 l 87 -87 l 347 -87 l 347 -174 z m 0 -87 l 0 0 l 87 0 l 87 -87 z m 347 -87 l 347 260 l 434 260 l 434 -87 z m 174 260 l 174 434 l 260 434 l 260 347 l 347 347 l 347 260 z m 260 434 l 260 521 l 347 521 l 347 434 z m 347 521 l 347 608 l 0 608 l 0 694 l 434 694 l 434 521 z "},"Ƹ":{"ha":521,"x_min":0,"x_max":0,"o":"m 87 -174 l 87 -87 l 434 -87 l 434 -174 z m 0 -87 l 0 174 l 87 174 l 87 -87 z m 87 174 l 87 260 l 174 260 l 174 347 l 260 347 l 260 174 z m 87 347 l 87 521 l 174 521 l 174 347 z m 0 521 l 0 608 l -87 608 l -87 694 l 434 694 l 434 608 l 87 608 l 87 521 z "},"ƹ":{"ha":521,"x_min":0,"x_max":0,"o":"m 174 -174 l 174 -87 l 434 -87 l 434 -174 z m 87 -87 l 87 0 l 174 0 l 174 -87 z m 0 0 l 0 260 l 87 260 l 87 0 z m 87 260 l 87 347 l 174 347 l 174 260 z m 174 347 l 174 521 l 260 521 l 260 434 l 347 434 l 347 347 z m 87 521 l 87 608 l 0 608 l 0 694 l 434 694 l 434 608 l 174 608 l 174 521 z "},"ƺ":{"ha":521,"x_min":0,"x_max":0,"o":"m 87 -174 l 87 -87 l 434 -87 l 434 -174 z m 0 -87 l 0 174 l 260 174 l 260 87 l 87 87 l 87 -87 z m 260 174 l 260 347 l 174 347 l 174 521 l 260 521 l 260 434 l 347 434 l 347 174 z m 260 521 l 260 608 l 0 608 l 0 694 l 434 694 l 434 608 l 347 608 l 347 521 z "},"ƻ":{"ha":521,"x_min":0,"x_max":0,"o":"m 0 0 l 0 174 l 87 174 l 87 87 l 434 87 l 434 0 z m 87 174 l 87 260 l 0 260 l 0 347 l 260 347 l 260 434 l 347 434 l 347 347 l 434 347 l 434 260 l 174 260 l 174 174 z m 0 521 l 0 608 l 87 608 l 87 521 z m 347 434 l 347 608 l 434 608 l 434 434 z m 87 608 l 87 694 l 347 694 l 347 608 z "},"Ƽ":{"ha":521,"x_min":0,"x_max":0,"o":"m 87 0 l 87 87 l 347 87 l 347 0 z m 0 87 l 0 174 l 87 174 l 87 87 z m 347 87 l 347 347 l 434 347 l 434 87 z m 0 347 l 0 694 l 434 694 l 434 608 l 87 608 l 87 434 l 347 434 l 347 347 z "},"ƽ":{"ha":434,"x_min":0,"x_max":0,"o":"m 0 0 l 0 87 l 260 87 l 260 0 z m 260 87 l 260 260 l 347 260 l 347 87 z m 0 260 l 0 521 l 347 521 l 347 434 l 87 434 l 87 347 l 260 347 l 260 260 z "},"ƾ":{"ha":521,"x_min":0,"x_max":0,"o":"m 87 0 l 87 87 l 347 87 l 347 0 z m 347 87 l 347 260 l 434 260 l 434 87 z m 174 260 l 174 347 l 347 347 l 347 260 z m 87 347 l 87 434 l 0 434 l 0 521 l 87 521 l 87 694 l 174 694 l 174 521 l 347 521 l 347 434 l 174 434 l 174 347 z "},"ƿ":{"ha":521,"x_min":0,"x_max":0,"o":"m 174 0 l 174 87 l 260 87 l 260 0 z m 260 87 l 260 174 l 347 174 l 347 87 z m 347 174 l 347 434 l 434 434 l 434 174 z m 0 -174 l 0 521 l 347 521 l 347 434 l 87 434 l 87 0 l 174 0 l 174 -87 l 87 -87 l 87 -174 z "},"ǀ":{"ha":174,"x_min":0,"x_max":0,"o":"m 0 -174 l 0 868 l 87 868 l 87 -174 z "},"ǁ":{"ha":347,"x_min":0,"x_max":0,"o":"m 0 -174 l 0 868 l 87 868 l 87 -174 z m 174 -174 l 174 868 l 260 868 l 260 -174 z "},"ǂ":{"ha":694,"x_min":0,"x_max":0,"o":"m 260 -174 l 260 260 l 0 260 l 0 347 l 260 347 l 260 521 l 0 521 l 0 608 l 260 608 l 260 868 l 347 868 l 347 608 l 608 608 l 608 521 l 347 521 l 347 347 l 608 347 l 608 260 l 347 260 l 347 -174 z "},"ǃ":{"ha":174,"x_min":0,"x_max":0,"o":"m 0 0 l 0 174 l 87 174 l 87 0 z m 0 260 l 0 781 l 87 781 l 87 260 z "},"Ǆ":{"ha":1128,"x_min":0,"x_max":0,"o":"m 347 87 l 347 174 l 434 174 l 434 87 z m 608 0 l 608 174 l 694 174 l 694 87 l 1042 87 l 1042 0 z m 694 174 l 694 260 l 781 260 l 781 174 z m 781 260 l 781 434 l 868 434 l 868 260 z m 434 174 l 434 521 l 521 521 l 521 174 z m 868 434 l 868 521 l 955 521 l 955 434 z m 347 521 l 347 608 l 434 608 l 434 521 z m 0 0 l 0 694 l 347 694 l 347 608 l 87 608 l 87 87 l 347 87 l 347 0 z m 955 521 l 955 608 l 608 608 l 608 694 l 1042 694 l 1042 521 z m 781 781 l 781 868 l 955 868 l 955 781 z m 694 868 l 694 955 l 781 955 l 781 868 z m 955 868 l 955 955 l 1042 955 l 1042 868 z "},"ǅ":{"ha":1042,"x_min":0,"x_max":0,"o":"m 347 87 l 347 174 l 434 174 l 434 87 z m 608 0 l 608 174 l 694 174 l 694 87 l 955 87 l 955 0 z m 694 174 l 694 260 l 781 260 l 781 174 z m 781 260 l 781 347 l 868 347 l 868 260 z m 434 174 l 434 521 l 521 521 l 521 174 z m 868 347 l 868 434 l 608 434 l 608 521 l 955 521 l 955 347 z m 347 521 l 347 608 l 434 608 l 434 521 z m 0 0 l 0 694 l 347 694 l 347 608 l 87 608 l 87 87 l 347 87 l 347 0 z m 694 608 l 694 694 l 868 694 l 868 608 z m 608 694 l 608 781 l 694 781 l 694 694 z m 868 694 l 868 781 l 955 781 l 955 694 z "},"ǆ":{"ha":955,"x_min":0,"x_max":0,"o":"m 521 0 l 521 174 l 608 174 l 608 87 l 868 87 l 868 0 z m 608 174 l 608 260 l 694 260 l 694 174 z m 694 260 l 694 347 l 781 347 l 781 260 z m 0 87 l 0 434 l 87 434 l 87 87 z m 781 347 l 781 434 l 521 434 l 521 521 l 868 521 l 868 347 z m 608 608 l 608 694 l 781 694 l 781 608 z m 87 0 l 87 87 l 347 87 l 347 434 l 87 434 l 87 521 l 347 521 l 347 781 l 434 781 l 434 0 z m 521 694 l 521 781 l 608 781 l 608 694 z m 781 694 l 781 781 l 868 781 l 868 694 z "},"Ǉ":{"ha":868,"x_min":0,"x_max":0,"o":"m 0 0 l 0 694 l 87 694 l 87 87 l 694 87 l 694 0 z m 694 87 l 694 608 l 521 608 l 521 694 l 781 694 l 781 87 z "},"ǈ":{"ha":781,"x_min":0,"x_max":0,"o":"m 521 -174 l 521 -87 l 608 -87 l 608 -174 z m 608 -87 l 608 434 l 521 434 l 521 521 l 694 521 l 694 -87 z m 0 0 l 0 694 l 87 694 l 87 87 l 434 87 l 434 0 z m 608 608 l 608 694 l 694 694 l 694 608 z "},"ǉ":{"ha":434,"x_min":0,"x_max":0,"o":"m 174 -174 l 174 -87 l 260 -87 l 260 -174 z m 260 -87 l 260 434 l 174 434 l 174 521 l 347 521 l 347 -87 z m 260 608 l 260 694 l 347 694 l 347 608 z m 0 0 l 0 781 l 87 781 l 87 0 z "},"Ǌ":{"ha":1042,"x_min":0,"x_max":0,"o":"m 608 0 l 608 87 l 868 87 l 868 0 z m 260 174 l 260 347 l 347 347 l 347 174 z m 174 347 l 174 521 l 260 521 l 260 347 z m 0 0 l 0 694 l 174 694 l 174 521 l 87 521 l 87 0 z m 347 0 l 347 174 l 434 174 l 434 694 l 521 694 l 521 0 z m 868 87 l 868 608 l 694 608 l 694 694 l 955 694 l 955 87 z "},"ǋ":{"ha":868,"x_min":0,"x_max":0,"o":"m 608 -174 l 608 -87 l 694 -87 l 694 -174 z m 260 174 l 260 347 l 347 347 l 347 174 z m 174 347 l 174 521 l 260 521 l 260 347 z m 694 -87 l 694 434 l 608 434 l 608 521 l 781 521 l 781 -87 z m 0 0 l 0 694 l 174 694 l 174 521 l 87 521 l 87 0 z m 347 0 l 347 174 l 434 174 l 434 694 l 521 694 l 521 0 z m 694 608 l 694 694 l 781 694 l 781 608 z "},"ǌ":{"ha":781,"x_min":0,"x_max":0,"o":"m 521 -174 l 521 -87 l 608 -87 l 608 -174 z m 347 0 l 347 434 l 434 434 l 434 0 z m 0 0 l 0 521 l 347 521 l 347 434 l 87 434 l 87 0 z m 608 -87 l 608 434 l 521 434 l 521 521 l 694 521 l 694 -87 z m 608 608 l 608 694 l 694 694 l 694 608 z "},"Ǎ":{"ha":608,"x_min":0,"x_max":0,"o":"m 0 0 l 0 260 l 87 260 l 87 521 l 174 521 l 174 260 l 347 260 l 347 521 l 434 521 l 434 260 l 521 260 l 521 0 l 434 0 l 434 174 l 87 174 l 87 0 z m 174 521 l 174 694 l 347 694 l 347 521 z m 174 781 l 174 868 l 347 868 l 347 781 z m 87 868 l 87 955 l 174 955 l 174 868 z m 347 868 l 347 955 l 434 955 l 434 868 z "},"ǎ":{"ha":521,"x_min":0,"x_max":0,"o":"m 0 87 l 0 260 l 87 260 l 87 87 z m 87 0 l 87 87 l 347 87 l 347 260 l 87 260 l 87 347 l 347 347 l 347 434 l 434 434 l 434 0 z m 87 434 l 87 521 l 347 521 l 347 434 z m 174 608 l 174 694 l 347 694 l 347 608 z m 87 694 l 87 781 l 174 781 l 174 694 z m 347 694 l 347 781 l 434 781 l 434 694 z "},"Ǐ":{"ha":434,"x_min":0,"x_max":0,"o":"m 0 0 l 0 87 l 87 87 l 87 608 l 0 608 l 0 694 l 260 694 l 260 608 l 174 608 l 174 87 l 260 87 l 260 0 z m 87 781 l 87 868 l 260 868 l 260 781 z m 0 868 l 0 955 l 87 955 l 87 868 z m 260 868 l 260 955 l 347 955 l 347 868 z "},"ǐ":{"ha":347,"x_min":0,"x_max":0,"o":"m 0 0 l 0 521 l 87 521 l 87 0 z m 0 608 l 0 694 l 174 694 l 174 608 z m -87 694 l -87 781 l 0 781 l 0 694 z m 174 694 l 174 781 l 260 781 l 260 694 z "},"Ǒ":{"ha":694,"x_min":0,"x_max":0,"o":"m 174 0 l 174 87 l 434 87 l 434 0 z m 87 87 l 87 174 l 174 174 l 174 87 z m 434 87 l 434 174 l 521 174 l 521 87 z m 0 174 l 0 521 l 87 521 l 87 174 z m 521 174 l 521 521 l 608 521 l 608 174 z m 87 521 l 87 608 l 174 608 l 174 521 z m 434 521 l 434 608 l 521 608 l 521 521 z m 174 608 l 174 694 l 434 694 l 434 608 z m 260 781 l 260 868 l 434 868 l 434 781 z m 174 868 l 174 955 l 260 955 l 260 868 z m 434 868 l 434 955 l 521 955 l 521 868 z "},"ǒ":{"ha":521,"x_min":0,"x_max":0,"o":"m 87 0 l 87 87 l 347 87 l 347 0 z m 0 87 l 0 434 l 87 434 l 87 87 z m 347 87 l 347 434 l 434 434 l 434 87 z m 87 434 l 87 521 l 347 521 l 347 434 z m 174 608 l 174 694 l 347 694 l 347 608 z m 87 694 l 87 781 l 174 781 l 174 694 z m 347 694 l 347 781 l 434 781 l 434 694 z "},"Ǔ":{"ha":608,"x_min":0,"x_max":0,"o":"m 87 0 l 87 87 l 434 87 l 434 0 z m 0 87 l 0 694 l 87 694 l 87 87 z m 434 87 l 434 694 l 521 694 l 521 87 z m 174 781 l 174 868 l 347 868 l 347 781 z m 87 868 l 87 955 l 174 955 l 174 868 z m 347 868 l 347 955 l 434 955 l 434 868 z "},"ǔ":{"ha":521,"x_min":0,"x_max":0,"o":"m 0 87 l 0 521 l 87 521 l 87 87 z m 87 0 l 87 87 l 347 87 l 347 521 l 434 521 l 434 0 z m 174 608 l 174 694 l 347 694 l 347 608 z m 87 694 l 87 781 l 174 781 l 174 694 z m 347 694 l 347 781 l 434 781 l 434 694 z "},"Ǖ":{"ha":608,"x_min":0,"x_max":0,"o":"m 87 0 l 87 87 l 434 87 l 434 0 z m 0 87 l 0 694 l 87 694 l 87 87 z m 434 87 l 434 694 l 521 694 l 521 87 z m 174 694 l 174 781 l 260 781 l 260 694 z m 347 694 l 347 781 l 434 781 l 434 694 z m 87 868 l 87 955 l 434 955 l 434 868 z "},"ǖ":{"ha":521,"x_min":0,"x_max":0,"o":"m 0 87 l 0 521 l 87 521 l 87 87 z m 87 0 l 87 87 l 347 87 l 347 521 l 434 521 l 434 0 z m 87 608 l 87 694 l 174 694 l 174 608 z m 260 608 l 260 694 l 347 694 l 347 608 z m 87 781 l 87 868 l 434 868 l 434 781 z "},"Ǘ":{"ha":608,"x_min":0,"x_max":0,"o":"m 87 0 l 87 87 l 434 87 l 434 0 z m 0 87 l 0 694 l 87 694 l 87 87 z m 434 87 l 434 694 l 521 694 l 521 87 z m 174 694 l 174 781 l 260 781 l 260 694 z m 347 694 l 347 781 l 434 781 l 434 694 z m 260 781 l 260 868 l 347 868 l 347 781 z m 347 868 l 347 955 l 434 955 l 434 868 z "},"ǘ":{"ha":521,"x_min":0,"x_max":0,"o":"m 0 87 l 0 521 l 87 521 l 87 87 z m 87 0 l 87 87 l 347 87 l 347 521 l 434 521 l 434 0 z m 87 608 l 87 694 l 174 694 l 174 608 z m 260 608 l 260 694 l 347 694 l 347 608 z m 174 781 l 174 868 l 260 868 l 260 781 z m 260 868 l 260 955 l 347 955 l 347 868 z "},"Ǚ":{"ha":608,"x_min":0,"x_max":0,"o":"m 87 0 l 87 87 l 434 87 l 434 0 z m 0 87 l 0 694 l 87 694 l 87 87 z m 434 87 l 434 694 l 521 694 l 521 87 z m 174 694 l 174 781 l 260 781 l 260 694 z m 347 694 l 347 781 l 434 781 l 434 694 z m 260 781 l 260 868 l 347 868 l 347 781 z m 174 868 l 174 955 l 260 955 l 260 868 z m 347 868 l 347 955 l 434 955 l 434 868 z "},"ǚ":{"ha":521,"x_min":0,"x_max":0,"o":"m 0 87 l 0 521 l 87 521 l 87 87 z m 87 0 l 87 87 l 347 87 l 347 521 l 434 521 l 434 0 z m 87 608 l 87 694 l 174 694 l 174 608 z m 260 608 l 260 694 l 347 694 l 347 608 z m 174 781 l 174 868 l 347 868 l 347 781 z m 87 868 l 87 955 l 174 955 l 174 868 z m 347 868 l 347 955 l 434 955 l 434 868 z "},"Ǜ":{"ha":608,"x_min":0,"x_max":0,"o":"m 87 0 l 87 87 l 434 87 l 434 0 z m 0 87 l 0 694 l 87 694 l 87 87 z m 434 87 l 434 694 l 521 694 l 521 87 z m 174 694 l 174 781 l 260 781 l 260 694 z m 347 694 l 347 781 l 434 781 l 434 694 z m 260 781 l 260 868 l 347 868 l 347 781 z m 174 868 l 174 955 l 260 955 l 260 868 z "},"ǜ":{"ha":521,"x_min":0,"x_max":0,"o":"m 0 87 l 0 521 l 87 521 l 87 87 z m 87 0 l 87 87 l 347 87 l 347 521 l 434 521 l 434 0 z m 87 608 l 87 694 l 174 694 l 174 608 z m 260 608 l 260 694 l 347 694 l 347 608 z m 174 781 l 174 868 l 260 868 l 260 781 z m 87 868 l 87 955 l 174 955 l 174 868 z "},"ǝ":{"ha":521,"x_min":0,"x_max":0,"o":"m 87 0 l 87 87 l 347 87 l 347 0 z m 0 347 l 0 434 l 87 434 l 87 347 z m 0 87 l 0 260 l 347 260 l 347 434 l 434 434 l 434 87 l 347 87 l 347 174 l 87 174 l 87 87 z m 87 434 l 87 521 l 347 521 l 347 434 z "},"Ǟ":{"ha":608,"x_min":0,"x_max":0,"o":"m 0 0 l 0 260 l 87 260 l 87 521 l 174 521 l 174 260 l 347 260 l 347 521 l 434 521 l 434 260 l 521 260 l 521 0 l 434 0 l 434 174 l 87 174 l 87 0 z m 174 521 l 174 694 l 347 694 l 347 521 z m 87 694 l 87 781 l 174 781 l 174 694 z m 347 694 l 347 781 l 434 781 l 434 694 z m 87 868 l 87 955 l 434 955 l 434 868 z "},"ǟ":{"ha":521,"x_min":0,"x_max":0,"o":"m 0 87 l 0 260 l 87 260 l 87 87 z m 87 0 l 87 87 l 347 87 l 347 260 l 87 260 l 87 347 l 347 347 l 347 434 l 434 434 l 434 0 z m 87 434 l 87 521 l 347 521 l 347 434 z m 87 608 l 87 694 l 174 694 l 174 608 z m 347 608 l 347 694 l 434 694 l 434 608 z m 87 781 l 87 868 l 434 868 l 434 781 z "},"Ǡ":{"ha":608,"x_min":0,"x_max":0,"o":"m 0 0 l 0 260 l 87 260 l 87 521 l 174 521 l 174 260 l 347 260 l 347 521 l 434 521 l 434 260 l 521 260 l 521 0 l 434 0 l 434 174 l 87 174 l 87 0 z m 174 521 l 174 694 l 260 694 l 260 781 l 347 781 l 347 521 z m 87 868 l 87 955 l 434 955 l 434 868 z "},"ǡ":{"ha":521,"x_min":0,"x_max":0,"o":"m 0 87 l 0 260 l 87 260 l 87 87 z m 87 0 l 87 87 l 347 87 l 347 260 l 87 260 l 87 347 l 347 347 l 347 434 l 434 434 l 434 0 z m 87 434 l 87 521 l 347 521 l 347 434 z m 174 608 l 174 694 l 260 694 l 260 608 z m 87 781 l 87 868 l 434 868 l 434 781 z "},"Ǣ":{"ha":868,"x_min":0,"x_max":0,"o":"m 0 0 l 0 260 l 87 260 l 87 0 z m 347 0 l 347 260 l 87 260 l 87 521 l 174 521 l 174 347 l 347 347 l 347 608 l 260 608 l 260 521 l 174 521 l 174 694 l 781 694 l 781 608 l 434 608 l 434 434 l 694 434 l 694 347 l 434 347 l 434 87 l 781 87 l 781 0 z m 347 781 l 347 868 l 694 868 l 694 781 z "},"ǣ":{"ha":868,"x_min":0,"x_max":0,"o":"m 87 0 l 87 87 l 347 87 l 347 0 z m 521 0 l 521 87 l 694 87 l 694 0 z m 694 87 l 694 174 l 781 174 l 781 87 z m 0 87 l 0 260 l 87 260 l 87 87 z m 347 87 l 347 260 l 87 260 l 87 347 l 347 347 l 347 434 l 434 434 l 434 347 l 694 347 l 694 434 l 781 434 l 781 260 l 434 260 l 434 174 l 521 174 l 521 87 z m 87 434 l 87 521 l 347 521 l 347 434 z m 434 434 l 434 521 l 694 521 l 694 434 z m 260 608 l 260 694 l 608 694 l 608 608 z "},"Ǥ":{"ha":694,"x_min":0,"x_max":0,"o":"m 87 87 l 87 174 l 174 174 l 174 87 z m 174 0 l 174 87 l 434 87 l 434 174 l 260 174 l 260 260 l 434 260 l 434 347 l 260 347 l 260 434 l 521 434 l 521 260 l 608 260 l 608 174 l 521 174 l 521 0 z m 0 174 l 0 521 l 87 521 l 87 174 z m 87 521 l 87 608 l 174 608 l 174 521 z m 174 608 l 174 694 l 521 694 l 521 608 z "},"ǥ":{"ha":521,"x_min":0,"x_max":0,"o":"m 87 -174 l 87 -87 l 347 -87 l 347 -174 z m 0 260 l 0 434 l 87 434 l 87 260 z m 347 -87 l 347 0 l 0 0 l 0 87 l 347 87 l 347 174 l 87 174 l 87 260 l 347 260 l 347 434 l 87 434 l 87 521 l 434 521 l 434 -87 z "},"Ǧ":{"ha":608,"x_min":0,"x_max":0,"o":"m 87 87 l 87 174 l 174 174 l 174 87 z m 174 0 l 174 87 l 434 87 l 434 260 l 260 260 l 260 347 l 521 347 l 521 0 z m 0 174 l 0 521 l 87 521 l 87 174 z m 87 521 l 87 608 l 174 608 l 174 521 z m 174 608 l 174 694 l 521 694 l 521 608 z m 260 781 l 260 868 l 434 868 l 434 781 z m 174 868 l 174 955 l 260 955 l 260 868 z m 434 868 l 434 955 l 521 955 l 521 868 z "},"ǧ":{"ha":521,"x_min":0,"x_max":0,"o":"m 87 -174 l 87 -87 l 347 -87 l 347 -174 z m 0 87 l 0 434 l 87 434 l 87 87 z m 347 -87 l 347 0 l 87 0 l 87 87 l 347 87 l 347 434 l 87 434 l 87 521 l 434 521 l 434 -87 z m 174 608 l 174 694 l 347 694 l 347 608 z m 87 694 l 87 781 l 174 781 l 174 694 z m 347 694 l 347 781 l 434 781 l 434 694 z "},"Ǩ":{"ha":521,"x_min":0,"x_max":0,"o":"m 347 0 l 347 87 l 434 87 l 434 0 z m 260 87 l 260 174 l 347 174 l 347 87 z m 174 174 l 174 260 l 260 260 l 260 174 z m 174 434 l 174 521 l 260 521 l 260 434 z m 260 521 l 260 608 l 347 608 l 347 521 z m 0 0 l 0 694 l 87 694 l 87 434 l 174 434 l 174 260 l 87 260 l 87 0 z m 347 608 l 347 694 l 434 694 l 434 608 z m 87 781 l 87 868 l 260 868 l 260 781 z m 0 868 l 0 955 l 87 955 l 87 868 z m 260 868 l 260 955 l 347 955 l 347 868 z "},"ǩ":{"ha":521,"x_min":0,"x_max":0,"o":"m 347 0 l 347 87 l 434 87 l 434 0 z m 260 87 l 260 174 l 347 174 l 347 87 z m 174 174 l 174 260 l 260 260 l 260 174 z m 174 347 l 174 434 l 260 434 l 260 347 z m 260 434 l 260 521 l 347 521 l 347 434 z m 0 0 l 0 781 l 87 781 l 87 347 l 174 347 l 174 260 l 87 260 l 87 0 z m 174 781 l 174 868 l 347 868 l 347 781 z m 87 868 l 87 955 l 174 955 l 174 868 z m 347 868 l 347 955 l 434 955 l 434 868 z "},"Ǫ":{"ha":694,"x_min":0,"x_max":0,"o":"m 347 -174 l 347 -87 l 521 -87 l 521 -174 z m 260 -87 l 260 0 l 174 0 l 174 87 l 434 87 l 434 0 l 347 0 l 347 -87 z m 87 87 l 87 174 l 174 174 l 174 87 z m 434 87 l 434 174 l 521 174 l 521 87 z m 0 174 l 0 521 l 87 521 l 87 174 z m 521 174 l 521 521 l 608 521 l 608 174 z m 87 521 l 87 608 l 174 608 l 174 521 z m 434 521 l 434 608 l 521 608 l 521 521 z m 174 608 l 174 694 l 434 694 l 434 608 z "},"ǫ":{"ha":521,"x_min":0,"x_max":0,"o":"m 260 -174 l 260 -87 l 434 -87 l 434 -174 z m 174 -87 l 174 0 l 87 0 l 87 87 l 347 87 l 347 0 l 260 0 l 260 -87 z m 0 87 l 0 434 l 87 434 l 87 87 z m 347 87 l 347 434 l 434 434 l 434 87 z m 87 434 l 87 521 l 347 521 l 347 434 z "},"Ǭ":{"ha":694,"x_min":0,"x_max":0,"o":"m 260 -174 l 260 0 l 174 0 l 174 87 l 434 87 l 434 0 l 347 0 l 347 -87 l 434 -87 l 434 -174 z m 87 87 l 87 174 l 174 174 l 174 87 z m 434 87 l 434 174 l 521 174 l 521 87 z m 0 174 l 0 521 l 87 521 l 87 174 z m 521 174 l 521 521 l 608 521 l 608 174 z m 87 521 l 87 608 l 174 608 l 174 521 z m 434 521 l 434 608 l 521 608 l 521 521 z m 174 608 l 174 694 l 434 694 l 434 608 z "},"ǭ":{"ha":521,"x_min":0,"x_max":0,"o":"m 174 -174 l 174 0 l 87 0 l 87 87 l 347 87 l 347 0 l 260 0 l 260 -87 l 347 -87 l 347 -174 z m 0 87 l 0 434 l 87 434 l 87 87 z m 347 87 l 347 434 l 434 434 l 434 87 z m 87 434 l 87 521 l 347 521 l 347 434 z "},"Ǯ":{"ha":521,"x_min":0,"x_max":0,"o":"m 87 -174 l 87 -87 l 347 -87 l 347 -174 z m 0 -87 l 0 0 l 87 0 l 87 -87 z m 347 -87 l 347 260 l 434 260 l 434 -87 z m 174 260 l 174 434 l 260 434 l 260 347 l 347 347 l 347 260 z m 260 434 l 260 521 l 347 521 l 347 434 z m 347 521 l 347 608 l 0 608 l 0 694 l 434 694 l 434 521 z m 174 781 l 174 868 l 347 868 l 347 781 z m 87 868 l 87 955 l 174 955 l 174 868 z m 347 868 l 347 955 l 434 955 l 434 868 z "},"ǯ":{"ha":434,"x_min":0,"x_max":0,"o":"m 0 -174 l 0 -87 l 260 -87 l 260 -174 z m 260 -87 l 260 174 l 347 174 l 347 -87 z m 87 174 l 87 260 l 174 260 l 174 347 l 260 347 l 260 174 z m 260 347 l 260 434 l 0 434 l 0 521 l 347 521 l 347 347 z m 87 608 l 87 694 l 260 694 l 260 608 z m 0 694 l 0 781 l 87 781 l 87 694 z m 260 694 l 260 781 l 347 781 l 347 694 z "},"ǰ":{"ha":347,"x_min":0,"x_max":0,"o":"m 0 -174 l 0 -87 l 87 -87 l 87 -174 z m 87 -87 l 87 434 l 0 434 l 0 521 l 174 521 l 174 -87 z m 0 608 l 0 694 l 174 694 l 174 608 z m -87 694 l -87 781 l 0 781 l 0 694 z m 174 694 l 174 781 l 260 781 l 260 694 z "},"Ǳ":{"ha":1128,"x_min":0,"x_max":0,"o":"m 347 87 l 347 174 l 434 174 l 434 87 z m 608 0 l 608 174 l 694 174 l 694 87 l 1042 87 l 1042 0 z m 694 174 l 694 260 l 781 260 l 781 174 z m 781 260 l 781 434 l 868 434 l 868 260 z m 434 174 l 434 521 l 521 521 l 521 174 z m 868 434 l 868 521 l 955 521 l 955 434 z m 347 521 l 347 608 l 434 608 l 434 521 z m 0 0 l 0 694 l 347 694 l 347 608 l 87 608 l 87 87 l 347 87 l 347 0 z m 955 521 l 955 608 l 608 608 l 608 694 l 1042 694 l 1042 521 z "},"ǲ":{"ha":1042,"x_min":0,"x_max":0,"o":"m 347 87 l 347 174 l 434 174 l 434 87 z m 608 0 l 608 174 l 694 174 l 694 87 l 955 87 l 955 0 z m 694 174 l 694 260 l 781 260 l 781 174 z m 781 260 l 781 347 l 868 347 l 868 260 z m 434 174 l 434 521 l 521 521 l 521 174 z m 868 347 l 868 434 l 608 434 l 608 521 l 955 521 l 955 347 z m 347 521 l 347 608 l 434 608 l 434 521 z m 0 0 l 0 694 l 347 694 l 347 608 l 87 608 l 87 87 l 347 87 l 347 0 z "},"ǳ":{"ha":955,"x_min":0,"x_max":0,"o":"m 521 0 l 521 174 l 608 174 l 608 87 l 868 87 l 868 0 z m 608 174 l 608 260 l 694 260 l 694 174 z m 694 260 l 694 347 l 781 347 l 781 260 z m 0 87 l 0 434 l 87 434 l 87 87 z m 781 347 l 781 434 l 521 434 l 521 521 l 868 521 l 868 347 z m 87 0 l 87 87 l 347 87 l 347 434 l 87 434 l 87 521 l 347 521 l 347 781 l 434 781 l 434 0 z "},"Ǵ":{"ha":608,"x_min":0,"x_max":0,"o":"m 87 87 l 87 174 l 174 174 l 174 87 z m 174 0 l 174 87 l 434 87 l 434 260 l 260 260 l 260 347 l 521 347 l 521 0 z m 0 174 l 0 521 l 87 521 l 87 174 z m 87 521 l 87 608 l 174 608 l 174 521 z m 174 608 l 174 694 l 521 694 l 521 608 z m 260 781 l 260 868 l 347 868 l 347 781 z m 347 868 l 347 955 l 434 955 l 434 868 z "},"ǵ":{"ha":521,"x_min":0,"x_max":0,"o":"m 87 -174 l 87 -87 l 347 -87 l 347 -174 z m 0 87 l 0 434 l 87 434 l 87 87 z m 347 -87 l 347 0 l 87 0 l 87 87 l 347 87 l 347 434 l 87 434 l 87 521 l 434 521 l 434 -87 z m 174 608 l 174 694 l 260 694 l 260 608 z m 260 694 l 260 781 l 347 781 l 347 694 z "},"Ƕ":{"ha":955,"x_min":0,"x_max":0,"o":"m 521 0 l 521 87 l 781 87 l 781 0 z m 781 87 l 781 521 l 868 521 l 868 87 z m 0 0 l 0 694 l 87 694 l 87 434 l 434 434 l 434 694 l 521 694 l 521 87 l 434 87 l 434 347 l 87 347 l 87 0 z "},"Ƿ":{"ha":521,"x_min":0,"x_max":0,"o":"m 174 87 l 174 174 l 260 174 l 260 87 z m 260 174 l 260 260 l 347 260 l 347 174 z m 347 260 l 347 608 l 434 608 l 434 260 z m 0 -174 l 0 694 l 87 694 l 87 608 l 174 608 l 174 521 l 87 521 l 87 87 l 174 87 l 174 0 l 87 0 l 87 -174 z m 174 608 l 174 694 l 347 694 l 347 608 z "},"Ǹ":{"ha":608,"x_min":0,"x_max":0,"o":"m 260 174 l 260 347 l 347 347 l 347 174 z m 174 347 l 174 521 l 260 521 l 260 347 z m 0 0 l 0 694 l 174 694 l 174 521 l 87 521 l 87 0 z m 347 0 l 347 174 l 434 174 l 434 694 l 521 694 l 521 0 z m 260 781 l 260 868 l 347 868 l 347 781 z m 174 868 l 174 955 l 260 955 l 260 868 z "},"ǹ":{"ha":521,"x_min":0,"x_max":0,"o":"m 347 0 l 347 434 l 434 434 l 434 0 z m 0 0 l 0 521 l 347 521 l 347 434 l 87 434 l 87 0 z m 174 608 l 174 694 l 260 694 l 260 608 z m 87 694 l 87 781 l 174 781 l 174 694 z "},"Ǻ":{"ha":608,"x_min":0,"x_max":0,"o":"m 0 0 l 0 260 l 87 260 l 87 521 l 174 521 l 174 260 l 347 260 l 347 521 l 434 521 l 434 260 l 521 260 l 521 0 l 434 0 l 434 174 l 87 174 l 87 0 z m 174 521 l 174 694 l 347 694 l 347 521 z m 87 694 l 87 868 l 174 868 l 174 955 l 260 955 l 260 868 l 434 868 l 434 694 l 347 694 l 347 781 l 174 781 l 174 694 z "},"ǻ":{"ha":521,"x_min":0,"x_max":0,"o":"m 0 87 l 0 260 l 87 260 l 87 87 z m 87 0 l 87 87 l 347 87 l 347 260 l 87 260 l 87 347 l 347 347 l 347 434 l 434 434 l 434 0 z m 87 434 l 87 521 l 174 521 l 174 608 l 260 608 l 260 521 l 347 521 l 347 434 z m 347 521 l 347 608 l 434 608 l 434 521 z m 260 608 l 260 694 l 347 694 l 347 608 z m 174 694 l 174 781 l 260 781 l 260 694 z "},"Ǽ":{"ha":868,"x_min":0,"x_max":0,"o":"m 0 0 l 0 260 l 87 260 l 87 0 z m 347 0 l 347 260 l 87 260 l 87 521 l 174 521 l 174 347 l 347 347 l 347 608 l 260 608 l 260 521 l 174 521 l 174 694 l 781 694 l 781 608 l 434 608 l 434 434 l 694 434 l 694 347 l 434 347 l 434 87 l 781 87 l 781 0 z m 434 781 l 434 868 l 521 868 l 521 781 z m 521 868 l 521 955 l 608 955 l 608 868 z "},"ǽ":{"ha":868,"x_min":0,"x_max":0,"o":"m 87 0 l 87 87 l 347 87 l 347 0 z m 521 0 l 521 87 l 694 87 l 694 0 z m 694 87 l 694 174 l 781 174 l 781 87 z m 0 87 l 0 260 l 87 260 l 87 87 z m 347 87 l 347 260 l 87 260 l 87 347 l 347 347 l 347 434 l 434 434 l 434 347 l 694 347 l 694 434 l 781 434 l 781 260 l 434 260 l 434 174 l 521 174 l 521 87 z m 87 434 l 87 521 l 347 521 l 347 434 z m 434 434 l 434 521 l 694 521 l 694 434 z m 347 608 l 347 694 l 434 694 l 434 608 z m 434 694 l 434 781 l 521 781 l 521 694 z "},"Ǿ":{"ha":694,"x_min":0,"x_max":0,"o":"m 0 0 l 0 87 l 87 87 l 87 0 z m 174 0 l 174 87 l 434 87 l 434 0 z m 87 87 l 87 174 l 174 174 l 174 87 z m 434 87 l 434 174 l 521 174 l 521 87 z m 174 174 l 174 260 l 260 260 l 260 174 z m 260 260 l 260 434 l 347 434 l 347 260 z m 0 174 l 0 521 l 87 521 l 87 174 z m 347 434 l 347 521 l 434 521 l 434 434 z m 521 174 l 521 521 l 608 521 l 608 174 z m 87 521 l 87 608 l 174 608 l 174 521 z m 434 521 l 434 608 l 521 608 l 521 521 z m 174 608 l 174 694 l 434 694 l 434 608 z m 521 608 l 521 694 l 608 694 l 608 608 z m 174 781 l 174 868 l 260 868 l 260 781 z m 260 868 l 260 955 l 347 955 l 347 868 z "},"ǿ":{"ha":521,"x_min":0,"x_max":0,"o":"m 0 -87 l 0 0 l 87 0 l 87 -87 z m 174 174 l 174 347 l 260 347 l 260 174 z m 87 0 l 87 87 l 0 87 l 0 434 l 87 434 l 87 174 l 174 174 l 174 87 l 347 87 l 347 0 z m 347 87 l 347 347 l 260 347 l 260 434 l 87 434 l 87 521 l 347 521 l 347 434 l 434 434 l 434 87 z m 347 521 l 347 608 l 434 608 l 434 521 z m 174 608 l 174 694 l 260 694 l 260 608 z m 260 694 l 260 781 l 347 781 l 347 694 z "},"Ȁ":{"ha":608,"x_min":0,"x_max":0,"o":"m 0 0 l 0 260 l 87 260 l 87 521 l 174 521 l 174 260 l 347 260 l 347 521 l 434 521 l 434 260 l 521 260 l 521 0 l 434 0 l 434 174 l 87 174 l 87 0 z m 174 521 l 174 694 l 347 694 l 347 521 z m 174 781 l 174 868 l 260 868 l 260 781 z m 347 781 l 347 868 l 434 868 l 434 781 z m 87 868 l 87 955 l 174 955 l 174 868 z m 260 868 l 260 955 l 347 955 l 347 868 z "},"ȁ":{"ha":521,"x_min":0,"x_max":0,"o":"m 0 87 l 0 260 l 87 260 l 87 87 z m 87 0 l 87 87 l 347 87 l 347 260 l 87 260 l 87 347 l 347 347 l 347 434 l 434 434 l 434 0 z m 87 434 l 87 521 l 347 521 l 347 434 z m 174 608 l 174 694 l 260 694 l 260 608 z m 347 608 l 347 694 l 434 694 l 434 608 z m 87 694 l 87 781 l 174 781 l 174 694 z m 260 694 l 260 781 l 347 781 l 347 694 z "},"Ȃ":{"ha":608,"x_min":0,"x_max":0,"o":"m 0 0 l 0 260 l 87 260 l 87 521 l 174 521 l 174 260 l 347 260 l 347 521 l 434 521 l 434 260 l 521 260 l 521 0 l 434 0 l 434 174 l 87 174 l 87 0 z m 174 521 l 174 694 l 347 694 l 347 521 z m 87 781 l 87 868 l 174 868 l 174 781 z m 347 781 l 347 868 l 434 868 l 434 781 z m 174 868 l 174 955 l 347 955 l 347 868 z "},"ȃ":{"ha":521,"x_min":0,"x_max":0,"o":"m 0 87 l 0 260 l 87 260 l 87 87 z m 87 0 l 87 87 l 347 87 l 347 260 l 87 260 l 87 347 l 347 347 l 347 434 l 434 434 l 434 0 z m 87 434 l 87 521 l 347 521 l 347 434 z m 87 608 l 87 694 l 174 694 l 174 608 z m 347 608 l 347 694 l 434 694 l 434 608 z m 174 694 l 174 781 l 347 781 l 347 694 z "},"Ȅ":{"ha":521,"x_min":0,"x_max":0,"o":"m 0 0 l 0 694 l 434 694 l 434 608 l 87 608 l 87 434 l 347 434 l 347 347 l 87 347 l 87 87 l 434 87 l 434 0 z m 174 781 l 174 868 l 260 868 l 260 781 z m 347 781 l 347 868 l 434 868 l 434 781 z m 87 868 l 87 955 l 174 955 l 174 868 z m 260 868 l 260 955 l 347 955 l 347 868 z "},"ȅ":{"ha":521,"x_min":0,"x_max":0,"o":"m 87 0 l 87 87 l 347 87 l 347 0 z m 347 87 l 347 174 l 434 174 l 434 87 z m 0 87 l 0 434 l 87 434 l 87 347 l 347 347 l 347 434 l 434 434 l 434 260 l 87 260 l 87 87 z m 87 434 l 87 521 l 347 521 l 347 434 z m 174 608 l 174 694 l 260 694 l 260 608 z m 347 608 l 347 694 l 434 694 l 434 608 z m 87 694 l 87 781 l 174 781 l 174 694 z m 260 694 l 260 781 l 347 781 l 347 694 z "},"Ȇ":{"ha":521,"x_min":0,"x_max":0,"o":"m 0 0 l 0 694 l 434 694 l 434 608 l 87 608 l 87 434 l 347 434 l 347 347 l 87 347 l 87 87 l 434 87 l 434 0 z m 87 781 l 87 868 l 174 868 l 174 781 z m 347 781 l 347 868 l 434 868 l 434 781 z m 174 868 l 174 955 l 347 955 l 347 868 z "},"ȇ":{"ha":521,"x_min":0,"x_max":0,"o":"m 87 0 l 87 87 l 347 87 l 347 0 z m 347 87 l 347 174 l 434 174 l 434 87 z m 0 87 l 0 434 l 87 434 l 87 347 l 347 347 l 347 434 l 434 434 l 434 260 l 87 260 l 87 87 z m 87 434 l 87 521 l 347 521 l 347 434 z m 87 608 l 87 694 l 174 694 l 174 608 z m 347 608 l 347 694 l 434 694 l 434 608 z m 174 694 l 174 781 l 347 781 l 347 694 z "},"Ȉ":{"ha":347,"x_min":0,"x_max":0,"o":"m 0 0 l 0 87 l 87 87 l 87 608 l 0 608 l 0 694 l 260 694 l 260 608 l 174 608 l 174 87 l 260 87 l 260 0 z m 0 781 l 0 868 l 87 868 l 87 781 z m 174 781 l 174 868 l 260 868 l 260 781 z m -87 868 l -87 955 l 0 955 l 0 868 z m 87 868 l 87 955 l 174 955 l 174 868 z "},"ȉ":{"ha":347,"x_min":0,"x_max":0,"o":"m 0 0 l 0 521 l 87 521 l 87 0 z m 0 608 l 0 694 l 87 694 l 87 608 z m 174 608 l 174 694 l 260 694 l 260 608 z m -87 694 l -87 781 l 0 781 l 0 694 z m 87 694 l 87 781 l 174 781 l 174 694 z "},"Ȋ":{"ha":434,"x_min":0,"x_max":0,"o":"m 0 0 l 0 87 l 87 87 l 87 608 l 0 608 l 0 694 l 260 694 l 260 608 l 174 608 l 174 87 l 260 87 l 260 0 z m 0 781 l 0 868 l 87 868 l 87 781 z m 260 781 l 260 868 l 347 868 l 347 781 z m 87 868 l 87 955 l 260 955 l 260 868 z "},"ȋ":{"ha":347,"x_min":0,"x_max":0,"o":"m 0 0 l 0 521 l 87 521 l 87 0 z m -87 608 l -87 694 l 0 694 l 0 608 z m 174 608 l 174 694 l 260 694 l 260 608 z m 0 694 l 0 781 l 174 781 l 174 694 z "},"Ȍ":{"ha":694,"x_min":0,"x_max":0,"o":"m 174 0 l 174 87 l 434 87 l 434 0 z m 87 87 l 87 174 l 174 174 l 174 87 z m 434 87 l 434 174 l 521 174 l 521 87 z m 0 174 l 0 521 l 87 521 l 87 174 z m 521 174 l 521 521 l 608 521 l 608 174 z m 87 521 l 87 608 l 174 608 l 174 521 z m 434 521 l 434 608 l 521 608 l 521 521 z m 174 608 l 174 694 l 434 694 l 434 608 z m 174 781 l 174 868 l 260 868 l 260 781 z m 347 781 l 347 868 l 434 868 l 434 781 z m 87 868 l 87 955 l 174 955 l 174 868 z m 260 868 l 260 955 l 347 955 l 347 868 z "},"ȍ":{"ha":521,"x_min":0,"x_max":0,"o":"m 87 0 l 87 87 l 347 87 l 347 0 z m 0 87 l 0 434 l 87 434 l 87 87 z m 347 87 l 347 434 l 434 434 l 434 87 z m 87 434 l 87 521 l 347 521 l 347 434 z m 174 608 l 174 694 l 260 694 l 260 608 z m 347 608 l 347 694 l 434 694 l 434 608 z m 87 694 l 87 781 l 174 781 l 174 694 z m 260 694 l 260 781 l 347 781 l 347 694 z "},"Ȏ":{"ha":694,"x_min":0,"x_max":0,"o":"m 174 0 l 174 87 l 434 87 l 434 0 z m 87 87 l 87 174 l 174 174 l 174 87 z m 434 87 l 434 174 l 521 174 l 521 87 z m 0 174 l 0 521 l 87 521 l 87 174 z m 521 174 l 521 521 l 608 521 l 608 174 z m 87 521 l 87 608 l 174 608 l 174 521 z m 434 521 l 434 608 l 521 608 l 521 521 z m 174 608 l 174 694 l 434 694 l 434 608 z m 174 781 l 174 868 l 260 868 l 260 781 z m 434 781 l 434 868 l 521 868 l 521 781 z m 260 868 l 260 955 l 434 955 l 434 868 z "},"ȏ":{"ha":521,"x_min":0,"x_max":0,"o":"m 87 0 l 87 87 l 347 87 l 347 0 z m 0 87 l 0 434 l 87 434 l 87 87 z m 347 87 l 347 434 l 434 434 l 434 87 z m 87 434 l 87 521 l 347 521 l 347 434 z m 87 608 l 87 694 l 174 694 l 174 608 z m 347 608 l 347 694 l 434 694 l 434 608 z m 174 694 l 174 781 l 347 781 l 347 694 z "},"Ȑ":{"ha":608,"x_min":0,"x_max":0,"o":"m 434 0 l 434 87 l 521 87 l 521 0 z m 347 87 l 347 174 l 434 174 l 434 87 z m 347 347 l 347 608 l 434 608 l 434 347 z m 0 0 l 0 694 l 347 694 l 347 608 l 87 608 l 87 347 l 347 347 l 347 174 l 260 174 l 260 260 l 87 260 l 87 0 z m 174 781 l 174 868 l 260 868 l 260 781 z m 347 781 l 347 868 l 434 868 l 434 781 z m 87 868 l 87 955 l 174 955 l 174 868 z m 260 868 l 260 955 l 347 955 l 347 868 z "},"ȑ":{"ha":434,"x_min":0,"x_max":0,"o":"m 0 0 l 0 521 l 87 521 l 87 434 l 174 434 l 174 347 l 87 347 l 87 0 z m 174 434 l 174 521 l 260 521 l 260 434 z m 87 608 l 87 694 l 174 694 l 174 608 z m 260 608 l 260 694 l 347 694 l 347 608 z m 0 694 l 0 781 l 87 781 l 87 694 z m 174 694 l 174 781 l 260 781 l 260 694 z "},"Ȓ":{"ha":608,"x_min":0,"x_max":0,"o":"m 434 0 l 434 87 l 521 87 l 521 0 z m 347 87 l 347 174 l 434 174 l 434 87 z m 347 347 l 347 608 l 434 608 l 434 347 z m 0 0 l 0 694 l 347 694 l 347 608 l 87 608 l 87 347 l 347 347 l 347 174 l 260 174 l 260 260 l 87 260 l 87 0 z m 87 781 l 87 868 l 174 868 l 174 781 z m 347 781 l 347 868 l 434 868 l 434 781 z m 174 868 l 174 955 l 347 955 l 347 868 z "},"ȓ":{"ha":434,"x_min":0,"x_max":0,"o":"m 0 0 l 0 521 l 87 521 l 87 434 l 174 434 l 174 347 l 87 347 l 87 0 z m 174 434 l 174 521 l 260 521 l 260 434 z m 0 608 l 0 694 l 87 694 l 87 608 z m 260 608 l 260 694 l 347 694 l 347 608 z m 87 694 l 87 781 l 260 781 l 260 694 z "},"Ȕ":{"ha":608,"x_min":0,"x_max":0,"o":"m 87 0 l 87 87 l 434 87 l 434 0 z m 0 87 l 0 694 l 87 694 l 87 87 z m 434 87 l 434 694 l 521 694 l 521 87 z m 174 781 l 174 868 l 260 868 l 260 781 z m 347 781 l 347 868 l 434 868 l 434 781 z m 87 868 l 87 955 l 174 955 l 174 868 z m 260 868 l 260 955 l 347 955 l 347 868 z "},"ȕ":{"ha":521,"x_min":0,"x_max":0,"o":"m 0 87 l 0 521 l 87 521 l 87 87 z m 87 0 l 87 87 l 347 87 l 347 521 l 434 521 l 434 0 z m 174 608 l 174 694 l 260 694 l 260 608 z m 347 608 l 347 694 l 434 694 l 434 608 z m 87 694 l 87 781 l 174 781 l 174 694 z m 260 694 l 260 781 l 347 781 l 347 694 z "},"Ȗ":{"ha":608,"x_min":0,"x_max":0,"o":"m 87 0 l 87 87 l 434 87 l 434 0 z m 0 87 l 0 694 l 87 694 l 87 87 z m 434 87 l 434 694 l 521 694 l 521 87 z m 87 781 l 87 868 l 174 868 l 174 781 z m 347 781 l 347 868 l 434 868 l 434 781 z m 174 868 l 174 955 l 347 955 l 347 868 z "},"ȗ":{"ha":521,"x_min":0,"x_max":0,"o":"m 0 87 l 0 521 l 87 521 l 87 87 z m 87 0 l 87 87 l 347 87 l 347 521 l 434 521 l 434 0 z m 87 608 l 87 694 l 174 694 l 174 608 z m 347 608 l 347 694 l 434 694 l 434 608 z m 174 694 l 174 781 l 347 781 l 347 694 z "},"Ș":{"ha":521,"x_min":0,"x_max":0,"o":"m 174 -174 l 174 -87 l 260 -87 l 260 -174 z m 260 -87 l 260 0 l 0 0 l 0 87 l 347 87 l 347 -87 z m 347 87 l 347 347 l 434 347 l 434 87 z m 87 347 l 87 434 l 347 434 l 347 347 z m 0 434 l 0 608 l 87 608 l 87 434 z m 87 608 l 87 694 l 434 694 l 434 608 z "},"ș":{"ha":434,"x_min":0,"x_max":0,"o":"m 87 -174 l 87 -87 l 174 -87 l 174 -174 z m 174 -87 l 174 0 l 0 0 l 0 87 l 260 87 l 260 -87 z m 260 87 l 260 174 l 174 174 l 174 260 l 347 260 l 347 87 z m 0 260 l 0 434 l 87 434 l 87 347 l 174 347 l 174 260 z m 87 434 l 87 521 l 347 521 l 347 434 z "},"Ț":{"ha":521,"x_min":0,"x_max":0,"o":"m 87 -174 l 87 -87 l 174 -87 l 174 -174 z m 174 -87 l 174 608 l 0 608 l 0 694 l 434 694 l 434 608 l 260 608 l 260 -87 z "},"ț":{"ha":347,"x_min":0,"x_max":0,"o":"m 0 -174 l 0 -87 l 87 -87 l 87 -174 z m 87 -87 l 87 87 l 260 87 l 260 0 l 174 0 l 174 -87 z m 0 87 l 0 694 l 87 694 l 87 521 l 260 521 l 260 434 l 87 434 l 87 87 z "},"Ȝ":{"ha":521,"x_min":0,"x_max":0,"o":"m 0 -174 l 0 -87 l 260 -87 l 260 -174 z m 260 -87 l 260 0 l 347 0 l 347 -87 z m 0 174 l 0 260 l 174 260 l 174 174 z m 347 0 l 347 260 l 174 260 l 174 347 l 260 347 l 260 434 l 347 434 l 347 347 l 434 347 l 434 0 z m 0 521 l 0 608 l 87 608 l 87 521 z m 347 434 l 347 608 l 434 608 l 434 434 z m 87 608 l 87 694 l 347 694 l 347 608 z "},"ȝ":{"ha":521,"x_min":0,"x_max":0,"o":"m 87 -174 l 87 -87 l 347 -87 l 347 -174 z m 87 87 l 87 174 l 174 174 l 174 87 z m 0 347 l 0 434 l 87 434 l 87 347 z m 347 -87 l 347 174 l 174 174 l 174 260 l 347 260 l 347 434 l 434 434 l 434 -87 z m 87 434 l 87 521 l 347 521 l 347 434 z "},"Ȟ":{"ha":608,"x_min":0,"x_max":0,"o":"m 0 0 l 0 694 l 87 694 l 87 434 l 434 434 l 434 694 l 521 694 l 521 0 l 434 0 l 434 347 l 87 347 l 87 0 z m 260 781 l 260 868 l 347 868 l 347 781 z m 174 868 l 174 955 l 260 955 l 260 868 z m 347 868 l 347 955 l 434 955 l 434 868 z "},"ȟ":{"ha":521,"x_min":0,"x_max":0,"o":"m 347 0 l 347 434 l 434 434 l 434 0 z m 0 0 l 0 781 l 87 781 l 87 521 l 347 521 l 347 434 l 87 434 l 87 0 z m 174 781 l 174 868 l 347 868 l 347 781 z m 87 868 l 87 955 l 174 955 l 174 868 z m 347 868 l 347 955 l 434 955 l 434 868 z "},"Ƞ":{"ha":608,"x_min":0,"x_max":0,"o":"m 434 -174 l 434 608 l 521 608 l 521 -174 z m 0 0 l 0 694 l 87 694 l 87 608 l 174 608 l 174 521 l 87 521 l 87 0 z m 174 608 l 174 694 l 434 694 l 434 608 z "},"ȡ":{"ha":781,"x_min":0,"x_max":0,"o":"m 260 -174 l 260 -87 l 347 -87 l 347 -174 z m 434 -174 l 434 -87 l 608 -87 l 608 -174 z m 608 -87 l 608 0 l 694 0 l 694 -87 z m 0 87 l 0 434 l 87 434 l 87 87 z m 347 -87 l 347 0 l 87 0 l 87 87 l 347 87 l 347 434 l 87 434 l 87 521 l 347 521 l 347 781 l 434 781 l 434 87 l 608 87 l 608 0 l 434 0 l 434 -87 z "},"Ȣ":{"ha":608,"x_min":0,"x_max":0,"o":"m 87 0 l 87 87 l 434 87 l 434 0 z m 0 87 l 0 347 l 87 347 l 87 87 z m 434 87 l 434 347 l 521 347 l 521 87 z m 87 347 l 87 434 l 434 434 l 434 347 z m 0 434 l 0 521 l 87 521 l 87 434 z m 87 521 l 87 608 l 174 608 l 174 521 z m 434 434 l 434 608 l 521 608 l 521 434 z m 260 608 l 260 694 l 434 694 l 434 608 z "},"ȣ":{"ha":521,"x_min":0,"x_max":0,"o":"m 87 0 l 87 87 l 347 87 l 347 0 z m 0 87 l 0 347 l 87 347 l 87 87 z m 347 87 l 347 347 l 434 347 l 434 87 z m 87 347 l 87 434 l 347 434 l 347 347 z m 0 434 l 0 608 l 87 608 l 87 434 z m 347 434 l 347 608 l 434 608 l 434 434 z m 87 608 l 87 694 l 174 694 l 174 608 z m 260 608 l 260 694 l 347 694 l 347 608 z "},"Ȥ":{"ha":608,"x_min":0,"x_max":0,"o":"m 434 -174 l 434 0 l 521 0 l 521 -174 z m 0 0 l 0 174 l 87 174 l 87 87 l 434 87 l 434 0 z m 87 174 l 87 260 l 174 260 l 174 174 z m 174 260 l 174 434 l 260 434 l 260 260 z m 260 434 l 260 521 l 347 521 l 347 434 z m 347 521 l 347 608 l 0 608 l 0 694 l 434 694 l 434 521 z "},"ȥ":{"ha":521,"x_min":0,"x_max":0,"o":"m 347 -174 l 347 0 l 434 0 l 434 -174 z m 0 0 l 0 174 l 87 174 l 87 87 l 347 87 l 347 0 z m 87 174 l 87 260 l 174 260 l 174 174 z m 174 260 l 174 347 l 260 347 l 260 260 z m 260 347 l 260 434 l 0 434 l 0 521 l 347 521 l 347 347 z "},"Ȧ":{"ha":608,"x_min":0,"x_max":0,"o":"m 0 0 l 0 260 l 87 260 l 87 521 l 174 521 l 174 260 l 347 260 l 347 521 l 434 521 l 434 260 l 521 260 l 521 0 l 434 0 l 434 174 l 87 174 l 87 0 z m 174 521 l 174 694 l 347 694 l 347 521 z m 260 781 l 260 868 l 347 868 l 347 781 z "},"ȧ":{"ha":521,"x_min":0,"x_max":0,"o":"m 0 87 l 0 260 l 87 260 l 87 87 z m 87 0 l 87 87 l 347 87 l 347 260 l 87 260 l 87 347 l 347 347 l 347 434 l 434 434 l 434 0 z m 87 434 l 87 521 l 347 521 l 347 434 z m 174 608 l 174 694 l 260 694 l 260 608 z "},"Ȩ":{"ha":521,"x_min":0,"x_max":0,"o":"m 87 -174 l 87 -87 l 174 -87 l 174 0 l 0 0 l 0 694 l 434 694 l 434 608 l 87 608 l 87 434 l 347 434 l 347 347 l 87 347 l 87 87 l 434 87 l 434 0 l 260 0 l 260 -174 z "},"ȩ":{"ha":521,"x_min":0,"x_max":0,"o":"m 87 -174 l 87 -87 l 260 -87 l 260 -174 z m 260 -87 l 260 0 l 87 0 l 87 87 l 347 87 l 347 -87 z m 347 87 l 347 174 l 434 174 l 434 87 z m 0 87 l 0 434 l 87 434 l 87 347 l 347 347 l 347 434 l 434 434 l 434 260 l 87 260 l 87 87 z m 87 434 l 87 521 l 347 521 l 347 434 z "},"Ȫ":{"ha":694,"x_min":0,"x_max":0,"o":"m 174 0 l 174 87 l 434 87 l 434 0 z m 87 87 l 87 174 l 174 174 l 174 87 z m 434 87 l 434 174 l 521 174 l 521 87 z m 0 174 l 0 521 l 87 521 l 87 174 z m 521 174 l 521 521 l 608 521 l 608 174 z m 87 521 l 87 608 l 174 608 l 174 521 z m 434 521 l 434 608 l 521 608 l 521 521 z m 174 608 l 174 781 l 260 781 l 260 694 l 347 694 l 347 781 l 434 781 l 434 608 z m 174 868 l 174 955 l 521 955 l 521 868 z "},"ȫ":{"ha":521,"x_min":0,"x_max":0,"o":"m 87 0 l 87 87 l 347 87 l 347 0 z m 0 87 l 0 434 l 87 434 l 87 87 z m 347 87 l 347 434 l 434 434 l 434 87 z m 87 434 l 87 521 l 347 521 l 347 434 z m 87 608 l 87 694 l 174 694 l 174 608 z m 260 608 l 260 694 l 347 694 l 347 608 z m 87 781 l 87 868 l 347 868 l 347 781 z "},"Ȭ":{"ha":694,"x_min":0,"x_max":0,"o":"m 174 0 l 174 87 l 434 87 l 434 0 z m 87 87 l 87 174 l 174 174 l 174 87 z m 434 87 l 434 174 l 521 174 l 521 87 z m 0 174 l 0 521 l 87 521 l 87 174 z m 521 174 l 521 521 l 608 521 l 608 174 z m 87 521 l 87 608 l 174 608 l 174 521 z m 434 521 l 434 608 l 521 608 l 521 521 z m 174 608 l 174 781 l 260 781 l 260 694 l 347 694 l 347 781 l 434 781 l 434 608 z m 260 781 l 260 868 l 174 868 l 174 955 l 521 955 l 521 781 l 434 781 l 434 868 l 347 868 l 347 781 z "},"ȭ":{"ha":521,"x_min":0,"x_max":0,"o":"m 87 0 l 87 87 l 347 87 l 347 0 z m 0 87 l 0 434 l 87 434 l 87 87 z m 347 87 l 347 434 l 434 434 l 434 87 z m 87 434 l 87 521 l 347 521 l 347 434 z m 87 608 l 87 694 l 174 694 l 174 608 z m 260 608 l 260 694 l 347 694 l 347 608 z m 174 694 l 174 781 l 260 781 l 260 694 z m 347 694 l 347 781 l 434 781 l 434 694 z m 87 868 l 87 955 l 434 955 l 434 868 z "},"Ȯ":{"ha":694,"x_min":0,"x_max":0,"o":"m 174 0 l 174 87 l 434 87 l 434 0 z m 87 87 l 87 174 l 174 174 l 174 87 z m 434 87 l 434 174 l 521 174 l 521 87 z m 0 174 l 0 521 l 87 521 l 87 174 z m 521 174 l 521 521 l 608 521 l 608 174 z m 87 521 l 87 608 l 174 608 l 174 521 z m 434 521 l 434 608 l 521 608 l 521 521 z m 174 608 l 174 694 l 434 694 l 434 608 z m 260 781 l 260 868 l 347 868 l 347 781 z "},"ȯ":{"ha":521,"x_min":0,"x_max":0,"o":"m 87 0 l 87 87 l 347 87 l 347 0 z m 0 87 l 0 434 l 87 434 l 87 87 z m 347 87 l 347 434 l 434 434 l 434 87 z m 87 434 l 87 521 l 347 521 l 347 434 z m 174 608 l 174 694 l 260 694 l 260 608 z "},"Ȱ":{"ha":694,"x_min":0,"x_max":0,"o":"m 174 0 l 174 87 l 434 87 l 434 0 z m 87 87 l 87 174 l 174 174 l 174 87 z m 434 87 l 434 174 l 521 174 l 521 87 z m 0 174 l 0 521 l 87 521 l 87 174 z m 521 174 l 521 521 l 608 521 l 608 174 z m 87 521 l 87 608 l 174 608 l 174 521 z m 434 521 l 434 608 l 521 608 l 521 521 z m 174 608 l 174 694 l 260 694 l 260 781 l 347 781 l 347 694 l 434 694 l 434 608 z m 174 868 l 174 955 l 521 955 l 521 868 z "},"ȱ":{"ha":521,"x_min":0,"x_max":0,"o":"m 87 0 l 87 87 l 347 87 l 347 0 z m 0 87 l 0 434 l 87 434 l 87 87 z m 347 87 l 347 434 l 434 434 l 434 87 z m 87 434 l 87 521 l 347 521 l 347 434 z m 174 608 l 174 694 l 260 694 l 260 608 z m 87 781 l 87 868 l 434 868 l 434 781 z "},"Ȳ":{"ha":521,"x_min":0,"x_max":0,"o":"m 174 0 l 174 347 l 260 347 l 260 0 z m 87 347 l 87 521 l 174 521 l 174 347 z m 260 347 l 260 521 l 347 521 l 347 347 z m 0 521 l 0 694 l 87 694 l 87 521 z m 347 521 l 347 694 l 434 694 l 434 521 z m 87 781 l 87 868 l 434 868 l 434 781 z "},"ȳ":{"ha":521,"x_min":0,"x_max":0,"o":"m 87 -174 l 87 0 l 174 0 l 174 -174 z m 174 0 l 174 174 l 260 174 l 260 0 z m 87 174 l 87 347 l 174 347 l 174 174 z m 260 174 l 260 347 l 347 347 l 347 174 z m 0 347 l 0 521 l 87 521 l 87 347 z m 347 347 l 347 521 l 434 521 l 434 347 z m 87 608 l 87 694 l 434 694 l 434 608 z "},"ȴ":{"ha":521,"x_min":0,"x_max":0,"o":"m 0 -87 l 0 0 l 87 0 l 87 -87 z m 174 -87 l 174 0 l 347 0 l 347 -87 z m 87 0 l 87 87 l 174 87 l 174 0 z m 347 0 l 347 87 l 434 87 l 434 0 z m 174 87 l 174 174 l 347 174 l 347 87 z m 0 87 l 0 781 l 87 781 l 87 87 z "},"ȵ":{"ha":781,"x_min":0,"x_max":0,"o":"m 260 -174 l 260 -87 l 347 -87 l 347 -174 z m 434 -174 l 434 -87 l 608 -87 l 608 -174 z m 347 -87 l 347 0 l 434 0 l 434 -87 z m 608 -87 l 608 0 l 694 0 l 694 -87 z m 434 0 l 434 87 l 608 87 l 608 0 z m 347 87 l 347 434 l 434 434 l 434 87 z m 0 0 l 0 521 l 347 521 l 347 434 l 87 434 l 87 0 z "},"ȶ":{"ha":521,"x_min":0,"x_max":0,"o":"m 0 -87 l 0 0 l 87 0 l 87 -87 z m 174 -87 l 174 0 l 347 0 l 347 -87 z m 87 0 l 87 87 l 174 87 l 174 0 z m 347 0 l 347 87 l 434 87 l 434 0 z m 174 87 l 174 174 l 347 174 l 347 87 z m 0 87 l 0 694 l 87 694 l 87 521 l 260 521 l 260 434 l 87 434 l 87 87 z "},"ȷ":{"ha":260,"x_min":0,"x_max":0,"o":"m 0 -174 l 0 -87 l 87 -87 l 87 -174 z m 87 -87 l 87 434 l 0 434 l 0 521 l 174 521 l 174 -87 z "},"ȸ":{"ha":868,"x_min":0,"x_max":0,"o":"m 0 87 l 0 434 l 87 434 l 87 87 z m 694 87 l 694 434 l 781 434 l 781 87 z m 87 0 l 87 87 l 347 87 l 347 434 l 87 434 l 87 521 l 347 521 l 347 781 l 434 781 l 434 521 l 694 521 l 694 434 l 434 434 l 434 87 l 694 87 l 694 0 z "},"ȹ":{"ha":868,"x_min":0,"x_max":0,"o":"m 0 87 l 0 434 l 87 434 l 87 87 z m 694 87 l 694 434 l 781 434 l 781 87 z m 347 -174 l 347 0 l 87 0 l 87 87 l 347 87 l 347 434 l 87 434 l 87 521 l 694 521 l 694 434 l 434 434 l 434 87 l 694 87 l 694 0 l 434 0 l 434 -174 z "},"Ⱥ":{"ha":694,"x_min":0,"x_max":0,"o":"m -87 -87 l -87 0 l 0 0 l 0 -87 z m 0 0 l 0 260 l 87 260 l 87 521 l 174 521 l 174 347 l 260 347 l 260 260 l 347 260 l 347 347 l 260 347 l 260 434 l 347 434 l 347 521 l 174 521 l 174 694 l 347 694 l 347 608 l 434 608 l 434 260 l 521 260 l 521 0 l 434 0 l 434 174 l 174 174 l 174 87 l 87 87 l 87 0 z m 434 608 l 434 694 l 521 694 l 521 608 z m 521 694 l 521 781 l 608 781 l 608 694 z "},"Ȼ":{"ha":694,"x_min":0,"x_max":0,"o":"m 0 -87 l 0 0 l 87 0 l 87 -87 z m 87 0 l 87 174 l 174 174 l 174 87 l 521 87 l 521 0 z m 174 174 l 174 260 l 260 260 l 260 174 z m 260 260 l 260 434 l 347 434 l 347 260 z m 0 174 l 0 521 l 87 521 l 87 174 z m 347 434 l 347 521 l 434 521 l 434 434 z m 87 521 l 87 608 l 174 608 l 174 521 z m 434 521 l 434 608 l 174 608 l 174 694 l 521 694 l 521 521 z m 521 694 l 521 781 l 608 781 l 608 694 z "},"ȼ":{"ha":521,"x_min":0,"x_max":0,"o":"m 0 -87 l 0 0 l 87 0 l 87 -87 z m 174 174 l 174 347 l 260 347 l 260 174 z m 87 0 l 87 87 l 0 87 l 0 434 l 87 434 l 87 174 l 174 174 l 174 87 l 347 87 l 347 0 z m 260 347 l 260 434 l 87 434 l 87 521 l 347 521 l 347 347 z m 347 521 l 347 608 l 434 608 l 434 521 z "},"Ƚ":{"ha":434,"x_min":0,"x_max":0,"o":"m 0 0 l 0 347 l -87 347 l -87 434 l 0 434 l 0 694 l 87 694 l 87 434 l 260 434 l 260 347 l 87 347 l 87 87 l 347 87 l 347 0 z "},"Ⱦ":{"ha":608,"x_min":0,"x_max":0,"o":"m 0 -87 l 0 0 l 87 0 l 87 -87 z m 87 0 l 87 174 l 174 174 l 174 608 l 0 608 l 0 694 l 434 694 l 434 521 l 347 521 l 347 608 l 260 608 l 260 521 l 347 521 l 347 347 l 260 347 l 260 0 z m 434 694 l 434 781 l 521 781 l 521 694 z "},"ȿ":{"ha":521,"x_min":0,"x_max":0,"o":"m 260 -174 l 260 -87 l 434 -87 l 434 -174 z m 174 -87 l 174 0 l 0 0 l 0 87 l 260 87 l 260 -87 z m 260 87 l 260 260 l 347 260 l 347 87 z m 87 260 l 87 347 l 260 347 l 260 260 z m 0 347 l 0 434 l 87 434 l 87 347 z m 87 434 l 87 521 l 347 521 l 347 434 z "},"ɀ":{"ha":521,"x_min":0,"x_max":0,"o":"m 260 -174 l 260 -87 l 434 -87 l 434 -174 z m 174 -87 l 174 0 l 260 0 l 260 -87 z m 0 0 l 0 174 l 87 174 l 87 87 l 174 87 l 174 0 z m 87 174 l 87 260 l 174 260 l 174 174 z m 174 260 l 174 347 l 260 347 l 260 260 z m 260 347 l 260 434 l 0 434 l 0 521 l 347 521 l 347 347 z "},"Ɂ":{"ha":521,"x_min":0,"x_max":0,"o":"m 174 0 l 174 347 l 347 347 l 347 260 l 260 260 l 260 0 z m 0 521 l 0 608 l 87 608 l 87 521 z m 347 347 l 347 608 l 434 608 l 434 347 z m 87 608 l 87 694 l 347 694 l 347 608 z "},"ɂ":{"ha":521,"x_min":0,"x_max":0,"o":"m 0 87 l 0 174 l 174 174 l 174 347 l 347 347 l 347 260 l 260 260 l 260 174 l 434 174 l 434 87 z m 0 434 l 0 521 l 87 521 l 87 434 z m 347 347 l 347 521 l 434 521 l 434 347 z m 87 521 l 87 608 l 347 608 l 347 521 z "},"Ƀ":{"ha":521,"x_min":0,"x_max":0,"o":"m 347 87 l 347 347 l 434 347 l 434 87 z m 347 434 l 347 608 l 434 608 l 434 434 z m 0 0 l 0 174 l -87 174 l -87 260 l 0 260 l 0 694 l 347 694 l 347 608 l 87 608 l 87 434 l 347 434 l 347 347 l 87 347 l 87 260 l 260 260 l 260 174 l 87 174 l 87 87 l 347 87 l 347 0 z "},"Ʉ":{"ha":694,"x_min":0,"x_max":0,"o":"m 87 0 l 87 87 l 434 87 l 434 0 z m 0 87 l 0 347 l -87 347 l -87 434 l 0 434 l 0 694 l 87 694 l 87 434 l 434 434 l 434 694 l 521 694 l 521 434 l 608 434 l 608 347 l 521 347 l 521 87 l 434 87 l 434 347 l 87 347 l 87 87 z "},"Ʌ":{"ha":608,"x_min":0,"x_max":0,"o":"m 0 0 l 0 260 l 87 260 l 87 0 z m 434 0 l 434 260 l 521 260 l 521 0 z m 87 260 l 87 521 l 174 521 l 174 260 z m 347 260 l 347 521 l 434 521 l 434 260 z m 174 521 l 174 694 l 347 694 l 347 521 z "},"Ɇ":{"ha":521,"x_min":0,"x_max":0,"o":"m 174 87 l 174 347 l 87 347 l 87 87 z m 260 434 l 260 608 l 87 608 l 87 434 z m 87 -87 l 87 0 l 0 0 l 0 694 l 347 694 l 347 868 l 434 868 l 434 608 l 347 608 l 347 347 l 260 347 l 260 87 l 434 87 l 434 0 l 174 0 l 174 -87 z "},"ɇ":{"ha":521,"x_min":0,"x_max":0,"o":"m 0 -174 l 0 0 l 87 0 l 87 -174 z m 347 87 l 347 174 l 434 174 l 434 87 z m 87 0 l 87 87 l 0 87 l 0 434 l 87 434 l 87 347 l 260 347 l 260 434 l 87 434 l 87 521 l 347 521 l 347 434 l 434 434 l 434 260 l 260 260 l 260 174 l 174 174 l 174 260 l 87 260 l 87 174 l 174 174 l 174 87 l 347 87 l 347 0 z m 347 521 l 347 694 l 434 694 l 434 521 z "},"Ɉ":{"ha":521,"x_min":0,"x_max":0,"o":"m 0 0 l 0 87 l 260 87 l 260 0 z m 260 87 l 260 347 l 174 347 l 174 434 l 260 434 l 260 608 l 87 608 l 87 694 l 347 694 l 347 434 l 434 434 l 434 347 l 347 347 l 347 87 z "},"ɉ":{"ha":347,"x_min":0,"x_max":0,"o":"m 0 -174 l 0 -87 l 87 -87 l 87 -174 z m 87 -87 l 87 174 l 0 174 l 0 260 l 87 260 l 87 434 l 0 434 l 0 521 l 174 521 l 174 260 l 260 260 l 260 174 l 174 174 l 174 -87 z m 87 608 l 87 694 l 174 694 l 174 608 z "},"Ɋ":{"ha":868,"x_min":0,"x_max":0,"o":"m 608 -174 l 608 -87 l 781 -87 l 781 -174 z m 174 0 l 174 87 l 434 87 l 434 0 z m 87 87 l 87 174 l 174 174 l 174 87 z m 0 174 l 0 521 l 87 521 l 87 174 z m 87 521 l 87 608 l 174 608 l 174 521 z m 174 608 l 174 694 l 434 694 l 434 608 z m 521 -87 l 521 87 l 434 87 l 434 174 l 521 174 l 521 521 l 434 521 l 434 608 l 521 608 l 521 694 l 608 694 l 608 -87 z "},"ɋ":{"ha":694,"x_min":0,"x_max":0,"o":"m 434 -174 l 434 -87 l 608 -87 l 608 -174 z m 0 87 l 0 434 l 87 434 l 87 87 z m 347 -87 l 347 0 l 87 0 l 87 87 l 347 87 l 347 434 l 87 434 l 87 521 l 434 521 l 434 -87 z "},"Ɍ":{"ha":608,"x_min":0,"x_max":0,"o":"m 434 0 l 434 87 l 521 87 l 521 0 z m 347 87 l 347 174 l 434 174 l 434 87 z m 347 347 l 347 608 l 434 608 l 434 347 z m 0 0 l 0 260 l -87 260 l -87 347 l 0 347 l 0 694 l 347 694 l 347 608 l 87 608 l 87 347 l 347 347 l 347 174 l 260 174 l 260 260 l 87 260 l 87 0 z "},"ɍ":{"ha":347,"x_min":0,"x_max":0,"o":"m 0 0 l 0 87 l -87 87 l -87 174 l 0 174 l 0 521 l 87 521 l 87 434 l 174 434 l 174 347 l 87 347 l 87 174 l 174 174 l 174 87 l 87 87 l 87 0 z m 174 434 l 174 521 l 260 521 l 260 434 z "},"Ɏ":{"ha":521,"x_min":0,"x_max":0,"o":"m 174 0 l 174 347 l 0 347 l 0 434 l 87 434 l 87 521 l 174 521 l 174 434 l 260 434 l 260 521 l 347 521 l 347 434 l 434 434 l 434 347 l 260 347 l 260 0 z m 0 521 l 0 694 l 87 694 l 87 521 z m 347 521 l 347 694 l 434 694 l 434 521 z "},"ɏ":{"ha":521,"x_min":0,"x_max":0,"o":"m 87 -174 l 87 0 l 174 0 l 174 -174 z m 174 0 l 174 174 l 0 174 l 0 260 l 87 260 l 87 347 l 174 347 l 174 260 l 260 260 l 260 347 l 347 347 l 347 260 l 434 260 l 434 174 l 260 174 l 260 0 z m 0 347 l 0 521 l 87 521 l 87 347 z m 347 347 l 347 521 l 434 521 l 434 347 z "},"ɐ":{"ha":521,"x_min":0,"x_max":0,"o":"m 87 0 l 87 87 l 347 87 l 347 0 z m 347 260 l 347 434 l 434 434 l 434 260 z m 0 87 l 0 521 l 347 521 l 347 434 l 87 434 l 87 260 l 347 260 l 347 174 l 87 174 l 87 87 z "},"ɑ":{"ha":521,"x_min":0,"x_max":0,"o":"m 0 87 l 0 434 l 87 434 l 87 87 z m 87 0 l 87 87 l 347 87 l 347 434 l 87 434 l 87 521 l 434 521 l 434 0 z "},"ɒ":{"ha":521,"x_min":0,"x_max":0,"o":"m 347 87 l 347 434 l 434 434 l 434 87 z m 0 0 l 0 521 l 347 521 l 347 434 l 87 434 l 87 87 l 347 87 l 347 0 z "},"ɓ":{"ha":521,"x_min":0,"x_max":0,"o":"m 347 87 l 347 434 l 434 434 l 434 87 z m 0 0 l 0 694 l 87 694 l 87 521 l 347 521 l 347 434 l 87 434 l 87 87 l 347 87 l 347 0 z m 87 694 l 87 781 l 260 781 l 260 694 z "},"ɔ":{"ha":434,"x_min":0,"x_max":0,"o":"m 0 0 l 0 87 l 260 87 l 260 0 z m 260 87 l 260 434 l 347 434 l 347 87 z m 0 434 l 0 521 l 260 521 l 260 434 z "},"ɕ":{"ha":434,"x_min":0,"x_max":0,"o":"m -87 0 l -87 87 l 0 87 l 0 0 z m 87 0 l 87 87 l 260 87 l 260 0 z m 260 87 l 260 174 l 347 174 l 347 87 z m 0 87 l 0 434 l 87 434 l 87 260 l 260 260 l 260 174 l 87 174 l 87 87 z m 87 434 l 87 521 l 347 521 l 347 434 z "},"ɖ":{"ha":694,"x_min":0,"x_max":0,"o":"m 434 -174 l 434 -87 l 608 -87 l 608 -174 z m 0 87 l 0 434 l 87 434 l 87 87 z m 347 -87 l 347 0 l 87 0 l 87 87 l 347 87 l 347 434 l 87 434 l 87 521 l 347 521 l 347 781 l 434 781 l 434 -87 z "},"ɗ":{"ha":608,"x_min":0,"x_max":0,"o":"m 0 87 l 0 434 l 87 434 l 87 87 z m 87 0 l 87 87 l 347 87 l 347 434 l 87 434 l 87 521 l 347 521 l 347 694 l 434 694 l 434 0 z m 434 694 l 434 781 l 608 781 l 608 694 z "},"ɘ":{"ha":521,"x_min":0,"x_max":0,"o":"m 87 0 l 87 87 l 347 87 l 347 0 z m 0 87 l 0 174 l 87 174 l 87 87 z m 347 87 l 347 260 l 0 260 l 0 434 l 87 434 l 87 347 l 347 347 l 347 434 l 434 434 l 434 87 z m 87 434 l 87 521 l 347 521 l 347 434 z "},"ə":{"ha":521,"x_min":0,"x_max":0,"o":"m 87 0 l 87 87 l 347 87 l 347 0 z m 0 87 l 0 260 l 347 260 l 347 434 l 434 434 l 434 87 l 347 87 l 347 174 l 87 174 l 87 87 z m 0 347 l 0 521 l 347 521 l 347 434 l 87 434 l 87 347 z "},"ɚ":{"ha":781,"x_min":0,"x_max":0,"o":"m 87 0 l 87 87 l 347 87 l 347 0 z m 521 87 l 521 174 l 694 174 l 694 87 z m 0 87 l 0 260 l 347 260 l 347 434 l 434 434 l 434 347 l 521 347 l 521 174 l 434 174 l 434 87 l 347 87 l 347 174 l 87 174 l 87 87 z m 0 347 l 0 521 l 347 521 l 347 434 l 87 434 l 87 347 z "},"ɛ":{"ha":521,"x_min":0,"x_max":0,"o":"m 87 0 l 87 87 l 347 87 l 347 0 z m 347 87 l 347 174 l 434 174 l 434 87 z m 0 87 l 0 260 l 87 260 l 87 87 z m 87 260 l 87 347 l 260 347 l 260 260 z m 0 347 l 0 434 l 87 434 l 87 347 z m 347 347 l 347 434 l 434 434 l 434 347 z m 87 434 l 87 521 l 347 521 l 347 434 z "},"ɜ":{"ha":521,"x_min":0,"x_max":0,"o":"m 87 0 l 87 87 l 347 87 l 347 0 z m 0 87 l 0 174 l 87 174 l 87 87 z m 347 87 l 347 260 l 434 260 l 434 87 z m 174 260 l 174 347 l 347 347 l 347 260 z m 0 347 l 0 434 l 87 434 l 87 347 z m 347 347 l 347 434 l 434 434 l 434 347 z m 87 434 l 87 521 l 347 521 l 347 434 z "},"ɝ":{"ha":781,"x_min":0,"x_max":0,"o":"m 87 0 l 87 87 l 347 87 l 347 0 z m 0 87 l 0 174 l 87 174 l 87 87 z m 347 87 l 347 260 l 434 260 l 434 87 z m 521 174 l 521 260 l 694 260 l 694 174 z m 174 260 l 174 347 l 347 347 l 347 260 z m 0 347 l 0 434 l 87 434 l 87 347 z m 434 260 l 434 347 l 347 347 l 347 434 l 521 434 l 521 260 z m 87 434 l 87 521 l 347 521 l 347 434 z "},"ɞ":{"ha":521,"x_min":0,"x_max":0,"o":"m 87 0 l 87 87 l 347 87 l 347 0 z m 347 87 l 347 260 l 434 260 l 434 87 z m 174 260 l 174 347 l 347 347 l 347 260 z m 0 87 l 0 434 l 87 434 l 87 87 z m 347 347 l 347 434 l 434 434 l 434 347 z m 87 434 l 87 521 l 347 521 l 347 434 z "},"ɟ":{"ha":347,"x_min":0,"x_max":0,"o":"m 0 -174 l 0 -87 l 87 -87 l 87 -174 z m 87 -87 l 87 174 l -87 174 l -87 260 l 87 260 l 87 434 l 0 434 l 0 521 l 174 521 l 174 260 l 260 260 l 260 174 l 174 174 l 174 -87 z "},"ɠ":{"ha":694,"x_min":0,"x_max":0,"o":"m 87 -174 l 87 -87 l 347 -87 l 347 -174 z m 0 87 l 0 434 l 87 434 l 87 87 z m 347 -87 l 347 0 l 87 0 l 87 87 l 347 87 l 347 434 l 87 434 l 87 521 l 347 521 l 347 694 l 434 694 l 434 -87 z m 434 694 l 434 781 l 608 781 l 608 694 z "},"ɡ":{"ha":521,"x_min":0,"x_max":0,"o":"m 87 -174 l 87 -87 l 347 -87 l 347 -174 z m 0 87 l 0 434 l 87 434 l 87 87 z m 347 -87 l 347 0 l 87 0 l 87 87 l 347 87 l 347 434 l 87 434 l 87 521 l 434 521 l 434 -87 z "},"ɢ":{"ha":521,"x_min":0,"x_max":0,"o":"m 87 0 l 87 87 l 347 87 l 347 174 l 260 174 l 260 260 l 434 260 l 434 0 z m 0 87 l 0 434 l 87 434 l 87 87 z m 347 347 l 347 434 l 434 434 l 434 347 z m 87 434 l 87 521 l 347 521 l 347 434 z "},"ɣ":{"ha":608,"x_min":0,"x_max":0,"o":"m 174 -174 l 174 -87 l 347 -87 l 347 -174 z m 87 -87 l 87 0 l 174 0 l 174 -87 z m 347 -87 l 347 0 l 434 0 l 434 -87 z m 174 0 l 174 174 l 347 174 l 347 0 z m 87 174 l 87 347 l 174 347 l 174 174 z m 347 174 l 347 347 l 434 347 l 434 174 z m 0 347 l 0 521 l 87 521 l 87 347 z m 434 347 l 434 521 l 521 521 l 521 347 z "},"ɤ":{"ha":694,"x_min":0,"x_max":0,"o":"m -87 347 l -87 434 l 0 434 l 0 347 z m 174 0 l 174 434 l 347 434 l 347 0 z m 521 347 l 521 434 l 608 434 l 608 347 z m 0 434 l 0 521 l 174 521 l 174 434 z m 347 434 l 347 521 l 521 521 l 521 434 z "},"ɥ":{"ha":521,"x_min":0,"x_max":0,"o":"m 0 87 l 0 521 l 87 521 l 87 87 z m 347 -174 l 347 0 l 87 0 l 87 87 l 347 87 l 347 521 l 434 521 l 434 -174 z "},"ɦ":{"ha":521,"x_min":0,"x_max":0,"o":"m 347 0 l 347 434 l 434 434 l 434 0 z m 0 0 l 0 694 l 87 694 l 87 521 l 347 521 l 347 434 l 87 434 l 87 0 z m 87 694 l 87 781 l 260 781 l 260 694 z "},"ɧ":{"ha":521,"x_min":0,"x_max":0,"o":"m 174 -174 l 174 -87 l 347 -87 l 347 -174 z m 347 -87 l 347 434 l 434 434 l 434 -87 z m 0 0 l 0 694 l 87 694 l 87 521 l 347 521 l 347 434 l 87 434 l 87 0 z m 87 694 l 87 781 l 260 781 l 260 694 z "},"ɨ":{"ha":347,"x_min":0,"x_max":0,"o":"m 87 0 l 87 260 l 0 260 l 0 347 l 87 347 l 87 521 l 174 521 l 174 347 l 260 347 l 260 260 l 174 260 l 174 0 z m 87 608 l 87 694 l 174 694 l 174 608 z "},"ɩ":{"ha":174,"x_min":0,"x_max":0,"o":"m 0 0 l 0 521 l 87 521 l 87 0 z "},"ɪ":{"ha":347,"x_min":0,"x_max":0,"o":"m 0 0 l 0 87 l 87 87 l 87 434 l 0 434 l 0 521 l 260 521 l 260 434 l 174 434 l 174 87 l 260 87 l 260 0 z "},"ɫ":{"ha":434,"x_min":0,"x_max":0,"o":"m -87 347 l -87 434 l 0 434 l 0 347 z m 260 434 l 260 521 l 347 521 l 347 434 z m 87 0 l 87 434 l 0 434 l 0 521 l 87 521 l 87 781 l 174 781 l 174 434 l 260 434 l 260 347 l 174 347 l 174 0 z "},"ɬ":{"ha":347,"x_min":0,"x_max":0,"o":"m 87 0 l 87 260 l 0 260 l 0 347 l 87 347 l 87 781 l 174 781 l 174 347 l 260 347 l 260 260 l 174 260 l 174 0 z "},"ɭ":{"ha":347,"x_min":0,"x_max":0,"o":"m 87 -174 l 87 -87 l 260 -87 l 260 -174 z m 0 -87 l 0 781 l 87 781 l 87 -87 z "},"ɮ":{"ha":521,"x_min":0,"x_max":0,"o":"m 87 -174 l 87 -87 l 347 -87 l 347 -174 z m 347 -87 l 347 260 l 434 260 l 434 -87 z m 260 260 l 260 347 l 347 347 l 347 260 z m 0 0 l 0 781 l 87 781 l 87 521 l 434 521 l 434 347 l 347 347 l 347 434 l 87 434 l 87 0 z "},"ɯ":{"ha":694,"x_min":0,"x_max":0,"o":"m 87 0 l 87 87 l 260 87 l 260 0 z m 0 87 l 0 521 l 87 521 l 87 87 z m 260 87 l 260 521 l 347 521 l 347 87 z m 347 0 l 347 87 l 521 87 l 521 521 l 608 521 l 608 0 z "},"ɰ":{"ha":694,"x_min":0,"x_max":0,"o":"m 87 0 l 87 87 l 260 87 l 260 0 z m 0 87 l 0 521 l 87 521 l 87 87 z m 260 87 l 260 521 l 347 521 l 347 87 z m 521 -174 l 521 0 l 347 0 l 347 87 l 521 87 l 521 521 l 608 521 l 608 -174 z "},"ɱ":{"ha":694,"x_min":0,"x_max":0,"o":"m 347 -174 l 347 -87 l 521 -87 l 521 -174 z m 260 0 l 260 434 l 347 434 l 347 0 z m 521 -87 l 521 434 l 608 434 l 608 -87 z m 0 0 l 0 521 l 260 521 l 260 434 l 87 434 l 87 0 z m 347 434 l 347 521 l 521 521 l 521 434 z "},"ɲ":{"ha":521,"x_min":0,"x_max":0,"o":"m -174 -174 l -174 -87 l 0 -87 l 0 -174 z m 347 0 l 347 434 l 434 434 l 434 0 z m 0 -87 l 0 521 l 347 521 l 347 434 l 87 434 l 87 -87 z "},"ɳ":{"ha":694,"x_min":0,"x_max":0,"o":"m 434 -174 l 434 -87 l 608 -87 l 608 -174 z m 347 -87 l 347 434 l 434 434 l 434 -87 z m 0 0 l 0 521 l 347 521 l 347 434 l 87 434 l 87 0 z "},"ɴ":{"ha":521,"x_min":0,"x_max":0,"o":"m 174 174 l 174 347 l 260 347 l 260 174 z m 0 0 l 0 521 l 87 521 l 87 434 l 174 434 l 174 347 l 87 347 l 87 0 z m 347 0 l 347 87 l 260 87 l 260 174 l 347 174 l 347 521 l 434 521 l 434 0 z "},"ɵ":{"ha":521,"x_min":0,"x_max":0,"o":"m 87 0 l 87 87 l 347 87 l 347 0 z m 0 87 l 0 434 l 87 434 l 87 347 l 347 347 l 347 434 l 434 434 l 434 87 l 347 87 l 347 260 l 87 260 l 87 87 z m 87 434 l 87 521 l 347 521 l 347 434 z "},"ɶ":{"ha":781,"x_min":0,"x_max":0,"o":"m 0 87 l 0 434 l 87 434 l 87 87 z m 87 0 l 87 87 l 347 87 l 347 434 l 87 434 l 87 521 l 694 521 l 694 434 l 434 434 l 434 347 l 608 347 l 608 260 l 434 260 l 434 87 l 694 87 l 694 0 z "},"ɷ":{"ha":694,"x_min":0,"x_max":0,"o":"m 87 0 l 87 87 l 260 87 l 260 0 z m 347 0 l 347 87 l 521 87 l 521 0 z m 260 87 l 260 347 l 347 347 l 347 87 z m 0 87 l 0 434 l 87 434 l 87 87 z m 521 87 l 521 434 l 608 434 l 608 87 z m 87 434 l 87 521 l 521 521 l 521 434 z "},"ɸ":{"ha":521,"x_min":0,"x_max":0,"o":"m 0 87 l 0 434 l 87 434 l 87 87 z m 347 87 l 347 434 l 434 434 l 434 87 z m 174 -174 l 174 0 l 87 0 l 87 87 l 174 87 l 174 434 l 87 434 l 87 521 l 174 521 l 174 781 l 260 781 l 260 521 l 347 521 l 347 434 l 260 434 l 260 87 l 347 87 l 347 0 l 260 0 l 260 -174 z "},"ɹ":{"ha":347,"x_min":0,"x_max":0,"o":"m 0 0 l 0 87 l 87 87 l 87 0 z m 174 0 l 174 87 l 87 87 l 87 174 l 174 174 l 174 521 l 260 521 l 260 0 z "},"ɺ":{"ha":347,"x_min":0,"x_max":0,"o":"m 0 0 l 0 87 l 87 87 l 87 0 z m 174 0 l 174 87 l 87 87 l 87 174 l 174 174 l 174 781 l 260 781 l 260 0 z "},"ɻ":{"ha":521,"x_min":0,"x_max":0,"o":"m 260 -174 l 260 -87 l 434 -87 l 434 -174 z m 0 0 l 0 87 l 87 87 l 87 0 z m 174 -87 l 174 87 l 87 87 l 87 174 l 174 174 l 174 521 l 260 521 l 260 -87 z "},"ɼ":{"ha":347,"x_min":0,"x_max":0,"o":"m 0 -174 l 0 521 l 87 521 l 87 434 l 174 434 l 174 347 l 87 347 l 87 -174 z m 174 434 l 174 521 l 260 521 l 260 434 z "},"ɽ":{"ha":347,"x_min":0,"x_max":0,"o":"m 87 -174 l 87 -87 l 260 -87 l 260 -174 z m 0 -87 l 0 521 l 87 521 l 87 434 l 174 434 l 174 347 l 87 347 l 87 -87 z m 174 434 l 174 521 l 260 521 l 260 434 z "},"ɾ":{"ha":434,"x_min":0,"x_max":0,"o":"m 0 0 l 0 434 l 87 434 l 87 0 z m 87 434 l 87 521 l 347 521 l 347 434 z "},"ɿ":{"ha":347,"x_min":0,"x_max":0,"o":"m 174 0 l 174 434 l 260 434 l 260 0 z m -87 434 l -87 521 l 174 521 l 174 434 z "},"ʀ":{"ha":521,"x_min":0,"x_max":0,"o":"m 347 0 l 347 87 l 434 87 l 434 0 z m 347 260 l 347 434 l 434 434 l 434 260 z m 0 0 l 0 521 l 347 521 l 347 434 l 87 434 l 87 260 l 347 260 l 347 87 l 260 87 l 260 174 l 87 174 l 87 0 z "},"ʁ":{"ha":521,"x_min":0,"x_max":0,"o":"m 347 87 l 347 260 l 434 260 l 434 87 z m 0 0 l 0 521 l 87 521 l 87 347 l 260 347 l 260 434 l 347 434 l 347 260 l 87 260 l 87 87 l 347 87 l 347 0 z m 347 434 l 347 521 l 434 521 l 434 434 z "},"ʂ":{"ha":434,"x_min":0,"x_max":0,"o":"m 87 -174 l 87 -87 l 260 -87 l 260 -174 z m 0 -87 l 0 87 l 260 87 l 260 0 l 87 0 l 87 -87 z m 260 87 l 260 260 l 347 260 l 347 87 z m 87 260 l 87 347 l 260 347 l 260 260 z m 0 347 l 0 434 l 87 434 l 87 347 z m 87 434 l 87 521 l 347 521 l 347 434 z "},"ʃ":{"ha":521,"x_min":0,"x_max":0,"o":"m 0 -174 l 0 -87 l 174 -87 l 174 -174 z m 174 -87 l 174 694 l 260 694 l 260 -87 z m 260 694 l 260 781 l 434 781 l 434 694 z "},"ʄ":{"ha":434,"x_min":0,"x_max":0,"o":"m -87 -174 l -87 -87 l 87 -87 l 87 -174 z m 87 -87 l 87 174 l -87 174 l -87 260 l 87 260 l 87 694 l 174 694 l 174 260 l 260 260 l 260 174 l 174 174 l 174 -87 z m 174 694 l 174 781 l 347 781 l 347 694 z "},"ʅ":{"ha":434,"x_min":0,"x_max":0,"o":"m 174 0 l 174 87 l 347 87 l 347 0 z m 87 87 l 87 694 l 174 694 l 174 87 z m -87 694 l -87 781 l 87 781 l 87 694 z "},"ʆ":{"ha":608,"x_min":0,"x_max":0,"o":"m 0 -174 l 0 -87 l 174 -87 l 174 -174 z m 260 -174 l 260 -87 l 347 -87 l 347 -174 z m -87 -87 l -87 0 l 0 0 l 0 -87 z m 174 -87 l 174 0 l 260 0 l 260 -87 z m 0 0 l 0 87 l 174 87 l 174 0 z m 260 0 l 260 694 l 347 694 l 347 0 z m 347 694 l 347 781 l 521 781 l 521 694 z "},"ʇ":{"ha":347,"x_min":0,"x_max":0,"o":"m 174 0 l 174 174 l 0 174 l 0 260 l 174 260 l 174 608 l 260 608 l 260 0 z m 0 608 l 0 694 l 174 694 l 174 608 z "},"ʈ":{"ha":347,"x_min":0,"x_max":0,"o":"m 87 -174 l 87 -87 l 260 -87 l 260 -174 z m 0 -87 l 0 694 l 87 694 l 87 521 l 260 521 l 260 434 l 87 434 l 87 -87 z "},"ʉ":{"ha":608,"x_min":0,"x_max":0,"o":"m 87 0 l 87 87 l 347 87 l 347 260 l 87 260 l 87 87 l 0 87 l 0 260 l -87 260 l -87 347 l 0 347 l 0 521 l 87 521 l 87 347 l 347 347 l 347 521 l 434 521 l 434 347 l 521 347 l 521 260 l 434 260 l 434 0 z "},"ʊ":{"ha":521,"x_min":0,"x_max":0,"o":"m 87 0 l 87 87 l 347 87 l 347 0 z m 0 87 l 0 347 l 87 347 l 87 87 z m 347 87 l 347 347 l 434 347 l 434 87 z m 87 347 l 87 434 l 0 434 l 0 521 l 174 521 l 174 347 z m 260 347 l 260 521 l 434 521 l 434 434 l 347 434 l 347 347 z "},"ʋ":{"ha":521,"x_min":0,"x_max":0,"o":"m 87 0 l 87 87 l 260 87 l 260 0 z m 260 87 l 260 174 l 347 174 l 347 87 z m 347 174 l 347 434 l 434 434 l 434 174 z m 0 87 l 0 521 l 87 521 l 87 87 z m 260 434 l 260 521 l 347 521 l 347 434 z "},"ʌ":{"ha":521,"x_min":0,"x_max":0,"o":"m 0 0 l 0 174 l 87 174 l 87 0 z m 347 0 l 347 174 l 434 174 l 434 0 z m 87 174 l 87 347 l 174 347 l 174 174 z m 260 174 l 260 347 l 347 347 l 347 174 z m 174 347 l 174 521 l 260 521 l 260 347 z "},"ʍ":{"ha":694,"x_min":0,"x_max":0,"o":"m 260 0 l 260 174 l 347 174 l 347 0 z m 0 0 l 0 347 l 87 347 l 87 0 z m 174 174 l 174 347 l 260 347 l 260 174 z m 347 174 l 347 347 l 434 347 l 434 174 z m 521 0 l 521 347 l 608 347 l 608 0 z m 87 347 l 87 521 l 174 521 l 174 347 z m 434 347 l 434 521 l 521 521 l 521 347 z "},"ʎ":{"ha":521,"x_min":0,"x_max":0,"o":"m 0 0 l 0 174 l 87 174 l 87 0 z m 347 0 l 347 174 l 434 174 l 434 0 z m 87 174 l 87 347 l 174 347 l 174 174 z m 260 174 l 260 347 l 347 347 l 347 174 z m 174 347 l 174 521 l 260 521 l 260 347 z m 260 521 l 260 694 l 347 694 l 347 521 z "},"ʏ":{"ha":521,"x_min":0,"x_max":0,"o":"m 174 0 l 174 260 l 260 260 l 260 0 z m 87 260 l 87 347 l 174 347 l 174 260 z m 260 260 l 260 347 l 347 347 l 347 260 z m 0 347 l 0 521 l 87 521 l 87 347 z m 347 347 l 347 521 l 434 521 l 434 347 z "},"ʐ":{"ha":608,"x_min":0,"x_max":0,"o":"m 347 -174 l 347 -87 l 521 -87 l 521 -174 z m 260 -87 l 260 0 l 0 0 l 0 174 l 87 174 l 87 87 l 347 87 l 347 -87 z m 87 174 l 87 260 l 174 260 l 174 174 z m 174 260 l 174 347 l 260 347 l 260 260 z m 260 347 l 260 434 l 0 434 l 0 521 l 347 521 l 347 347 z "},"ʑ":{"ha":694,"x_min":0,"x_max":0,"o":"m 87 -87 l 87 0 l 0 0 l 0 174 l 87 174 l 87 87 l 260 87 l 260 174 l 347 174 l 347 87 l 521 87 l 521 0 l 174 0 l 174 -87 z m 521 87 l 521 174 l 608 174 l 608 87 z m 87 174 l 87 260 l 174 260 l 174 174 z m 347 174 l 347 260 l 521 260 l 521 174 z m 174 260 l 174 347 l 260 347 l 260 260 z m 260 347 l 260 434 l 0 434 l 0 521 l 347 521 l 347 347 z "},"ʒ":{"ha":434,"x_min":0,"x_max":0,"o":"m 0 -174 l 0 -87 l 260 -87 l 260 -174 z m 260 -87 l 260 174 l 347 174 l 347 -87 z m 87 174 l 87 260 l 174 260 l 174 347 l 260 347 l 260 174 z m 260 347 l 260 434 l 0 434 l 0 521 l 347 521 l 347 347 z "},"ʓ":{"ha":521,"x_min":0,"x_max":0,"o":"m 87 -174 l 87 -87 l 260 -87 l 260 -174 z m 0 -87 l 0 0 l 87 0 l 87 -87 z m 260 -87 l 260 0 l 87 0 l 87 87 l 260 87 l 260 174 l 347 174 l 347 87 l 434 87 l 434 0 l 347 0 l 347 -87 z m 87 174 l 87 260 l 174 260 l 174 347 l 260 347 l 260 174 z m 260 347 l 260 434 l 0 434 l 0 521 l 347 521 l 347 347 z "},"ʔ":{"ha":521,"x_min":0,"x_max":0,"o":"m 174 0 l 174 347 l 347 347 l 347 260 l 260 260 l 260 0 z m 0 608 l 0 694 l 87 694 l 87 608 z m 347 347 l 347 694 l 434 694 l 434 347 z m 87 694 l 87 781 l 347 781 l 347 694 z "},"ʕ":{"ha":521,"x_min":0,"x_max":0,"o":"m 174 0 l 174 260 l 87 260 l 87 347 l 260 347 l 260 0 z m 0 347 l 0 694 l 87 694 l 87 347 z m 347 608 l 347 694 l 434 694 l 434 608 z m 87 694 l 87 781 l 347 781 l 347 694 z "},"ʖ":{"ha":521,"x_min":0,"x_max":0,"o":"m 87 0 l 87 87 l 347 87 l 347 0 z m 0 87 l 0 174 l 87 174 l 87 87 z m 347 87 l 347 434 l 434 434 l 434 87 z m 174 434 l 174 781 l 260 781 l 260 521 l 347 521 l 347 434 z "},"ʗ":{"ha":434,"x_min":0,"x_max":0,"o":"m 87 -174 l 87 -87 l 347 -87 l 347 -174 z m 0 -87 l 0 434 l 87 434 l 87 -87 z m 87 434 l 87 521 l 347 521 l 347 434 z "},"ʘ":{"ha":694,"x_min":0,"x_max":0,"o":"m 174 0 l 174 87 l 434 87 l 434 0 z m 87 87 l 87 174 l 174 174 l 174 87 z m 434 87 l 434 174 l 521 174 l 521 87 z m 260 347 l 260 434 l 347 434 l 347 347 z m 0 174 l 0 521 l 87 521 l 87 174 z m 521 174 l 521 521 l 608 521 l 608 174 z m 87 521 l 87 608 l 174 608 l 174 521 z m 434 521 l 434 608 l 521 608 l 521 521 z m 174 608 l 174 694 l 434 694 l 434 608 z "},"ʙ":{"ha":521,"x_min":0,"x_max":0,"o":"m 347 87 l 347 260 l 434 260 l 434 87 z m 347 347 l 347 434 l 434 434 l 434 347 z m 0 0 l 0 521 l 347 521 l 347 434 l 87 434 l 87 347 l 347 347 l 347 260 l 87 260 l 87 87 l 347 87 l 347 0 z "},"ʚ":{"ha":521,"x_min":0,"x_max":0,"o":"m 87 0 l 87 87 l 347 87 l 347 0 z m 0 87 l 0 260 l 87 260 l 87 87 z m 87 260 l 87 347 l 260 347 l 260 260 z m 0 347 l 0 434 l 87 434 l 87 347 z m 347 87 l 347 434 l 434 434 l 434 87 z m 87 434 l 87 521 l 347 521 l 347 434 z "},"ʛ":{"ha":694,"x_min":0,"x_max":0,"o":"m 87 0 l 87 87 l 347 87 l 347 174 l 260 174 l 260 260 l 434 260 l 434 0 z m 0 87 l 0 434 l 87 434 l 87 87 z m 347 347 l 347 434 l 87 434 l 87 521 l 347 521 l 347 608 l 434 608 l 434 347 z m 434 608 l 434 694 l 608 694 l 608 608 z "},"ʜ":{"ha":521,"x_min":0,"x_max":0,"o":"m 0 0 l 0 521 l 87 521 l 87 347 l 347 347 l 347 521 l 434 521 l 434 0 l 347 0 l 347 260 l 87 260 l 87 0 z "},"ʝ":{"ha":434,"x_min":0,"x_max":0,"o":"m 0 -174 l 0 -87 l 174 -87 l 174 -174 z m -87 -87 l -87 0 l 0 0 l 0 -87 z m 174 -87 l 174 0 l 0 0 l 0 87 l 174 87 l 174 434 l 87 434 l 87 521 l 260 521 l 260 87 l 347 87 l 347 0 l 260 0 l 260 -87 z m 174 608 l 174 694 l 260 694 l 260 608 z "},"ʞ":{"ha":521,"x_min":0,"x_max":0,"o":"m 87 0 l 87 87 l 174 87 l 174 0 z m 174 87 l 174 174 l 260 174 l 260 87 z m 174 260 l 174 347 l 260 347 l 260 260 z m 87 347 l 87 434 l 174 434 l 174 347 z m 0 434 l 0 521 l 87 521 l 87 434 z m 347 -174 l 347 174 l 260 174 l 260 260 l 347 260 l 347 521 l 434 521 l 434 -174 z "},"ʟ":{"ha":434,"x_min":0,"x_max":0,"o":"m 0 0 l 0 521 l 87 521 l 87 87 l 347 87 l 347 0 z "},"ʠ":{"ha":694,"x_min":0,"x_max":0,"o":"m 0 87 l 0 434 l 87 434 l 87 87 z m 347 -174 l 347 0 l 87 0 l 87 87 l 347 87 l 347 434 l 87 434 l 87 521 l 347 521 l 347 694 l 434 694 l 434 -174 z m 434 694 l 434 781 l 608 781 l 608 694 z "},"ʡ":{"ha":521,"x_min":0,"x_max":0,"o":"m 174 0 l 174 87 l 0 87 l 0 174 l 174 174 l 174 347 l 347 347 l 347 260 l 260 260 l 260 174 l 434 174 l 434 87 l 260 87 l 260 0 z m 0 521 l 0 608 l 87 608 l 87 521 z m 347 347 l 347 608 l 434 608 l 434 347 z m 87 608 l 87 694 l 347 694 l 347 608 z "},"ʢ":{"ha":521,"x_min":0,"x_max":0,"o":"m 174 0 l 174 87 l 0 87 l 0 174 l 174 174 l 174 347 l 347 347 l 347 260 l 260 260 l 260 174 l 434 174 l 434 87 l 260 87 l 260 0 z m 0 521 l 0 608 l 87 608 l 87 521 z m 347 347 l 347 608 l 434 608 l 434 347 z m 87 608 l 87 694 l 347 694 l 347 608 z "},"ʣ":{"ha":868,"x_min":0,"x_max":0,"o":"m 521 174 l 521 260 l 608 260 l 608 174 z m 608 260 l 608 347 l 694 347 l 694 260 z m 0 87 l 0 434 l 87 434 l 87 87 z m 87 0 l 87 87 l 347 87 l 347 434 l 87 434 l 87 521 l 347 521 l 347 781 l 434 781 l 434 521 l 781 521 l 781 347 l 694 347 l 694 434 l 434 434 l 434 174 l 521 174 l 521 87 l 781 87 l 781 0 z "},"ʤ":{"ha":868,"x_min":0,"x_max":0,"o":"m 434 -174 l 434 -87 l 694 -87 l 694 -174 z m 694 -87 l 694 174 l 781 174 l 781 -87 z m 521 174 l 521 260 l 608 260 l 608 347 l 694 347 l 694 174 z m 0 87 l 0 434 l 87 434 l 87 87 z m 87 0 l 87 87 l 347 87 l 347 434 l 87 434 l 87 521 l 347 521 l 347 781 l 434 781 l 434 521 l 781 521 l 781 347 l 694 347 l 694 434 l 434 434 l 434 0 z "},"ʥ":{"ha":1128,"x_min":0,"x_max":0,"o":"m 955 87 l 955 174 l 1042 174 l 1042 87 z m 521 174 l 521 260 l 608 260 l 608 174 z m 781 174 l 781 260 l 955 260 l 955 174 z m 608 260 l 608 347 l 694 347 l 694 260 z m 0 87 l 0 434 l 87 434 l 87 87 z m 521 -87 l 521 0 l 87 0 l 87 87 l 347 87 l 347 434 l 87 434 l 87 521 l 347 521 l 347 781 l 434 781 l 434 521 l 781 521 l 781 347 l 694 347 l 694 434 l 434 434 l 434 174 l 521 174 l 521 87 l 694 87 l 694 174 l 781 174 l 781 87 l 955 87 l 955 0 l 608 0 l 608 -87 z "},"ʦ":{"ha":694,"x_min":0,"x_max":0,"o":"m 87 0 l 87 87 l 521 87 l 521 0 z m 521 87 l 521 260 l 608 260 l 608 87 z m 347 260 l 347 347 l 521 347 l 521 260 z m 0 87 l 0 694 l 87 694 l 87 521 l 608 521 l 608 434 l 347 434 l 347 347 l 260 347 l 260 434 l 87 434 l 87 87 z "},"ʧ":{"ha":608,"x_min":0,"x_max":0,"o":"m 87 -174 l 87 -87 l 260 -87 l 260 -174 z m 260 -87 l 260 0 l 87 0 l 87 87 l 260 87 l 260 434 l 87 434 l 87 87 l 0 87 l 0 694 l 87 694 l 87 521 l 260 521 l 260 694 l 347 694 l 347 -87 z m 347 694 l 347 781 l 521 781 l 521 694 z "},"ʨ":{"ha":868,"x_min":0,"x_max":0,"o":"m 87 0 l 87 87 l 347 87 l 347 0 z m 694 87 l 694 174 l 781 174 l 781 87 z m 521 174 l 521 260 l 694 260 l 694 174 z m 434 0 l 434 87 l 347 87 l 347 434 l 434 434 l 434 174 l 521 174 l 521 87 l 694 87 l 694 0 z m 694 347 l 694 434 l 781 434 l 781 347 z m 434 434 l 434 521 l 694 521 l 694 434 z m 0 87 l 0 694 l 87 694 l 87 521 l 260 521 l 260 434 l 87 434 l 87 87 z "},"ʩ":{"ha":694,"x_min":0,"x_max":0,"o":"m 521 0 l 521 434 l 608 434 l 608 0 z m 0 0 l 0 434 l -87 434 l -87 521 l 0 521 l 0 694 l 87 694 l 87 521 l 521 521 l 521 434 l 260 434 l 260 0 l 174 0 l 174 434 l 87 434 l 87 0 z m 87 694 l 87 781 l 260 781 l 260 694 z "},"ʪ":{"ha":608,"x_min":0,"x_max":0,"o":"m 174 0 l 174 87 l 434 87 l 434 0 z m 434 87 l 434 260 l 521 260 l 521 87 z m 260 260 l 260 347 l 434 347 l 434 260 z m 174 347 l 174 434 l 260 434 l 260 347 z m 260 434 l 260 521 l 521 521 l 521 434 z m 0 0 l 0 781 l 87 781 l 87 174 l 174 174 l 174 87 l 87 87 l 87 0 z "},"ʫ":{"ha":521,"x_min":0,"x_max":0,"o":"m 174 174 l 174 260 l 260 260 l 260 174 z m 260 260 l 260 347 l 347 347 l 347 260 z m 0 0 l 0 781 l 87 781 l 87 521 l 434 521 l 434 347 l 347 347 l 347 434 l 87 434 l 87 174 l 174 174 l 174 87 l 434 87 l 434 0 z "},"ʬ":{"ha":608,"x_min":0,"x_max":0,"o":"m 87 0 l 87 174 l 174 174 l 174 0 z m 347 0 l 347 174 l 434 174 l 434 0 z m 0 174 l 0 347 l 87 347 l 87 174 z m 174 174 l 174 347 l 347 347 l 347 174 z m 434 174 l 434 347 l 521 347 l 521 174 z m 87 434 l 87 608 l 174 608 l 174 434 z m 347 434 l 347 608 l 434 608 l 434 434 z m 0 608 l 0 781 l 87 781 l 87 608 z m 174 608 l 174 781 l 347 781 l 347 608 z m 434 608 l 434 781 l 521 781 l 521 608 z "},"ʭ":{"ha":608,"x_min":0,"x_max":0,"o":"m 0 0 l 0 260 l 521 260 l 521 0 l 434 0 l 434 174 l 87 174 l 87 0 z m 0 521 l 0 781 l 521 781 l 521 521 l 434 521 l 434 694 l 87 694 l 87 521 z "},"ʮ":{"ha":608,"x_min":0,"x_max":0,"o":"m 87 87 l 87 434 l 174 434 l 174 87 z m -87 434 l -87 521 l 87 521 l 87 434 z m 434 -174 l 434 0 l 174 0 l 174 87 l 434 87 l 434 521 l 521 521 l 521 -174 z "},"ʯ":{"ha":781,"x_min":0,"x_max":0,"o":"m 521 -174 l 521 -87 l 694 -87 l 694 -174 z m 87 87 l 87 434 l 174 434 l 174 87 z m -87 434 l -87 521 l 87 521 l 87 434 z m 434 -87 l 434 0 l 174 0 l 174 87 l 434 87 l 434 521 l 521 521 l 521 -87 z "},"ʰ":{"ha":174,"x_min":0,"x_max":0,"o":"m 0 608 l 0 694 l 87 694 l 87 608 z "},"ˆ":{"ha":521,"x_min":0,"x_max":0,"o":"m 87 608 l 87 694 l 174 694 l 174 608 z m 347 608 l 347 694 l 434 694 l 434 608 z m 174 694 l 174 781 l 347 781 l 347 694 z "},"ˇ":{"ha":521,"x_min":0,"x_max":0,"o":"m 174 608 l 174 694 l 347 694 l 347 608 z m 87 694 l 87 781 l 174 781 l 174 694 z m 347 694 l 347 781 l 434 781 l 434 694 z "},"ˉ":{"ha":521,"x_min":0,"x_max":0,"o":"m 87 608 l 87 694 l 434 694 l 434 608 z "},"˘":{"ha":521,"x_min":0,"x_max":0,"o":"m 174 608 l 174 694 l 347 694 l 347 608 z m 87 694 l 87 781 l 174 781 l 174 694 z m 347 694 l 347 781 l 434 781 l 434 694 z "},"˙":{"ha":347,"x_min":0,"x_max":0,"o":"m 174 608 l 174 694 l 260 694 l 260 608 z "},"˚":{"ha":608,"x_min":0,"x_max":0,"o":"m 347 521 l 347 608 l 434 608 l 434 521 z m 260 608 l 260 694 l 347 694 l 347 608 z m 434 608 l 434 694 l 521 694 l 521 608 z m 347 694 l 347 781 l 434 781 l 434 694 z "},"˛":{"ha":434,"x_min":0,"x_max":0,"o":"m 174 -174 l 174 0 l 260 0 l 260 -87 l 347 -87 l 347 -174 z "},"˜":{"ha":608,"x_min":0,"x_max":0,"o":"m 174 608 l 174 781 l 347 781 l 347 694 l 260 694 l 260 608 z m 347 608 l 347 694 l 434 694 l 434 781 l 521 781 l 521 608 z "},"˝":{"ha":521,"x_min":0,"x_max":0,"o":"m 87 608 l 87 694 l 174 694 l 174 608 z m 260 608 l 260 694 l 347 694 l 347 608 z m 174 694 l 174 781 l 260 781 l 260 694 z m 347 694 l 347 781 l 434 781 l 434 694 z "},";":{"ha":260,"x_min":0,"x_max":0,"o":"m 0 -174 l 0 -87 l 87 -87 l 87 -174 z m 87 -87 l 87 174 l 174 174 l 174 -87 z m 87 347 l 87 521 l 174 521 l 174 347 z "},"΄":{"ha":434,"x_min":0,"x_max":0,"o":"m 260 608 l 260 781 l 347 781 l 347 608 z "},"΅":{"ha":694,"x_min":0,"x_max":0,"o":"m 174 608 l 174 694 l 260 694 l 260 608 z m 521 608 l 521 694 l 608 694 l 608 608 z m 347 608 l 347 781 l 434 781 l 434 608 z "},"Ά":{"ha":694,"x_min":0,"x_max":0,"o":"m 87 0 l 87 260 l 174 260 l 174 521 l 260 521 l 260 260 l 434 260 l 434 521 l 521 521 l 521 260 l 608 260 l 608 0 l 521 0 l 521 174 l 174 174 l 174 0 z m 0 521 l 0 694 l 87 694 l 87 521 z m 260 521 l 260 694 l 434 694 l 434 521 z "},"·":{"ha":260,"x_min":0,"x_max":0,"o":"m 87 347 l 87 521 l 174 521 l 174 347 z "},"Έ":{"ha":694,"x_min":0,"x_max":0,"o":"m 0 521 l 0 694 l 87 694 l 87 521 z m 174 0 l 174 694 l 608 694 l 608 608 l 260 608 l 260 434 l 521 434 l 521 347 l 260 347 l 260 87 l 608 87 l 608 0 z "},"Ή":{"ha":781,"x_min":0,"x_max":0,"o":"m 0 521 l 0 694 l 87 694 l 87 521 z m 174 0 l 174 694 l 260 694 l 260 434 l 608 434 l 608 694 l 694 694 l 694 0 l 608 0 l 608 347 l 260 347 l 260 0 z "},"Ί":{"ha":521,"x_min":0,"x_max":0,"o":"m 0 521 l 0 694 l 87 694 l 87 521 z m 174 0 l 174 87 l 260 87 l 260 608 l 174 608 l 174 694 l 434 694 l 434 608 l 347 608 l 347 87 l 434 87 l 434 0 z "},"Ό":{"ha":781,"x_min":0,"x_max":0,"o":"m 260 0 l 260 87 l 521 87 l 521 0 z m 174 87 l 174 174 l 260 174 l 260 87 z m 521 87 l 521 174 l 608 174 l 608 87 z m 87 174 l 87 521 l 174 521 l 174 174 z m 608 174 l 608 521 l 694 521 l 694 174 z m 174 521 l 174 608 l 260 608 l 260 521 z m 521 521 l 521 608 l 608 608 l 608 521 z m 0 521 l 0 694 l 87 694 l 87 521 z m 260 608 l 260 694 l 521 694 l 521 608 z "},"Ύ":{"ha":694,"x_min":0,"x_max":0,"o":"m 347 0 l 347 347 l 434 347 l 434 0 z m 260 347 l 260 521 l 347 521 l 347 347 z m 434 347 l 434 521 l 521 521 l 521 347 z m 0 521 l 0 694 l 87 694 l 87 521 z m 174 521 l 174 694 l 260 694 l 260 521 z m 521 521 l 521 694 l 608 694 l 608 521 z "},"Ώ":{"ha":781,"x_min":0,"x_max":0,"o":"m 87 0 l 87 87 l 260 87 l 260 174 l 347 174 l 347 0 z m 434 0 l 434 174 l 521 174 l 521 87 l 694 87 l 694 0 z m 174 174 l 174 260 l 260 260 l 260 174 z m 521 174 l 521 260 l 608 260 l 608 174 z m 87 260 l 87 521 l 174 521 l 174 260 z m 608 260 l 608 521 l 694 521 l 694 260 z m 174 521 l 174 608 l 260 608 l 260 521 z m 521 521 l 521 608 l 608 608 l 608 521 z m 0 521 l 0 694 l 87 694 l 87 521 z m 260 608 l 260 694 l 521 694 l 521 608 z "},"ΐ":{"ha":434,"x_min":0,"x_max":0,"o":"m 87 0 l 87 521 l 174 521 l 174 0 z m -87 608 l -87 694 l 0 694 l 0 608 z m 260 608 l 260 694 l 347 694 l 347 608 z m 87 608 l 87 781 l 174 781 l 174 608 z "},"Α":{"ha":608,"x_min":0,"x_max":0,"o":"m 0 0 l 0 260 l 87 260 l 87 521 l 174 521 l 174 260 l 347 260 l 347 521 l 434 521 l 434 260 l 521 260 l 521 0 l 434 0 l 434 174 l 87 174 l 87 0 z m 174 521 l 174 694 l 347 694 l 347 521 z "},"Β":{"ha":521,"x_min":0,"x_max":0,"o":"m 347 87 l 347 347 l 434 347 l 434 87 z m 347 434 l 347 608 l 434 608 l 434 434 z m 0 0 l 0 694 l 347 694 l 347 608 l 87 608 l 87 434 l 347 434 l 347 347 l 87 347 l 87 87 l 347 87 l 347 0 z "},"Γ":{"ha":521,"x_min":0,"x_max":0,"o":"m 0 0 l 0 694 l 434 694 l 434 608 l 87 608 l 87 0 z "},"Δ":{"ha":608,"x_min":0,"x_max":0,"o":"m 0 0 l 0 174 l 87 174 l 87 87 l 434 87 l 434 174 l 521 174 l 521 0 z m 87 174 l 87 434 l 174 434 l 174 174 z m 347 174 l 347 434 l 434 434 l 434 174 z m 174 434 l 174 694 l 347 694 l 347 434 z "},"Ε":{"ha":521,"x_min":0,"x_max":0,"o":"m 0 0 l 0 694 l 434 694 l 434 608 l 87 608 l 87 434 l 347 434 l 347 347 l 87 347 l 87 87 l 434 87 l 434 0 z "},"Ζ":{"ha":521,"x_min":0,"x_max":0,"o":"m 0 0 l 0 174 l 87 174 l 87 87 l 434 87 l 434 0 z m 87 174 l 87 260 l 174 260 l 174 174 z m 174 260 l 174 434 l 260 434 l 260 260 z m 260 434 l 260 521 l 347 521 l 347 434 z m 347 521 l 347 608 l 0 608 l 0 694 l 434 694 l 434 521 z "},"Η":{"ha":608,"x_min":0,"x_max":0,"o":"m 0 0 l 0 694 l 87 694 l 87 434 l 434 434 l 434 694 l 521 694 l 521 0 l 434 0 l 434 347 l 87 347 l 87 0 z "},"Θ":{"ha":694,"x_min":0,"x_max":0,"o":"m 174 0 l 174 87 l 434 87 l 434 0 z m 87 87 l 87 174 l 174 174 l 174 87 z m 434 87 l 434 174 l 521 174 l 521 87 z m 174 347 l 174 434 l 434 434 l 434 347 z m 0 174 l 0 521 l 87 521 l 87 174 z m 521 174 l 521 521 l 608 521 l 608 174 z m 87 521 l 87 608 l 174 608 l 174 521 z m 434 521 l 434 608 l 521 608 l 521 521 z m 174 608 l 174 694 l 434 694 l 434 608 z "},"Ι":{"ha":347,"x_min":0,"x_max":0,"o":"m 0 0 l 0 87 l 87 87 l 87 608 l 0 608 l 0 694 l 260 694 l 260 608 l 174 608 l 174 87 l 260 87 l 260 0 z "},"Κ":{"ha":521,"x_min":0,"x_max":0,"o":"m 347 0 l 347 87 l 434 87 l 434 0 z m 260 87 l 260 174 l 347 174 l 347 87 z m 174 174 l 174 260 l 260 260 l 260 174 z m 174 434 l 174 521 l 260 521 l 260 434 z m 260 521 l 260 608 l 347 608 l 347 521 z m 0 0 l 0 694 l 87 694 l 87 434 l 174 434 l 174 260 l 87 260 l 87 0 z m 347 608 l 347 694 l 434 694 l 434 608 z "},"Λ":{"ha":608,"x_min":0,"x_max":0,"o":"m 0 0 l 0 260 l 87 260 l 87 0 z m 434 0 l 434 260 l 521 260 l 521 0 z m 87 260 l 87 521 l 174 521 l 174 260 z m 347 260 l 347 521 l 434 521 l 434 260 z m 174 521 l 174 694 l 347 694 l 347 521 z "},"Μ":{"ha":694,"x_min":0,"x_max":0,"o":"m 260 174 l 260 347 l 347 347 l 347 174 z m 174 347 l 174 521 l 260 521 l 260 347 z m 347 347 l 347 521 l 434 521 l 434 347 z m 0 0 l 0 694 l 174 694 l 174 521 l 87 521 l 87 0 z m 521 0 l 521 521 l 434 521 l 434 694 l 608 694 l 608 0 z "},"Ν":{"ha":608,"x_min":0,"x_max":0,"o":"m 260 174 l 260 347 l 347 347 l 347 174 z m 174 347 l 174 521 l 260 521 l 260 347 z m 0 0 l 0 694 l 174 694 l 174 521 l 87 521 l 87 0 z m 347 0 l 347 174 l 434 174 l 434 694 l 521 694 l 521 0 z "},"Ξ":{"ha":521,"x_min":0,"x_max":0,"o":"m 0 0 l 0 87 l 434 87 l 434 0 z m 0 347 l 0 434 l 434 434 l 434 347 z m 0 608 l 0 694 l 434 694 l 434 608 z "},"Ο":{"ha":694,"x_min":0,"x_max":0,"o":"m 174 0 l 174 87 l 434 87 l 434 0 z m 87 87 l 87 174 l 174 174 l 174 87 z m 434 87 l 434 174 l 521 174 l 521 87 z m 0 174 l 0 521 l 87 521 l 87 174 z m 521 174 l 521 521 l 608 521 l 608 174 z m 87 521 l 87 608 l 174 608 l 174 521 z m 434 521 l 434 608 l 521 608 l 521 521 z m 174 608 l 174 694 l 434 694 l 434 608 z "},"Π":{"ha":608,"x_min":0,"x_max":0,"o":"m 0 0 l 0 694 l 521 694 l 521 0 l 434 0 l 434 608 l 87 608 l 87 0 z "},"Ρ":{"ha":521,"x_min":0,"x_max":0,"o":"m 347 347 l 347 608 l 434 608 l 434 347 z m 0 0 l 0 694 l 347 694 l 347 608 l 87 608 l 87 347 l 347 347 l 347 260 l 87 260 l 87 0 z "},"Σ":{"ha":521,"x_min":0,"x_max":0,"o":"m 0 0 l 0 174 l 87 174 l 87 87 l 434 87 l 434 0 z m 87 174 l 87 260 l 174 260 l 174 174 z m 174 260 l 174 347 l 260 347 l 260 260 z m 260 347 l 260 434 l 347 434 l 347 347 z m 174 434 l 174 521 l 260 521 l 260 434 z m 87 521 l 87 608 l 0 608 l 0 694 l 434 694 l 434 608 l 174 608 l 174 521 z "},"Τ":{"ha":521,"x_min":0,"x_max":0,"o":"m 174 0 l 174 608 l 0 608 l 0 694 l 434 694 l 434 608 l 260 608 l 260 0 z "},"Υ":{"ha":521,"x_min":0,"x_max":0,"o":"m 174 0 l 174 347 l 260 347 l 260 0 z m 87 347 l 87 521 l 174 521 l 174 347 z m 260 347 l 260 521 l 347 521 l 347 347 z m 0 521 l 0 694 l 87 694 l 87 521 z m 347 521 l 347 694 l 434 694 l 434 521 z "},"Φ":{"ha":694,"x_min":0,"x_max":0,"o":"m 0 174 l 0 521 l 87 521 l 87 174 z m 521 174 l 521 521 l 608 521 l 608 174 z m 260 0 l 260 87 l 87 87 l 87 174 l 260 174 l 260 521 l 87 521 l 87 608 l 260 608 l 260 694 l 347 694 l 347 608 l 521 608 l 521 521 l 347 521 l 347 174 l 521 174 l 521 87 l 347 87 l 347 0 z "},"Χ":{"ha":521,"x_min":0,"x_max":0,"o":"m 0 0 l 0 174 l 87 174 l 87 0 z m 347 0 l 347 174 l 434 174 l 434 0 z m 87 174 l 87 260 l 174 260 l 174 174 z m 260 174 l 260 260 l 347 260 l 347 174 z m 174 260 l 174 434 l 260 434 l 260 260 z m 87 434 l 87 521 l 174 521 l 174 434 z m 260 434 l 260 521 l 347 521 l 347 434 z m 0 521 l 0 694 l 87 694 l 87 521 z m 347 521 l 347 694 l 434 694 l 434 521 z "},"Ψ":{"ha":694,"x_min":0,"x_max":0,"o":"m 0 260 l 0 694 l 87 694 l 87 260 z m 260 0 l 260 174 l 87 174 l 87 260 l 260 260 l 260 694 l 347 694 l 347 260 l 521 260 l 521 174 l 347 174 l 347 0 z m 521 260 l 521 694 l 608 694 l 608 260 z "},"Ω":{"ha":694,"x_min":0,"x_max":0,"o":"m 0 0 l 0 87 l 174 87 l 174 174 l 260 174 l 260 0 z m 347 0 l 347 174 l 434 174 l 434 87 l 608 87 l 608 0 z m 87 174 l 87 260 l 174 260 l 174 174 z m 434 174 l 434 260 l 521 260 l 521 174 z m 0 260 l 0 521 l 87 521 l 87 260 z m 521 260 l 521 521 l 608 521 l 608 260 z m 87 521 l 87 608 l 174 608 l 174 521 z m 434 521 l 434 608 l 521 608 l 521 521 z m 174 608 l 174 694 l 434 694 l 434 608 z "},"Ϊ":{"ha":347,"x_min":0,"x_max":0,"o":"m 0 0 l 0 87 l 87 87 l 87 608 l 0 608 l 0 694 l 260 694 l 260 608 l 174 608 l 174 87 l 260 87 l 260 0 z m 0 781 l 0 868 l 87 868 l 87 781 z m 174 781 l 174 868 l 260 868 l 260 781 z "},"Ϋ":{"ha":521,"x_min":0,"x_max":0,"o":"m 174 0 l 174 347 l 260 347 l 260 0 z m 87 347 l 87 521 l 174 521 l 174 347 z m 260 347 l 260 521 l 347 521 l 347 347 z m 0 521 l 0 694 l 87 694 l 87 521 z m 347 521 l 347 694 l 434 694 l 434 521 z m 87 781 l 87 868 l 174 868 l 174 781 z m 260 781 l 260 868 l 347 868 l 347 781 z "},"ά":{"ha":521,"x_min":0,"x_max":0,"o":"m 0 87 l 0 434 l 87 434 l 87 87 z m 87 0 l 87 87 l 347 87 l 347 434 l 87 434 l 87 521 l 434 521 l 434 0 z m 174 608 l 174 781 l 260 781 l 260 608 z "},"έ":{"ha":434,"x_min":0,"x_max":0,"o":"m 87 0 l 87 87 l 347 87 l 347 0 z m 0 87 l 0 260 l 87 260 l 87 87 z m 87 260 l 87 347 l 260 347 l 260 260 z m 0 347 l 0 434 l 87 434 l 87 347 z m 87 434 l 87 521 l 347 521 l 347 434 z m 174 608 l 174 781 l 260 781 l 260 608 z "},"ή":{"ha":521,"x_min":0,"x_max":0,"o":"m 347 -174 l 347 434 l 434 434 l 434 -174 z m 0 0 l 0 521 l 347 521 l 347 434 l 87 434 l 87 0 z m 174 608 l 174 781 l 260 781 l 260 608 z "},"ί":{"ha":174,"x_min":0,"x_max":0,"o":"m 0 0 l 0 521 l 87 521 l 87 0 z m 0 608 l 0 781 l 87 781 l 87 608 z "},"ΰ":{"ha":521,"x_min":0,"x_max":0,"o":"m 87 0 l 87 87 l 347 87 l 347 0 z m 0 87 l 0 521 l 87 521 l 87 87 z m 347 87 l 347 521 l 434 521 l 434 87 z m 0 608 l 0 694 l 87 694 l 87 608 z m 347 608 l 347 694 l 434 694 l 434 608 z m 174 608 l 174 781 l 260 781 l 260 608 z "},"α":{"ha":521,"x_min":0,"x_max":0,"o":"m 0 87 l 0 434 l 87 434 l 87 87 z m 87 0 l 87 87 l 347 87 l 347 434 l 87 434 l 87 521 l 434 521 l 434 0 z "},"β":{"ha":521,"x_min":0,"x_max":0,"o":"m 347 87 l 347 347 l 434 347 l 434 87 z m 174 347 l 174 434 l 347 434 l 347 347 z m 0 -174 l 0 694 l 87 694 l 87 87 l 347 87 l 347 0 l 87 0 l 87 -174 z m 347 434 l 347 694 l 434 694 l 434 434 z m 87 694 l 87 781 l 347 781 l 347 694 z "},"γ":{"ha":521,"x_min":0,"x_max":0,"o":"m 174 -174 l 174 174 l 260 174 l 260 -174 z m 87 174 l 87 347 l 174 347 l 174 174 z m 260 174 l 260 347 l 347 347 l 347 174 z m 0 347 l 0 521 l 87 521 l 87 347 z m 347 347 l 347 521 l 434 521 l 434 347 z "},"δ":{"ha":521,"x_min":0,"x_max":0,"o":"m 87 0 l 87 87 l 347 87 l 347 0 z m 0 87 l 0 434 l 87 434 l 87 87 z m 347 87 l 347 434 l 434 434 l 434 87 z m 87 434 l 87 521 l 174 521 l 174 434 z m 260 434 l 260 521 l 347 521 l 347 434 z m 174 521 l 174 608 l 260 608 l 260 521 z m 87 608 l 87 781 l 347 781 l 347 694 l 174 694 l 174 608 z "},"ε":{"ha":434,"x_min":0,"x_max":0,"o":"m 87 0 l 87 87 l 347 87 l 347 0 z m 0 87 l 0 260 l 87 260 l 87 87 z m 87 260 l 87 347 l 260 347 l 260 260 z m 0 347 l 0 434 l 87 434 l 87 347 z m 87 434 l 87 521 l 347 521 l 347 434 z "},"ζ":{"ha":434,"x_min":0,"x_max":0,"o":"m 174 -174 l 174 -87 l 260 -87 l 260 -174 z m 260 -87 l 260 0 l 87 0 l 87 87 l 347 87 l 347 -87 z m 0 87 l 0 434 l 87 434 l 87 87 z m 87 434 l 87 608 l 174 608 l 174 434 z m 174 608 l 174 694 l 0 694 l 0 781 l 347 781 l 347 694 l 260 694 l 260 608 z "},"η":{"ha":521,"x_min":0,"x_max":0,"o":"m 347 -174 l 347 434 l 434 434 l 434 -174 z m 0 0 l 0 521 l 347 521 l 347 434 l 87 434 l 87 0 z "},"θ":{"ha":521,"x_min":0,"x_max":0,"o":"m 87 0 l 87 87 l 347 87 l 347 0 z m 0 87 l 0 694 l 87 694 l 87 434 l 347 434 l 347 694 l 434 694 l 434 87 l 347 87 l 347 347 l 87 347 l 87 87 z m 87 694 l 87 781 l 347 781 l 347 694 z "},"ι":{"ha":174,"x_min":0,"x_max":0,"o":"m 0 0 l 0 521 l 87 521 l 87 0 z "},"κ":{"ha":521,"x_min":0,"x_max":0,"o":"m 347 0 l 347 87 l 434 87 l 434 0 z m 260 87 l 260 174 l 347 174 l 347 87 z m 174 174 l 174 260 l 260 260 l 260 174 z m 174 347 l 174 434 l 260 434 l 260 347 z m 0 0 l 0 521 l 87 521 l 87 347 l 174 347 l 174 260 l 87 260 l 87 0 z m 260 434 l 260 521 l 434 521 l 434 434 z "},"λ":{"ha":521,"x_min":0,"x_max":0,"o":"m 0 0 l 0 174 l 87 174 l 87 0 z m 347 0 l 347 174 l 434 174 l 434 0 z m 87 174 l 87 347 l 174 347 l 174 174 z m 260 174 l 260 347 l 347 347 l 347 174 z m 174 347 l 174 521 l 260 521 l 260 347 z m 87 521 l 87 694 l 174 694 l 174 521 z m 0 694 l 0 781 l 87 781 l 87 694 z "},"μ":{"ha":521,"x_min":0,"x_max":0,"o":"m 0 -174 l 0 521 l 87 521 l 87 87 l 260 87 l 260 0 l 87 0 l 87 -174 z m 347 0 l 347 87 l 260 87 l 260 174 l 347 174 l 347 521 l 434 521 l 434 0 z "},"ν":{"ha":521,"x_min":0,"x_max":0,"o":"m 174 0 l 174 174 l 260 174 l 260 0 z m 87 174 l 87 347 l 174 347 l 174 174 z m 260 174 l 260 347 l 347 347 l 347 174 z m 0 347 l 0 521 l 87 521 l 87 347 z m 347 347 l 347 521 l 434 521 l 434 347 z "},"ξ":{"ha":434,"x_min":0,"x_max":0,"o":"m 174 -174 l 174 -87 l 260 -87 l 260 -174 z m 260 -87 l 260 0 l 87 0 l 87 87 l 347 87 l 347 -87 z m 0 87 l 0 260 l 87 260 l 87 87 z m 87 260 l 87 434 l 347 434 l 347 347 l 174 347 l 174 260 z m 0 434 l 0 608 l 87 608 l 87 434 z m 87 608 l 87 694 l 0 694 l 0 781 l 347 781 l 347 694 l 174 694 l 174 608 z "},"ο":{"ha":521,"x_min":0,"x_max":0,"o":"m 87 0 l 87 87 l 347 87 l 347 0 z m 0 87 l 0 434 l 87 434 l 87 87 z m 347 87 l 347 434 l 434 434 l 434 87 z m 87 434 l 87 521 l 347 521 l 347 434 z "},"π":{"ha":521,"x_min":0,"x_max":0,"o":"m 0 0 l 0 521 l 434 521 l 434 0 l 347 0 l 347 434 l 87 434 l 87 0 z "},"ρ":{"ha":521,"x_min":0,"x_max":0,"o":"m 0 -174 l 0 434 l 87 434 l 87 87 l 347 87 l 347 0 l 87 0 l 87 -174 z m 347 87 l 347 434 l 434 434 l 434 87 z m 87 434 l 87 521 l 347 521 l 347 434 z "},"ς":{"ha":434,"x_min":0,"x_max":0,"o":"m 174 -174 l 174 -87 l 260 -87 l 260 -174 z m 260 -87 l 260 0 l 87 0 l 87 87 l 347 87 l 347 -87 z m 0 87 l 0 347 l 87 347 l 87 87 z m 87 347 l 87 434 l 174 434 l 174 347 z m 174 434 l 174 521 l 347 521 l 347 434 z "},"σ":{"ha":608,"x_min":0,"x_max":0,"o":"m 87 0 l 87 87 l 347 87 l 347 0 z m 0 87 l 0 434 l 87 434 l 87 87 z m 347 87 l 347 434 l 87 434 l 87 521 l 521 521 l 521 434 l 434 434 l 434 87 z "},"τ":{"ha":521,"x_min":0,"x_max":0,"o":"m 174 0 l 174 434 l 0 434 l 0 521 l 434 521 l 434 434 l 260 434 l 260 0 z "},"υ":{"ha":521,"x_min":0,"x_max":0,"o":"m 87 0 l 87 87 l 347 87 l 347 0 z m 0 87 l 0 521 l 87 521 l 87 87 z m 347 87 l 347 521 l 434 521 l 434 87 z "},"φ":{"ha":694,"x_min":0,"x_max":0,"o":"m 0 87 l 0 434 l 87 434 l 87 87 z m 521 87 l 521 434 l 608 434 l 608 87 z m 87 434 l 87 521 l 174 521 l 174 434 z m 260 -174 l 260 0 l 87 0 l 87 87 l 260 87 l 260 521 l 521 521 l 521 434 l 347 434 l 347 87 l 521 87 l 521 0 l 347 0 l 347 -174 z "},"χ":{"ha":521,"x_min":0,"x_max":0,"o":"m 0 -174 l 0 0 l 87 0 l 87 -174 z m 347 -174 l 347 0 l 434 0 l 434 -174 z m 87 0 l 87 87 l 174 87 l 174 0 z m 260 0 l 260 87 l 347 87 l 347 0 z m 174 87 l 174 260 l 260 260 l 260 87 z m 87 260 l 87 347 l 174 347 l 174 260 z m 260 260 l 260 347 l 347 347 l 347 260 z m 0 347 l 0 521 l 87 521 l 87 347 z m 347 347 l 347 521 l 434 521 l 434 347 z "},"ψ":{"ha":694,"x_min":0,"x_max":0,"o":"m 0 87 l 0 521 l 87 521 l 87 87 z m 260 -174 l 260 0 l 87 0 l 87 87 l 260 87 l 260 521 l 347 521 l 347 87 l 521 87 l 521 0 l 347 0 l 347 -174 z m 521 87 l 521 521 l 608 521 l 608 87 z "},"ω":{"ha":694,"x_min":0,"x_max":0,"o":"m 87 0 l 87 87 l 260 87 l 260 0 z m 347 0 l 347 87 l 521 87 l 521 0 z m 0 87 l 0 434 l 87 434 l 87 87 z m 260 87 l 260 434 l 347 434 l 347 87 z m 521 87 l 521 434 l 608 434 l 608 87 z m 87 434 l 87 521 l 174 521 l 174 434 z m 434 434 l 434 521 l 521 521 l 521 434 z "},"ϊ":{"ha":347,"x_min":0,"x_max":0,"o":"m 87 0 l 87 521 l 174 521 l 174 0 z m 0 608 l 0 694 l 87 694 l 87 608 z m 174 608 l 174 694 l 260 694 l 260 608 z "},"ϋ":{"ha":521,"x_min":0,"x_max":0,"o":"m 87 0 l 87 87 l 347 87 l 347 0 z m 0 87 l 0 521 l 87 521 l 87 87 z m 347 87 l 347 521 l 434 521 l 434 87 z m 87 608 l 87 694 l 174 694 l 174 608 z m 260 608 l 260 694 l 347 694 l 347 608 z "},"ό":{"ha":521,"x_min":0,"x_max":0,"o":"m 87 0 l 87 87 l 347 87 l 347 0 z m 0 87 l 0 434 l 87 434 l 87 87 z m 347 87 l 347 434 l 434 434 l 434 87 z m 87 434 l 87 521 l 347 521 l 347 434 z m 174 608 l 174 781 l 260 781 l 260 608 z "},"ύ":{"ha":521,"x_min":0,"x_max":0,"o":"m 87 0 l 87 87 l 347 87 l 347 0 z m 0 87 l 0 521 l 87 521 l 87 87 z m 347 87 l 347 521 l 434 521 l 434 87 z m 174 608 l 174 781 l 260 781 l 260 608 z "},"ώ":{"ha":694,"x_min":0,"x_max":0,"o":"m 87 0 l 87 87 l 260 87 l 260 0 z m 347 0 l 347 87 l 521 87 l 521 0 z m 0 87 l 0 434 l 87 434 l 87 87 z m 260 87 l 260 434 l 347 434 l 347 87 z m 521 87 l 521 434 l 608 434 l 608 87 z m 87 434 l 87 521 l 174 521 l 174 434 z m 434 434 l 434 521 l 521 521 l 521 434 z m 260 608 l 260 781 l 347 781 l 347 608 z "},"Ѐ":{"ha":521,"x_min":0,"x_max":0,"o":"m 0 0 l 0 694 l 434 694 l 434 608 l 87 608 l 87 434 l 347 434 l 347 347 l 87 347 l 87 87 l 434 87 l 434 0 z m 260 781 l 260 868 l 347 868 l 347 781 z m 174 868 l 174 955 l 260 955 l 260 868 z "},"Ё":{"ha":521,"x_min":0,"x_max":0,"o":"m 0 0 l 0 694 l 434 694 l 434 608 l 87 608 l 87 434 l 347 434 l 347 347 l 87 347 l 87 87 l 434 87 l 434 0 z m 87 781 l 87 868 l 174 868 l 174 781 z m 260 781 l 260 868 l 347 868 l 347 781 z "},"Ђ":{"ha":694,"x_min":0,"x_max":0,"o":"m 434 0 l 434 87 l 521 87 l 521 0 z m 521 87 l 521 347 l 608 347 l 608 87 z m 174 0 l 174 608 l 0 608 l 0 694 l 521 694 l 521 608 l 260 608 l 260 434 l 521 434 l 521 347 l 260 347 l 260 0 z "},"Ѓ":{"ha":521,"x_min":0,"x_max":0,"o":"m 0 0 l 0 694 l 434 694 l 434 608 l 87 608 l 87 0 z m 174 781 l 174 868 l 260 868 l 260 781 z m 260 868 l 260 955 l 347 955 l 347 868 z "},"Є":{"ha":608,"x_min":0,"x_max":0,"o":"m 174 0 l 174 87 l 521 87 l 521 0 z m 87 87 l 87 174 l 174 174 l 174 87 z m 0 174 l 0 521 l 87 521 l 87 434 l 434 434 l 434 347 l 87 347 l 87 174 z m 87 521 l 87 608 l 174 608 l 174 521 z m 174 608 l 174 694 l 521 694 l 521 608 z "},"Ѕ":{"ha":521,"x_min":0,"x_max":0,"o":"m 0 0 l 0 87 l 347 87 l 347 0 z m 347 87 l 347 347 l 434 347 l 434 87 z m 87 347 l 87 434 l 347 434 l 347 347 z m 0 434 l 0 608 l 87 608 l 87 434 z m 87 608 l 87 694 l 434 694 l 434 608 z "},"І":{"ha":347,"x_min":0,"x_max":0,"o":"m 0 0 l 0 87 l 87 87 l 87 608 l 0 608 l 0 694 l 260 694 l 260 608 l 174 608 l 174 87 l 260 87 l 260 0 z "},"Ї":{"ha":347,"x_min":0,"x_max":0,"o":"m 0 0 l 0 87 l 87 87 l 87 608 l 0 608 l 0 694 l 260 694 l 260 608 l 174 608 l 174 87 l 260 87 l 260 0 z m 0 781 l 0 868 l 87 868 l 87 781 z m 174 781 l 174 868 l 260 868 l 260 781 z "},"Ј":{"ha":434,"x_min":0,"x_max":0,"o":"m 0 0 l 0 87 l 260 87 l 260 0 z m 260 87 l 260 608 l 87 608 l 87 694 l 347 694 l 347 87 z "},"Љ":{"ha":955,"x_min":0,"x_max":0,"o":"m 0 0 l 0 87 l 87 87 l 87 0 z m 781 87 l 781 347 l 868 347 l 868 87 z m 434 0 l 434 608 l 174 608 l 174 87 l 87 87 l 87 694 l 521 694 l 521 434 l 781 434 l 781 347 l 521 347 l 521 87 l 781 87 l 781 0 z "},"Њ":{"ha":955,"x_min":0,"x_max":0,"o":"m 781 87 l 781 347 l 868 347 l 868 87 z m 0 0 l 0 694 l 87 694 l 87 434 l 434 434 l 434 694 l 521 694 l 521 434 l 781 434 l 781 347 l 521 347 l 521 87 l 781 87 l 781 0 l 434 0 l 434 347 l 87 347 l 87 0 z "},"Ћ":{"ha":694,"x_min":0,"x_max":0,"o":"m 521 0 l 521 347 l 608 347 l 608 0 z m 174 0 l 174 608 l 0 608 l 0 694 l 521 694 l 521 608 l 260 608 l 260 434 l 521 434 l 521 347 l 260 347 l 260 0 z "},"Ќ":{"ha":608,"x_min":0,"x_max":0,"o":"m 434 0 l 434 87 l 521 87 l 521 0 z m 347 87 l 347 174 l 434 174 l 434 87 z m 260 174 l 260 260 l 347 260 l 347 174 z m 260 434 l 260 608 l 347 608 l 347 434 z m 0 0 l 0 694 l 87 694 l 87 434 l 260 434 l 260 260 l 174 260 l 174 347 l 87 347 l 87 0 z m 347 608 l 347 694 l 521 694 l 521 608 z m 260 781 l 260 868 l 347 868 l 347 781 z m 347 868 l 347 955 l 434 955 l 434 868 z "},"Ѝ":{"ha":608,"x_min":0,"x_max":0,"o":"m 174 174 l 174 347 l 260 347 l 260 174 z m 260 347 l 260 521 l 347 521 l 347 347 z m 0 0 l 0 694 l 87 694 l 87 174 l 174 174 l 174 87 l 87 87 l 87 0 z m 434 0 l 434 521 l 347 521 l 347 608 l 434 608 l 434 694 l 521 694 l 521 0 z m 260 781 l 260 868 l 347 868 l 347 781 z m 174 868 l 174 955 l 260 955 l 260 868 z "},"Ў":{"ha":608,"x_min":0,"x_max":0,"o":"m 0 0 l 0 87 l 174 87 l 174 0 z m 174 87 l 174 347 l 347 347 l 347 174 l 260 174 l 260 87 z m 87 347 l 87 521 l 174 521 l 174 347 z m 347 347 l 347 521 l 434 521 l 434 347 z m 0 521 l 0 694 l 87 694 l 87 521 z m 434 521 l 434 694 l 521 694 l 521 521 z "},"Џ":{"ha":608,"x_min":0,"x_max":0,"o":"m 260 -174 l 260 0 l 0 0 l 0 694 l 87 694 l 87 87 l 434 87 l 434 694 l 521 694 l 521 0 l 347 0 l 347 -174 z "},"А":{"ha":608,"x_min":0,"x_max":0,"o":"m 0 0 l 0 260 l 87 260 l 87 521 l 174 521 l 174 260 l 347 260 l 347 521 l 434 521 l 434 260 l 521 260 l 521 0 l 434 0 l 434 174 l 87 174 l 87 0 z m 174 521 l 174 694 l 347 694 l 347 521 z "},"Б":{"ha":521,"x_min":0,"x_max":0,"o":"m 347 87 l 347 347 l 434 347 l 434 87 z m 0 0 l 0 694 l 434 694 l 434 608 l 87 608 l 87 434 l 347 434 l 347 347 l 87 347 l 87 87 l 347 87 l 347 0 z "},"В":{"ha":521,"x_min":0,"x_max":0,"o":"m 347 87 l 347 347 l 434 347 l 434 87 z m 347 434 l 347 608 l 434 608 l 434 434 z m 0 0 l 0 694 l 347 694 l 347 608 l 87 608 l 87 434 l 347 434 l 347 347 l 87 347 l 87 87 l 347 87 l 347 0 z "},"Г":{"ha":521,"x_min":0,"x_max":0,"o":"m 0 0 l 0 694 l 434 694 l 434 608 l 87 608 l 87 0 z "},"Д":{"ha":694,"x_min":0,"x_max":0,"o":"m 174 260 l 174 521 l 260 521 l 260 260 z m 0 -174 l 0 87 l 87 87 l 87 260 l 174 260 l 174 87 l 434 87 l 434 608 l 347 608 l 347 521 l 260 521 l 260 694 l 521 694 l 521 87 l 608 87 l 608 -174 l 521 -174 l 521 0 l 87 0 l 87 -174 z "},"Е":{"ha":521,"x_min":0,"x_max":0,"o":"m 0 0 l 0 694 l 434 694 l 434 608 l 87 608 l 87 434 l 347 434 l 347 347 l 87 347 l 87 87 l 434 87 l 434 0 z "},"Ж":{"ha":868,"x_min":0,"x_max":0,"o":"m 0 0 l 0 87 l 87 87 l 87 0 z m 694 0 l 694 87 l 781 87 l 781 0 z m 87 87 l 87 174 l 174 174 l 174 87 z m 608 87 l 608 174 l 694 174 l 694 87 z m 174 174 l 174 260 l 260 260 l 260 174 z m 521 174 l 521 260 l 608 260 l 608 174 z m 174 347 l 174 521 l 260 521 l 260 347 z m 521 347 l 521 521 l 608 521 l 608 347 z m 87 521 l 87 608 l 0 608 l 0 694 l 174 694 l 174 521 z m 347 0 l 347 260 l 260 260 l 260 347 l 347 347 l 347 694 l 434 694 l 434 347 l 521 347 l 521 260 l 434 260 l 434 0 z m 608 521 l 608 694 l 781 694 l 781 608 l 694 608 l 694 521 z "},"З":{"ha":521,"x_min":0,"x_max":0,"o":"m 0 0 l 0 87 l 347 87 l 347 0 z m 347 87 l 347 347 l 434 347 l 434 87 z m 87 347 l 87 434 l 347 434 l 347 347 z m 347 434 l 347 608 l 434 608 l 434 434 z m 0 608 l 0 694 l 347 694 l 347 608 z "},"И":{"ha":608,"x_min":0,"x_max":0,"o":"m 174 174 l 174 347 l 260 347 l 260 174 z m 260 347 l 260 521 l 347 521 l 347 347 z m 0 0 l 0 694 l 87 694 l 87 174 l 174 174 l 174 87 l 87 87 l 87 0 z m 434 0 l 434 521 l 347 521 l 347 608 l 434 608 l 434 694 l 521 694 l 521 0 z "},"Й":{"ha":608,"x_min":0,"x_max":0,"o":"m 174 174 l 174 347 l 260 347 l 260 174 z m 260 347 l 260 521 l 347 521 l 347 347 z m 0 0 l 0 694 l 87 694 l 87 174 l 174 174 l 174 87 l 87 87 l 87 0 z m 434 0 l 434 521 l 347 521 l 347 608 l 434 608 l 434 694 l 521 694 l 521 0 z m 174 781 l 174 868 l 347 868 l 347 781 z m 87 868 l 87 955 l 174 955 l 174 868 z m 347 868 l 347 955 l 434 955 l 434 868 z "},"К":{"ha":608,"x_min":0,"x_max":0,"o":"m 434 0 l 434 87 l 521 87 l 521 0 z m 347 87 l 347 174 l 434 174 l 434 87 z m 260 174 l 260 260 l 347 260 l 347 174 z m 260 434 l 260 608 l 347 608 l 347 434 z m 0 0 l 0 694 l 87 694 l 87 434 l 260 434 l 260 260 l 174 260 l 174 347 l 87 347 l 87 0 z m 347 608 l 347 694 l 521 694 l 521 608 z "},"Л":{"ha":608,"x_min":0,"x_max":0,"o":"m 0 0 l 0 87 l 87 87 l 87 0 z m 434 0 l 434 608 l 174 608 l 174 87 l 87 87 l 87 694 l 521 694 l 521 0 z "},"М":{"ha":694,"x_min":0,"x_max":0,"o":"m 260 174 l 260 347 l 347 347 l 347 174 z m 174 347 l 174 521 l 260 521 l 260 347 z m 347 347 l 347 521 l 434 521 l 434 347 z m 0 0 l 0 694 l 174 694 l 174 521 l 87 521 l 87 0 z m 521 0 l 521 521 l 434 521 l 434 694 l 608 694 l 608 0 z "},"Н":{"ha":608,"x_min":0,"x_max":0,"o":"m 0 0 l 0 694 l 87 694 l 87 434 l 434 434 l 434 694 l 521 694 l 521 0 l 434 0 l 434 347 l 87 347 l 87 0 z "},"О":{"ha":694,"x_min":0,"x_max":0,"o":"m 174 0 l 174 87 l 434 87 l 434 0 z m 87 87 l 87 174 l 174 174 l 174 87 z m 434 87 l 434 174 l 521 174 l 521 87 z m 0 174 l 0 521 l 87 521 l 87 174 z m 521 174 l 521 521 l 608 521 l 608 174 z m 87 521 l 87 608 l 174 608 l 174 521 z m 434 521 l 434 608 l 521 608 l 521 521 z m 174 608 l 174 694 l 434 694 l 434 608 z "},"П":{"ha":608,"x_min":0,"x_max":0,"o":"m 0 0 l 0 694 l 521 694 l 521 0 l 434 0 l 434 608 l 87 608 l 87 0 z "},"Р":{"ha":521,"x_min":0,"x_max":0,"o":"m 347 347 l 347 608 l 434 608 l 434 347 z m 0 0 l 0 694 l 347 694 l 347 608 l 87 608 l 87 347 l 347 347 l 347 260 l 87 260 l 87 0 z "},"С":{"ha":608,"x_min":0,"x_max":0,"o":"m 174 0 l 174 87 l 521 87 l 521 0 z m 87 87 l 87 174 l 174 174 l 174 87 z m 0 174 l 0 521 l 87 521 l 87 174 z m 87 521 l 87 608 l 174 608 l 174 521 z m 174 608 l 174 694 l 521 694 l 521 608 z "},"Т":{"ha":521,"x_min":0,"x_max":0,"o":"m 174 0 l 174 608 l 0 608 l 0 694 l 434 694 l 434 608 l 260 608 l 260 0 z "},"У":{"ha":608,"x_min":0,"x_max":0,"o":"m 0 0 l 0 87 l 174 87 l 174 0 z m 174 87 l 174 347 l 347 347 l 347 174 l 260 174 l 260 87 z m 87 347 l 87 521 l 174 521 l 174 347 z m 347 347 l 347 521 l 434 521 l 434 347 z m 0 521 l 0 694 l 87 694 l 87 521 z m 434 521 l 434 694 l 521 694 l 521 521 z "},"Ф":{"ha":694,"x_min":0,"x_max":0,"o":"m 0 174 l 0 521 l 87 521 l 87 174 z m 521 174 l 521 521 l 608 521 l 608 174 z m 260 0 l 260 87 l 87 87 l 87 174 l 260 174 l 260 521 l 87 521 l 87 608 l 260 608 l 260 694 l 347 694 l 347 608 l 521 608 l 521 521 l 347 521 l 347 174 l 521 174 l 521 87 l 347 87 l 347 0 z "},"Х":{"ha":521,"x_min":0,"x_max":0,"o":"m 0 0 l 0 174 l 87 174 l 87 0 z m 347 0 l 347 174 l 434 174 l 434 0 z m 87 174 l 87 260 l 174 260 l 174 174 z m 260 174 l 260 260 l 347 260 l 347 174 z m 174 260 l 174 434 l 260 434 l 260 260 z m 87 434 l 87 521 l 174 521 l 174 434 z m 260 434 l 260 521 l 347 521 l 347 434 z m 0 521 l 0 694 l 87 694 l 87 521 z m 347 521 l 347 694 l 434 694 l 434 521 z "},"Ц":{"ha":694,"x_min":0,"x_max":0,"o":"m 521 -174 l 521 0 l 0 0 l 0 694 l 87 694 l 87 87 l 434 87 l 434 694 l 521 694 l 521 87 l 608 87 l 608 -174 z "},"Ч":{"ha":608,"x_min":0,"x_max":0,"o":"m 0 347 l 0 694 l 87 694 l 87 347 z m 434 0 l 434 260 l 87 260 l 87 347 l 434 347 l 434 694 l 521 694 l 521 0 z "},"Ш":{"ha":868,"x_min":0,"x_max":0,"o":"m 0 0 l 0 694 l 87 694 l 87 87 l 347 87 l 347 694 l 434 694 l 434 87 l 694 87 l 694 694 l 781 694 l 781 0 z "},"Щ":{"ha":955,"x_min":0,"x_max":0,"o":"m 781 -174 l 781 0 l 0 0 l 0 694 l 87 694 l 87 87 l 347 87 l 347 694 l 434 694 l 434 87 l 694 87 l 694 694 l 781 694 l 781 87 l 868 87 l 868 -174 z "},"Ъ":{"ha":694,"x_min":0,"x_max":0,"o":"m 521 87 l 521 347 l 608 347 l 608 87 z m 174 0 l 174 608 l 0 608 l 0 694 l 260 694 l 260 434 l 521 434 l 521 347 l 260 347 l 260 87 l 521 87 l 521 0 z "},"Ы":{"ha":694,"x_min":0,"x_max":0,"o":"m 347 87 l 347 347 l 434 347 l 434 87 z m 0 0 l 0 694 l 87 694 l 87 434 l 347 434 l 347 347 l 87 347 l 87 87 l 347 87 l 347 0 z m 521 0 l 521 694 l 608 694 l 608 0 z "},"Ь":{"ha":521,"x_min":0,"x_max":0,"o":"m 347 87 l 347 347 l 434 347 l 434 87 z m 0 0 l 0 694 l 87 694 l 87 434 l 347 434 l 347 347 l 87 347 l 87 87 l 347 87 l 347 0 z "},"Э":{"ha":608,"x_min":0,"x_max":0,"o":"m 0 0 l 0 87 l 347 87 l 347 0 z m 347 87 l 347 174 l 434 174 l 434 87 z m 434 174 l 434 347 l 87 347 l 87 434 l 434 434 l 434 521 l 521 521 l 521 174 z m 347 521 l 347 608 l 434 608 l 434 521 z m 0 608 l 0 694 l 347 694 l 347 608 z "},"Ю":{"ha":868,"x_min":0,"x_max":0,"o":"m 347 0 l 347 87 l 608 87 l 608 0 z m 260 87 l 260 174 l 347 174 l 347 87 z m 608 87 l 608 174 l 694 174 l 694 87 z m 694 174 l 694 521 l 781 521 l 781 174 z m 260 521 l 260 608 l 347 608 l 347 521 z m 608 521 l 608 608 l 694 608 l 694 521 z m 0 0 l 0 694 l 87 694 l 87 434 l 174 434 l 174 521 l 260 521 l 260 174 l 174 174 l 174 347 l 87 347 l 87 0 z m 347 608 l 347 694 l 608 694 l 608 608 z "},"Я":{"ha":608,"x_min":0,"x_max":0,"o":"m 0 0 l 0 87 l 87 87 l 87 0 z m 87 87 l 87 174 l 174 174 l 174 87 z m 87 347 l 87 608 l 174 608 l 174 347 z m 434 0 l 434 260 l 260 260 l 260 174 l 174 174 l 174 347 l 434 347 l 434 608 l 174 608 l 174 694 l 521 694 l 521 0 z "},"а":{"ha":521,"x_min":0,"x_max":0,"o":"m 0 87 l 0 260 l 87 260 l 87 87 z m 87 0 l 87 87 l 347 87 l 347 260 l 87 260 l 87 347 l 347 347 l 347 434 l 434 434 l 434 0 z m 87 434 l 87 521 l 347 521 l 347 434 z "},"б":{"ha":521,"x_min":0,"x_max":0,"o":"m 87 0 l 87 87 l 347 87 l 347 0 z m 347 87 l 347 434 l 434 434 l 434 87 z m 0 87 l 0 608 l 87 608 l 87 521 l 347 521 l 347 434 l 87 434 l 87 87 z m 87 608 l 87 694 l 174 694 l 174 608 z m 174 694 l 174 781 l 434 781 l 434 694 z "},"в":{"ha":521,"x_min":0,"x_max":0,"o":"m 347 87 l 347 260 l 434 260 l 434 87 z m 347 347 l 347 434 l 434 434 l 434 347 z m 0 0 l 0 521 l 347 521 l 347 434 l 87 434 l 87 347 l 347 347 l 347 260 l 87 260 l 87 87 l 347 87 l 347 0 z "},"г":{"ha":434,"x_min":0,"x_max":0,"o":"m 0 0 l 0 521 l 347 521 l 347 434 l 87 434 l 87 0 z "},"д":{"ha":608,"x_min":0,"x_max":0,"o":"m 0 -87 l 0 87 l 87 87 l 87 260 l 174 260 l 174 87 l 347 87 l 347 434 l 260 434 l 260 260 l 174 260 l 174 521 l 434 521 l 434 87 l 521 87 l 521 -87 l 434 -87 l 434 0 l 87 0 l 87 -87 z "},"е":{"ha":521,"x_min":0,"x_max":0,"o":"m 87 0 l 87 87 l 347 87 l 347 0 z m 347 87 l 347 174 l 434 174 l 434 87 z m 0 87 l 0 434 l 87 434 l 87 347 l 347 347 l 347 434 l 434 434 l 434 260 l 87 260 l 87 87 z m 87 434 l 87 521 l 347 521 l 347 434 z "}}}
